<svg width="39" height="38" viewBox="0 0 39 38" fill="none" xmlns="http://www.w3.org/2000/svg">
<circle cx="20" cy="20" r="18" fill="#00DD6D"/>
<path fill-rule="evenodd" clip-rule="evenodd" d="M20.25 11C20.6642 11 21 11.3358 21 11.75V18.5H27.75C28.1642 18.5 28.5 18.8358 28.5 19.25C28.5 19.6642 28.1642 20 27.75 20H21V26.75C21 27.1642 20.6642 27.5 20.25 27.5C19.8358 27.5 19.5 27.1642 19.5 26.75V20H12.75C12.3358 20 12 19.6642 12 19.25C12 18.8358 12.3358 18.5 12.75 18.5H19.5V11.75C19.5 11.3358 19.8358 11 20.25 11Z" fill="white" stroke="white" stroke-linecap="round" stroke-linejoin="round"/>
</svg>
