<svg width="811" height="523" viewBox="0 0 811 523" fill="none" xmlns="http://www.w3.org/2000/svg">
<g clip-path="url(#clip0_749_5463)">
<path d="M667.936 30.6179C667.936 30.6179 655.508 26.1799 647.519 43.9329C639.53 61.6859 627.102 81.216 627.102 81.216L634.202 82.9909C634.202 82.9909 635.977 70.5629 640.416 68.7909L638.642 84.7679C638.642 84.7679 691.903 103.409 715.87 82.9929L714.982 76.7789C714.982 76.7789 718.536 77.668 718.536 82.992L721.199 80.3289C721.199 80.3289 718.536 75.0029 710.547 67.9009C705.303 63.2399 703.501 54.3719 702.882 48.8279C702.418 44.1984 700.565 39.8172 697.568 36.2589C692.257 30.1059 682.583 23.5679 667.936 30.6179Z" fill="#2F2E41"/>
<path d="M701.837 225.059H267V518.42H701.837V225.059Z" fill="white"/>
<path d="M702.918 520.419H265.082V224.059H702.918V520.419ZM268.081 517.419H699.919V227.058H268.081V517.419Z" fill="#3F3D56"/>
<path d="M304 493.936H665.343V249.059H304V493.936Z" fill="#E5E5E5"/>
<path d="M406.643 414.985C427.59 414.985 444.571 398.004 444.571 377.057C444.571 356.11 427.59 339.129 406.643 339.129C385.696 339.129 368.715 356.11 368.715 377.057C368.715 398.004 385.696 414.985 406.643 414.985Z" fill="#3F3D56"/>
<path d="M525.577 493.94H339.516C339.282 493.943 339.048 493.925 338.816 493.885L426.816 341.46C427.353 340.51 428.133 339.721 429.075 339.171C430.017 338.622 431.088 338.332 432.179 338.332C433.27 338.332 434.341 338.622 435.283 339.171C436.225 339.721 437.004 340.51 437.541 341.46L496.603 443.74L499.432 448.635L525.577 493.94Z" fill="#00BE7B"/>
<path opacity="0.2" d="M525.578 493.937H462.051L493.236 448.637L495.482 445.374L496.605 443.742L499.433 448.637L525.578 493.937Z" fill="black"/>
<path d="M629.174 493.934H468.246L499.431 448.634L501.675 445.371L542.311 386.341C543.03 385.439 543.93 384.699 544.953 384.167C545.977 383.636 547.1 383.326 548.251 383.257C549.403 383.188 550.555 383.362 551.635 383.768C552.714 384.173 553.696 384.801 554.517 385.611C554.727 385.842 554.923 386.086 555.102 386.341L629.174 493.934Z" fill="#00BE7B"/>
<path d="M708.38 230.439C709.319 229.18 709.969 227.73 710.287 226.192C710.605 224.654 710.581 223.065 710.218 221.537C709.855 220.009 709.162 218.579 708.186 217.348C707.211 216.117 705.978 215.115 704.573 214.412L677.02 120.527L656.039 130.802L689.72 219.857C688.694 222.295 688.598 225.025 689.451 227.529C690.304 230.033 692.046 232.137 694.347 233.442C696.648 234.746 699.348 235.161 701.935 234.608C704.521 234.054 706.815 232.571 708.38 230.438V230.439Z" fill="#A0616A"/>
<path d="M683.261 136.205L659.778 142.562C659.11 142.743 658.41 142.778 657.727 142.664C657.045 142.55 656.394 142.29 655.821 141.903C655.248 141.515 654.765 141.008 654.405 140.417C654.045 139.826 653.817 139.164 653.736 138.476L650.898 114.389C649.983 110.963 650.467 107.313 652.242 104.243C654.018 101.173 656.939 98.9337 660.365 98.0171C663.791 97.1005 667.441 97.5818 670.512 99.3552C673.584 101.129 675.825 104.049 676.744 107.474L686.418 129.63C686.694 130.265 686.831 130.951 686.819 131.643C686.806 132.336 686.645 133.017 686.345 133.641C686.046 134.265 685.615 134.817 685.083 135.26C684.551 135.703 683.93 136.025 683.262 136.206L683.261 136.205Z" fill="#00BE7B"/>
<path d="M714.515 319.835H726.775L732.608 288.035H714.508L714.515 319.835Z" fill="#A0616A"/>
<path d="M711.391 315.832H735.54C737.56 315.832 739.561 316.23 741.428 317.003C743.294 317.776 744.991 318.909 746.419 320.338C747.848 321.766 748.982 323.462 749.755 325.329C750.528 327.196 750.927 329.197 750.927 331.217V331.719H711.392L711.391 315.832Z" fill="#2F2E41"/>
<path d="M728.747 302.784C728.605 302.784 728.461 302.777 728.317 302.763L711.35 301.528C710.664 301.464 710.002 301.244 709.414 300.883C708.827 300.523 708.33 300.033 707.962 299.451C707.594 298.868 707.365 298.209 707.292 297.524C707.219 296.838 707.304 296.146 707.541 295.499L730.248 244.484C730.41 244.028 730.476 243.545 730.441 243.063C730.407 242.581 730.273 242.111 730.048 241.684C729.825 241.251 729.512 240.87 729.131 240.567C728.75 240.264 728.309 240.044 727.837 239.924C717.16 237.133 689.765 229.701 666.051 221.006C655.891 217.28 649.492 211.897 647.032 205.006C643.789 195.919 648.587 187.632 648.792 187.284L648.953 187.012L671.268 189.04L695.459 191.098L748.472 219.526C752.914 221.928 756.289 225.915 757.923 230.693C759.557 235.472 759.332 240.69 757.291 245.31L732.85 300.118C732.496 300.911 731.921 301.584 731.193 302.057C730.465 302.53 729.615 302.783 728.747 302.784Z" fill="#2F2E41"/>
<path d="M675.151 88.1103C688.715 88.1103 699.712 77.1139 699.712 63.5493C699.712 49.9846 688.715 38.9883 675.151 38.9883C661.586 38.9883 650.59 49.9846 650.59 63.5493C650.59 77.1139 661.586 88.1103 675.151 88.1103Z" fill="#A0616A"/>
<path d="M707.515 318.835H719.775L725.608 287.035H707.508L707.515 318.835Z" fill="#A0616A"/>
<path d="M704.391 314.832H728.54C730.56 314.832 732.561 315.23 734.428 316.003C736.294 316.776 737.991 317.909 739.419 319.338C740.848 320.766 741.982 322.462 742.755 324.329C743.528 326.196 743.927 328.197 743.927 330.217V330.719H704.392L704.391 314.832Z" fill="#2F2E41"/>
<path d="M721.747 305.784C721.605 305.784 721.461 305.777 721.317 305.763L704.35 304.528C703.664 304.464 703.002 304.244 702.414 303.883C701.827 303.523 701.33 303.033 700.962 302.451C700.594 301.868 700.365 301.209 700.292 300.524C700.219 299.838 700.304 299.146 700.541 298.499L723.248 247.484C723.41 247.028 723.476 246.545 723.441 246.063C723.407 245.581 723.273 245.111 723.048 244.684C722.825 244.251 722.512 243.87 722.131 243.567C721.75 243.264 721.309 243.044 720.837 242.924C710.16 240.133 682.765 232.701 659.051 224.006C648.891 220.28 642.492 214.897 640.032 208.006C636.789 198.919 641.587 190.632 641.792 190.284L641.953 190.012L664.268 192.04L688.459 194.098L741.472 222.526C745.914 224.928 749.289 228.915 750.923 233.693C752.557 238.472 752.332 243.69 750.291 248.31L725.85 303.118C725.496 303.911 724.921 304.584 724.193 305.057C723.465 305.53 722.615 305.783 721.747 305.784Z" fill="#2F2E41"/>
<path d="M682.727 102.039L656.727 93.0391C656.727 93.0391 640.405 105.579 648.246 136.688C652.339 152.741 651.147 169.686 644.846 185.008C644.087 186.904 643.212 188.751 642.227 190.539C642.227 190.539 671.227 225.539 698.227 199.539L687.727 149.039C687.727 149.039 704.227 115.539 682.727 102.039Z" fill="#CBCBCB"/>
<path d="M745.793 225.939C746.387 224.485 746.655 222.918 746.578 221.35C746.501 219.781 746.081 218.249 745.348 216.86C744.615 215.471 743.586 214.26 742.334 213.312C741.082 212.363 739.637 211.701 738.102 211.372L687.967 127.348L670.219 142.54L725.081 220.356C724.696 222.973 725.285 225.64 726.736 227.852C728.188 230.064 730.4 231.666 732.954 232.355C735.509 233.043 738.227 232.771 740.593 231.588C742.96 230.406 744.81 228.396 745.793 225.94V225.939Z" fill="#A0616A"/>
<path d="M697.928 140.971L676.778 152.993C676.177 153.335 675.508 153.543 674.819 153.604C674.129 153.664 673.435 153.575 672.783 153.343C672.131 153.111 671.536 152.741 671.04 152.259C670.544 151.776 670.158 151.192 669.907 150.547L661.138 127.931C659.394 124.841 658.949 121.185 659.9 117.767C660.852 114.349 663.122 111.449 666.212 109.705C669.302 107.96 672.958 107.515 676.376 108.467C679.794 109.418 682.694 111.688 684.438 114.778L699.338 133.815C699.765 134.36 700.069 134.991 700.23 135.664C700.391 136.338 700.404 137.038 700.27 137.717C700.136 138.396 699.857 139.038 699.453 139.6C699.048 140.161 698.527 140.629 697.925 140.971H697.928Z" fill="#CBCBCB"/>
<path d="M647.148 68.153C647.148 68.153 658.198 55.2896 664.413 53.5146C668.139 52.454 671.738 50.9916 675.148 49.153C675.148 49.153 687.491 60.6166 697.256 61.5036C707.021 62.3906 698.144 40.2036 698.144 40.2036L680.39 35.7656L663.524 37.5406L650.209 46.4176L647.148 68.153Z" fill="#2F2E41"/>
<path d="M0 226.546C0 159.381 54.448 0 121.614 0C188.78 0 243.228 159.381 243.228 226.546C243.136 258.739 230.282 289.583 207.485 312.315C184.688 335.046 153.808 347.811 121.615 347.811C89.4209 347.811 58.5407 335.046 35.7438 312.315C12.9469 289.583 0.0923161 258.739 0 226.546Z" fill="#E5E5E5"/>
<path d="M121.613 522.421C121.348 522.421 121.094 522.315 120.906 522.128C120.719 521.94 120.613 521.686 120.613 521.421V102.137C120.613 101.872 120.719 101.617 120.906 101.43C121.094 101.242 121.348 101.137 121.613 101.137C121.878 101.137 122.133 101.242 122.32 101.43C122.508 101.617 122.613 101.872 122.613 102.137V521.421C122.613 521.686 122.508 521.94 122.32 522.128C122.133 522.315 121.878 522.421 121.613 522.421Z" fill="#CCCCCC"/>
<path d="M121.615 183.079C121.35 183.079 121.095 182.973 120.908 182.786L72.7729 134.652C72.5907 134.463 72.4899 134.211 72.4922 133.948C72.4945 133.686 72.5997 133.435 72.7851 133.25C72.9705 133.065 73.2213 132.959 73.4835 132.957C73.7457 132.955 73.9983 133.056 74.1869 133.238L122.322 181.372C122.462 181.512 122.557 181.69 122.595 181.884C122.634 182.078 122.614 182.279 122.539 182.461C122.463 182.644 122.335 182.8 122.17 182.91C122.006 183.02 121.813 183.079 121.615 183.079Z" fill="#CCCCCC"/>
<path d="M121.613 266.408C121.415 266.408 121.222 266.35 121.058 266.24C120.893 266.13 120.765 265.974 120.689 265.791C120.614 265.608 120.594 265.407 120.632 265.213C120.671 265.019 120.766 264.841 120.906 264.701L201.516 184.091C201.607 183.997 201.716 183.921 201.837 183.868C201.957 183.816 202.087 183.788 202.218 183.785C202.35 183.783 202.48 183.807 202.603 183.855C202.725 183.903 202.836 183.975 202.931 184.066C203.025 184.157 203.101 184.266 203.153 184.387C203.206 184.507 203.234 184.637 203.236 184.768C203.238 184.9 203.215 185.03 203.166 185.153C203.118 185.275 203.046 185.386 202.955 185.481L202.93 185.505L122.32 266.117C122.133 266.305 121.878 266.41 121.613 266.41V266.408Z" fill="#CCCCCC"/>
<path d="M809.895 522.418H66.8945C66.6293 522.418 66.375 522.313 66.1874 522.125C65.9999 521.938 65.8945 521.683 65.8945 521.418C65.8945 521.153 65.9999 520.898 66.1874 520.711C66.375 520.523 66.6293 520.418 66.8945 520.418H809.895C810.16 520.418 810.414 520.523 810.602 520.711C810.789 520.898 810.895 521.153 810.895 521.418C810.895 521.683 810.789 521.938 810.602 522.125C810.414 522.313 810.16 522.418 809.895 522.418Z" fill="#E6E6E6"/>
<path d="M155.875 445.632C155.875 428.426 169.832 387.598 187.049 387.598C204.266 387.598 218.224 428.423 218.224 445.632C218.224 453.9 214.94 461.829 209.093 467.675C203.247 473.522 195.317 476.806 187.049 476.806C178.782 476.806 170.852 473.522 165.006 467.675C159.159 461.829 155.875 453.9 155.875 445.632Z" fill="#00BE7B"/>
<path d="M187.049 521.419C186.981 521.419 186.916 521.393 186.868 521.345C186.82 521.297 186.793 521.231 186.793 521.164V413.756C186.793 413.723 186.8 413.689 186.812 413.658C186.825 413.627 186.844 413.599 186.868 413.575C186.892 413.551 186.92 413.532 186.951 413.52C186.982 413.507 187.016 413.5 187.049 413.5C187.083 413.5 187.116 413.507 187.148 413.52C187.179 413.532 187.207 413.551 187.231 413.575C187.255 413.599 187.274 413.627 187.286 413.658C187.299 413.689 187.306 413.723 187.306 413.756V521.164C187.306 521.231 187.279 521.296 187.231 521.344C187.183 521.392 187.117 521.419 187.049 521.419Z" fill="#E6E6E6"/>
<path d="M187.051 434.49C187.017 434.49 186.984 434.483 186.953 434.47C186.922 434.458 186.894 434.439 186.87 434.415L174.531 422.085C174.483 422.037 174.457 421.971 174.457 421.904C174.457 421.836 174.484 421.771 174.532 421.723C174.58 421.675 174.645 421.649 174.713 421.648C174.781 421.648 174.846 421.675 174.894 421.723L187.233 434.053C187.269 434.089 187.293 434.134 187.303 434.184C187.313 434.234 187.308 434.285 187.288 434.332C187.269 434.379 187.236 434.419 187.194 434.447C187.152 434.475 187.102 434.49 187.051 434.49Z" fill="#E6E6E6"/>
<path d="M187.049 455.838C186.998 455.838 186.949 455.823 186.907 455.795C186.865 455.767 186.832 455.727 186.812 455.68C186.793 455.633 186.788 455.582 186.798 455.532C186.808 455.483 186.832 455.437 186.868 455.401L207.532 434.751C207.58 434.703 207.645 434.676 207.713 434.676C207.781 434.676 207.846 434.703 207.894 434.751C207.943 434.799 207.97 434.864 207.97 434.932C207.97 435 207.943 435.065 207.895 435.113L187.23 455.763C187.206 455.787 187.178 455.806 187.147 455.819C187.116 455.832 187.083 455.838 187.049 455.838Z" fill="#E6E6E6"/>
</g>
<defs>
<clipPath id="clip0_749_5463">
<rect width="810.896" height="522.419" fill="white"/>
</clipPath>
</defs>
</svg>
