<svg width="419" height="457" viewBox="0 0 419 457" fill="none" xmlns="http://www.w3.org/2000/svg">
<path d="M9.76553 0H180.006C185.198 0 189.406 4.2035 189.406 9.38879V132.382C189.406 137.567 185.198 141.771 180.006 141.771H9.76553C4.57419 141.771 0.365768 137.567 0.365768 132.382V9.38879C0.365768 4.2035 4.57419 0 9.76553 0Z" fill="#F2F6FB"/>
<path d="M160.964 130.743C170.414 130.743 178.074 123.014 178.074 113.48C178.074 103.946 170.414 96.2168 160.964 96.2168C151.514 96.2168 143.854 103.946 143.854 113.48C143.854 123.014 151.514 130.743 160.964 130.743ZM160.927 113.407C159.664 113.407 158.641 112.388 158.641 111.13C158.641 109.873 159.664 108.854 160.927 108.854C162.189 108.854 163.213 109.873 163.213 111.13C163.213 112.388 162.189 113.407 160.927 113.407ZM160.927 114.546C163.215 114.546 165.07 116.393 165.07 118.673H156.783C156.783 116.393 158.638 114.546 160.927 114.546Z" fill="#D8DEED"/>
<path d="M178.093 31.0375C178.093 29.9983 177.254 29.1559 176.211 29.1559H56.2484C55.2092 29.1559 54.3667 29.9998 54.3667 31.0375V82.3999C54.3667 83.439 55.2061 84.2814 56.2484 84.2814H176.211C177.251 84.2814 178.093 83.4376 178.093 82.3999V31.0375ZM131.601 110.262H37.172C35.2781 110.262 33.7428 111.796 33.7428 113.687C33.7428 115.579 35.2781 117.112 37.172 117.112H131.601C133.494 117.112 135.03 115.579 135.03 113.687C135.03 111.796 133.494 110.262 131.601 110.262ZM131.601 121.394H20.0047C18.1108 121.394 16.5755 122.927 16.5755 124.819C16.5755 126.711 18.1108 128.244 20.0047 128.244H131.601C133.494 128.244 135.03 126.711 135.03 124.819C135.03 122.927 133.494 121.394 131.601 121.394ZM131.601 99.1302H61.2062C59.3123 99.1302 57.777 100.664 57.777 102.555C57.777 104.447 59.3123 105.981 61.2062 105.981H131.601C133.494 105.981 135.03 104.447 135.03 102.555C135.03 100.664 133.494 99.1302 131.601 99.1302ZM189.406 8.01788C189.406 3.58973 185.813 0 181.381 0H8.02589C3.59377 0 0.000808716 3.58875 0.000808716 8.01788V16.0358H189.406V8.01788Z" fill="#E1E5F0"/>
<path d="M39.7448 72.2285H17.4493C14.1155 72.2285 11.4129 74.9279 11.4129 78.2579C11.4129 81.5878 14.1155 84.2872 17.4493 84.2872H39.7448C43.0787 84.2872 45.7812 81.5878 45.7812 78.2579C45.7812 74.9279 43.0787 72.2285 39.7448 72.2285Z" fill="#00BE7B"/>
<path d="M178.627 11.6648C176.712 11.6648 175.16 10.1147 175.16 8.2025C175.16 6.29034 176.712 4.74023 178.627 4.74023C180.542 4.74023 182.094 6.29034 182.094 8.2025C182.094 10.1147 180.542 11.6648 178.627 11.6648Z" fill="#FF5645"/>
<path d="M167.31 11.6648C165.396 11.6648 163.843 10.1147 163.843 8.2025C163.843 6.29034 165.396 4.74023 167.31 4.74023C169.225 4.74023 170.777 6.29034 170.777 8.2025C170.777 10.1147 169.225 11.6648 167.31 11.6648Z" fill="#FFCB3D"/>
<path d="M155.635 11.6648C153.72 11.6648 152.168 10.1147 152.168 8.2025C152.168 6.29034 153.72 4.74023 155.635 4.74023C157.549 4.74023 159.102 6.29034 159.102 8.2025C159.102 10.1147 157.549 11.6648 155.635 11.6648Z" fill="#3ABF7C"/>
<path d="M23.9521 340.155V306.403C23.9521 285.935 23.9521 265.515 23.9521 245.094V213.782C23.9521 212.656 43.4566 211.717 66.909 211.717H71.7969C95.2024 211.717 114.754 212.656 114.754 213.782V340.249C114.754 341.376 95.2494 342.315 71.7969 342.315H66.909C43.5036 342.362 23.9521 341.376 23.9521 340.155Z" fill="#D8DEED"/>
<path d="M162.655 456.248L162.467 456.342C161.48 456.859 160.211 456.577 159.741 455.685L104.705 354.709C104.188 353.77 104.611 352.596 105.598 352.08L105.786 351.986C106.773 351.469 108.042 351.751 108.512 352.643L122.142 377.617C131.024 393.954 139.907 410.243 148.837 426.58L163.548 453.526C164.065 454.465 163.642 455.685 162.655 456.248Z" fill="#D8DEED"/>
<path d="M25.9866 350.34H60.4367C81.3042 350.34 102.172 350.34 122.992 350.34H154.951C156.079 350.34 157.066 351.279 157.066 352.405V352.64C157.066 353.767 156.126 354.706 154.951 354.706H25.8926C24.7646 354.706 23.7776 353.767 23.7776 352.64V352.405C23.7776 351.279 24.7646 350.34 25.9866 350.34Z" fill="#D8DEED"/>
<path d="M9.20909 453.529L23.9197 426.583C32.8025 410.247 41.6853 393.957 50.6151 377.621L64.2447 352.646C64.7147 351.754 65.9837 351.426 66.9707 351.989L67.1587 352.083C68.1456 352.599 68.5686 353.82 68.0516 354.712L13.016 455.688C12.546 456.58 11.277 456.909 10.2901 456.346L10.1021 456.252C9.1151 455.688 8.6921 454.468 9.20909 453.529Z" fill="#D8DEED"/>
<path d="M243.958 336.372C240.579 338.049 239.426 339.709 239.246 341.161C238.982 343.603 239.554 345.566 240.916 348.793C243.553 355.249 245.795 361.791 247.596 368.508C248.124 368.394 248.651 368.274 249.176 368.149C248.075 372.342 248.113 375.549 248.113 375.549C297.494 375.549 321.772 375.549 320.948 375.549C319.713 375.549 310.784 351.398 279.273 348.943C278.368 348.871 277.489 348.826 276.636 348.805C276.443 348.004 276.112 347.281 275.511 346.187C276.831 342.955 277.848 335.379 278.193 332.224C278.193 332.095 278.148 331.965 278.104 331.835C277.927 331.49 277.439 331.317 277.041 331.49L267.066 336.372C265.363 335.75 263.561 335.184 261.66 334.618C259.86 334.069 258.06 333.6 256.368 333.17L252.797 323.903C252.665 323.548 252.226 323.326 251.875 323.504C251.743 323.548 251.655 323.637 251.567 323.77C249.719 326.374 245.179 333.015 243.958 336.372Z" fill="#FFCB3D"/>
<path d="M322.842 372.572C323.214 370.223 322.222 368.793 319.866 368.283C310.151 367.746 301.506 368.466 293.932 370.444C286.358 372.422 281.947 374.148 280.699 375.623H319.866C321.529 375.623 322.842 374.277 322.842 372.572ZM245.682 356.677C244.549 355.366 241.064 349.728 241.064 349.728C241.064 349.728 244.898 361.354 247.206 368.566C247.076 367.954 248.905 372.849 249.123 371.581V371.538C249.428 370.095 250.604 369.046 252.086 368.959C253.48 368.872 254.961 368.828 256.529 368.828C258.533 368.828 260.581 368.959 262.585 369.221L265.503 360.349C262.672 361.791 259.448 362.316 256.311 362.053C255.222 361.966 254.177 361.747 253.131 361.441C250.256 360.611 247.686 358.906 245.682 356.677ZM256.162 345.95C255.543 346.641 254.536 346.88 253.663 346.486C252.869 346.024 252.447 345.131 252.616 344.223C252.686 343.841 252.433 343.473 252.051 343.402C251.668 343.332 251.3 343.584 251.229 343.967C250.949 345.48 251.664 346.974 252.993 347.726L253.041 347.751C254.223 348.302 255.555 348.148 256.566 347.457C256.881 348.213 257.51 348.86 258.356 349.242C260.059 349.888 261.967 349.252 262.826 347.75C263.019 347.412 262.901 346.982 262.563 346.789C262.225 346.596 261.794 346.714 261.601 347.051C261.094 347.939 259.923 348.33 258.898 347.942C258.122 347.591 257.678 346.873 257.758 346.169C257.76 346.165 257.763 346.16 257.765 346.156C257.969 345.801 258.01 345.358 257.969 344.96C257.928 344.65 257.765 344.384 257.561 344.251C257.153 343.941 256.541 344.118 256.296 344.561C256.08 344.987 256.062 345.506 256.162 345.95ZM268.067 345.969C267.572 346.9 268.026 348.228 268.522 348.317C268.893 348.361 269.347 347.874 269.512 347.564C269.719 347.21 269.76 346.767 269.719 346.368C269.678 346.058 269.512 345.792 269.306 345.659C268.893 345.349 268.315 345.526 268.067 345.969ZM246.902 338.458C246.443 339.389 246.86 340.629 247.36 340.806C247.735 340.85 248.194 340.363 248.361 340.053C248.569 339.699 248.611 339.256 248.569 338.857C248.528 338.547 248.361 338.281 248.152 338.148C247.735 337.838 247.152 338.015 246.902 338.458Z" fill="#DE6903"/>
<path d="M188.177 452.758H114.287C113.181 452.758 112.284 453.654 112.284 454.759C112.284 455.863 113.181 456.759 114.287 456.759H188.177C189.283 456.759 190.18 455.863 190.18 454.759C190.18 453.654 189.283 452.758 188.177 452.758ZM105.299 452.758H58.5826C57.4764 452.758 56.5796 453.654 56.5796 454.759C56.5796 455.863 57.4764 456.759 58.5826 456.759H105.299C106.406 456.759 107.302 455.863 107.302 454.759C107.302 453.654 106.406 452.758 105.299 452.758Z" fill="#FF5645"/>
<path d="M59.1042 452.757H105.203L101.506 428.471H68.6547L59.1042 452.757ZM113.047 453.186C113.388 452.917 113.818 452.757 114.287 452.757H188.176C188.249 452.757 188.321 452.76 188.392 452.768C188.418 452.564 188.43 452.321 188.425 452.03C188.374 451.72 188.367 451.364 188.271 451.01C187.689 448.886 186.985 447.475 184.924 446.221C182.864 444.967 180.76 443.846 178.568 442.861C170.485 439.131 167.723 439.178 162.408 435.757C160.208 434.327 158.186 432.672 156.297 430.881C155.037 429.687 152.315 427.748 148.131 425.062L115.701 425.16L113.047 453.186Z" fill="#474961"/>
<path d="M59.4914 348.251C59.5658 370.005 60.3142 398.904 60.5723 408.845C60.6176 410.23 60.4365 413.976 63.1537 416.338C63.9236 417.031 64.6935 417.316 66.1428 417.927C67.275 418.415 72.3473 419.881 82.4918 420.696C83.1259 420.737 83.8052 420.777 84.4845 420.737C94.9461 420.37 97.5275 419.718 101.558 418.578C104.23 417.845 106.178 415.565 106.449 412.877C107.717 401.026 111.205 368.732 111.476 365.882C111.839 362.257 112.156 358.144 112.427 353.461L112.571 351.269L125.104 346.335C119.87 366.348 114.793 387.077 110.253 407.685C110.027 408.695 109.619 410.967 110.797 413.113C112.971 417.194 118.632 416.984 132.173 418.583C148.114 420.477 154.772 422.454 158.395 418.415C159.618 417.11 160.025 415.764 160.161 415.133C163.467 398.764 179.861 351.258 186.247 317.174C186.247 317.09 186.292 317.048 186.292 316.964C188.33 305.982 180.677 295.63 169.309 294.242C165.55 293.779 162.154 293.333 158.395 292.87C157.256 292.737 156.12 292.699 154.996 292.749L98.8828 291.777C65.602 291.488 70.1846 287.63 59.7779 292.412C52.8401 295.6 48.1164 304.677 45.6068 319.642C44.7082 331.02 49.3364 340.557 59.4914 348.251Z" fill="#00BE7B"/>
<path opacity="0.176986" d="M59.4275 348.208C59.4237 347.071 59.4217 345.955 59.4217 344.861C59.4217 336.39 59.3764 329.101 59.2858 324.418C59.1952 320.712 58.5159 300.35 67.3018 296.115C68.0717 295.748 68.8416 295.463 70.3814 294.934C71.6042 294.527 77.9446 292.409 86.0964 292.735C91.3952 292.938 99.3659 293.264 105.933 298.355C114.99 305.4 114.764 316.517 114.673 318.309L112.506 351.292L125.032 346.36C128.522 333.017 132.081 319.991 135.596 307.531C137.998 299.051 146.026 293.181 154.832 292.746L98.876 291.777C65.5953 291.488 70.1778 287.63 59.7712 292.412C52.8334 295.6 48.1097 304.677 45.6001 319.642C44.7031 330.999 49.3123 340.521 59.4275 348.208Z" fill="#444444"/>
<path d="M107.165 208.85C106.62 208.615 106.062 208.406 105.493 208.224L95.8283 205.001C95.2683 204.899 94.7106 204.81 94.1555 204.733C93.3937 203.86 91.8421 203.12 89.1519 202.295C79.5979 199.314 67.4038 204.272 63.0606 215.381C59.2756 225.063 54.2475 235.999 54.716 236.143C54.816 236.173 57.0102 237.741 60.0166 238.712C55.6685 255.103 53.3257 266.075 52.9884 271.629C52.3164 282.69 56.0412 290.104 68.6641 291.044C81.287 291.983 98.8557 293.307 100.92 289.639C102.248 287.281 108.486 272.719 119.636 245.955C123.805 247.303 125.982 247.993 126.167 248.025C126.749 248.126 128.727 241.617 130.015 231.324C131.493 219.513 124.321 209.663 112.436 207.648C110.471 207.306 108.714 207.707 107.165 208.85Z" fill="#FF5645"/>
<path opacity="0.176986" d="M107.136 208.873C118.957 213.77 124.826 230.542 120.89 242.945C120.455 243.962 120.026 244.962 119.605 245.946C123.794 247.3 125.981 247.994 126.167 248.026C126.749 248.127 128.727 241.618 130.015 231.325C131.493 219.514 124.321 209.664 112.436 207.649C110.459 207.306 108.693 207.713 107.136 208.873Z" fill="#444444"/>
<path d="M126.623 210.251C126.623 210.251 127.484 213.63 122.91 212.696C118.335 211.762 117.022 211.318 117.022 211.318L118.2 208.25L126.623 210.251Z" fill="#482D1F"/>
<path d="M100.782 207.868L92.3585 247.146L90.3568 236.483C79.8018 238.549 71.2119 239.581 64.5872 239.581C64.5517 239.581 64.5163 239.581 64.4808 239.581C65.9731 245.283 69.5101 270.028 75.0131 279.602C81.9696 291.705 86.0296 293.034 96.3021 292.045C97.354 291.944 98.346 291.758 99.2824 291.488C98.8334 291.634 98.3706 291.757 97.8934 291.857L151.038 292.673L151.043 292.687L151.204 292.675L151.41 292.678C151.507 292.68 151.602 292.666 151.693 292.639L173.437 291.043C176.926 290.787 180.138 289.049 182.259 286.271L184.702 283.069C185.281 282.31 185.656 281.416 185.791 280.471C186.226 277.418 184.102 274.591 181.045 274.156L174.548 273.231C170.095 272.598 165.573 272.606 161.122 273.256L147.709 275.214C137.525 272.017 123.935 267.819 120.542 267.095L124.755 247.567L119.775 245.615C118.211 249.18 116.74 252.528 115.361 255.661C116.923 240.778 116.747 224.343 118.626 209.743L123.336 209.844C126.143 210.956 132.031 212.823 132.665 208.866C132.665 208.866 124.875 205.71 119.396 203.398L118.988 203.042C118.626 202.731 118.309 202.553 117.856 202.419C117.765 202.375 117.675 202.375 117.584 202.375L117.283 202.332C118.099 202.393 118.671 202.378 118.87 202.357C122.658 202.191 127.301 195.494 129.535 185.733C129.741 184.948 129.812 184.15 129.928 183.357L130.5 175.417C130.657 173.646 130.315 171.876 129.547 170.292C129.473 170.107 129.394 169.967 129.316 169.826C129.039 169.356 128.763 168.886 128.479 168.505C127.387 166.983 126.034 165.84 124.608 165.003C121.216 163.284 117.253 162.854 115.019 162.93C114.699 162.947 113.695 162.995 112.281 163.052C110.945 163.25 109.666 163.318 108.353 163.25C107.627 163.232 107.031 163.806 106.968 164.515L106.408 175.892C106.404 175.976 106.382 176.095 106.342 176.248C101.782 174.396 98.5166 175.452 96.5472 179.419C93.5931 185.368 96.2681 184.081 97.5815 185.666C98.5284 186.774 99.7071 187.322 100.499 187.613C100.647 187.644 100.798 187.729 100.931 187.847L97.3842 187.881L96.7571 190.326L96.5259 193.431L94.1952 204.79C94.1952 204.79 97.4826 206.59 100.782 207.868ZM108.702 201.108L108.969 199.832C109.08 199.879 109.193 199.926 109.308 199.973C113.078 201.547 112.86 201.439 113.123 201.551C113.688 201.724 114.238 201.862 114.76 201.972L110.7 201.397L108.702 201.108ZM71.6639 428.586H101.425L100.784 418.764C97.1265 419.782 94.2557 420.378 84.4213 420.723C83.742 420.763 83.0627 420.723 82.4286 420.682C77.5882 420.293 73.9025 419.756 71.2487 419.248L68.6564 428.458L71.6639 428.586ZM116.999 416.734L115.703 425.147H148.303L146.153 420.379C142.505 419.962 137.925 419.26 132.11 418.569C125.232 417.757 120.387 417.412 116.999 416.734Z" fill="#DB9E75"/>
<path d="M105.93 200.771L107.642 201.007L108.599 201.145C108.632 201.136 108.664 201.127 108.697 201.117L108.965 199.833L104.104 197.775C104.759 199.255 105.367 200.254 105.93 200.771Z" fill="#482D1F"/>
<path d="M126.66 184.777C126.498 185.567 126.204 186.835 126.513 187.442C127.017 188.423 128.785 186.432 128.649 184.903C128.569 184.272 128.277 183.979 127.916 183.948C127.333 183.853 126.801 184.209 126.66 184.777ZM117.035 183.102C116.874 183.892 116.579 185.161 116.888 185.768C117.392 186.748 119.16 184.758 119.024 183.229C118.944 182.597 118.652 182.304 118.291 182.273C117.708 182.178 117.176 182.534 117.035 183.102Z" fill="#482D1F"/>
<path d="M124.434 184.68L124.452 189.145C124.406 189.693 123.945 190.167 123.413 190.121C123.1 190.118 122.9 190.101 122.097 190.015C121.739 189.977 121.493 189.953 121.203 189.927C120.954 189.906 120.769 189.69 120.79 189.445C120.812 189.2 121.031 189.02 121.28 189.042C121.578 189.068 121.828 189.093 122.192 189.131C122.961 189.213 123.149 189.229 123.456 189.233C123.474 189.233 123.543 189.163 123.548 189.106L123.528 184.681C123.527 184.436 123.729 184.236 123.979 184.236C124.229 184.236 124.433 184.435 124.434 184.68Z" fill="#482D1F"/>
<path d="M120.29 192.447C119.982 192.331 119.243 191.955 119.192 191.505C119.2 191.416 119.167 191.279 119.216 191.239C119.416 191.033 119.987 191.261 120.787 191.463C122.211 191.809 123.429 191.913 123.429 191.913C123.429 191.913 122.956 192.631 122.711 192.833C122.167 193.322 120.771 192.667 120.29 192.447Z" fill="#482D1F"/>
<path d="M109.356 179.821L107.855 179.32C106.998 179.034 106.56 180.297 107.418 180.583L108.919 181.084L110.051 181.462C109.922 181.875 109.836 182.308 109.796 182.756C109.486 186.229 112.104 189.291 115.642 189.595C118.72 189.86 121.481 187.949 122.351 185.16L123.144 185.283L123.799 185.384C123.665 188.729 126.231 191.62 129.664 191.915C133.203 192.219 136.322 189.65 136.631 186.176C136.941 182.703 134.324 179.641 130.785 179.337C127.612 179.064 124.758 181.107 123.993 184.064L123.355 183.965L123.144 185.283C123.922 184.717 123.925 184.698 123.927 184.679L124.637 184.163L123.993 184.064C123.961 184.187 123.933 184.312 123.908 184.439C123.85 184.211 123.672 184.014 123.355 183.965L122.609 183.85C122.915 180.379 120.299 177.32 116.763 177.017C114.158 176.793 111.781 178.126 110.584 180.231L109.356 179.821ZM124.426 185.481C124.8 185.539 125.151 185.285 125.204 184.917C125.257 184.556 125.004 184.22 124.637 184.163L123.355 183.965L122.609 183.85C122.609 183.852 122.609 183.854 122.609 183.856C122.569 184.308 122.481 184.744 122.351 185.16L123.144 185.283L124.426 185.481ZM123.144 185.283C123.468 185.333 123.703 185.192 123.827 184.985L123.144 185.283ZM115.76 188.266C112.97 188.027 110.905 185.612 111.149 182.872C111.394 180.132 113.854 178.106 116.644 178.345C119.435 178.585 121.499 181 121.255 183.74C121.011 186.48 118.551 188.506 115.76 188.266ZM130.667 180.665C133.458 180.905 135.522 183.32 135.278 186.06C135.034 188.8 132.574 190.826 129.783 190.587C126.992 190.347 124.928 187.932 125.172 185.192C125.18 185.1 125.191 185.008 125.204 184.917C125.584 182.308 127.981 180.435 130.667 180.665Z" fill="#482D1F"/>
<path opacity="0.2" d="M97.9129 291.865L151.058 292.681L151.062 292.696L151.224 292.684L151.429 292.687C151.526 292.688 151.622 292.675 151.712 292.648L173.456 291.052C176.945 290.795 180.157 289.058 182.278 286.279L184.722 283.078C185.301 282.319 185.676 281.424 185.811 280.48C186.246 277.427 184.121 274.599 181.064 274.164L174.568 273.24C170.114 272.606 165.593 272.614 161.142 273.264L147.728 275.223C137.544 272.026 123.954 267.827 120.561 267.104L124.775 247.576L119.794 245.623C118.139 249.396 116.588 252.927 115.14 256.216C114.887 258.173 114.595 260.12 114.252 262.056C110.908 279.523 107.032 289.963 97.9129 291.865Z" fill="#8C2A00"/>
<path d="M92.8156 247.384C92.9222 247.031 92.717 246.66 92.3573 246.555C91.9976 246.451 91.6196 246.652 91.5129 247.005L87.0294 261.855C86.9228 262.208 87.128 262.579 87.4877 262.684C87.8474 262.789 88.2254 262.587 88.332 262.234L92.8156 247.384ZM64.4405 240.129C64.8157 240.127 65.1175 239.826 65.1147 239.458C65.1119 239.089 64.8055 238.793 64.4303 238.796C62.5396 238.81 60.7655 238.539 59.1049 237.985C58.7497 237.866 58.3638 238.053 58.2431 238.402C58.1223 238.75 58.3124 239.129 58.6677 239.248C60.475 239.851 62.4003 240.144 64.4405 240.129Z" fill="#482D1F"/>
<path d="M102.039 187.458C101.35 187.261 99.3129 186.822 98.0625 185.312C96.7451 183.771 96.0971 181.35 97.0693 179.112C97.9434 176.956 100.271 175.326 102.432 175.556C103.647 175.705 104.588 176.366 104.715 176.467C106.204 177.621 106.799 179.1 106.799 179.1L107.159 180.133C107.338 179.902 107.51 179.686 107.674 179.488C111.14 176.304 113.141 174.096 116.652 170.916C118.417 171.514 129.75 175.474 130.602 175.101C130.602 170.583 128.919 169.129 128.635 168.748C127.543 167.226 125.946 165.749 124.52 164.912C121.128 163.193 117.165 162.763 114.931 162.839C114.611 162.856 113.607 162.904 112.192 162.961C111.783 162.97 111.373 162.98 110.872 162.982C109.691 162.969 108.781 162.98 108.236 162.978C101.339 162.832 98.7401 161.895 95.1494 163.416C94.9399 163.511 94.6449 163.648 94.2966 163.836C94.0584 163.221 93.7796 162.648 93.5027 162.118C85.9097 147.675 76.6878 150.945 76.6878 150.998C76.6878 151.052 69.7 151.052 67.9124 158.048C67.7342 158.743 66.4812 163.654 68.4843 167.703C71.1715 173.001 79.1857 176.263 88.3037 174.036C88.1914 175.585 88.2999 176.854 88.3467 177.515C88.8442 182.646 91.6927 185.881 92.5257 187.247C93.6363 189.068 95.0083 190.9 96.6418 192.744C98.6789 191.543 100.239 190.14 101.321 188.538C101.555 188.185 101.795 187.824 102.039 187.458Z" fill="#482D1F"/>
<path d="M192.357 280.599C187.244 275.611 176.809 271.7 159.565 281.555C156.935 283.009 157.894 287.579 160.81 287.571L190.853 287.369C193.111 287.384 194.061 282.278 192.357 280.599Z" fill="#474961"/>
<path d="M252.422 375.627H246.03C242.734 376.644 240.655 378.802 239.794 382.099C238.932 385.396 241.011 388.559 246.03 391.588L246.082 391.577L246.077 391.588H325.035C330.054 388.559 332.133 385.396 331.272 382.099C330.41 378.802 328.331 376.644 325.035 375.627H252.422Z" fill="#3ABF7C"/>
<path d="M220.735 178.956H364.364C370.003 178.956 374.609 174.785 374.609 169.679V84.0171C374.609 78.9106 370.003 74.7402 364.364 74.7402H220.735C215.095 74.7402 210.489 78.9106 210.489 84.0171V169.636C210.489 174.785 215.095 178.956 220.735 178.956Z" fill="#F2F6FB"/>
<path d="M374.559 74.1763C374.559 68.9897 370.35 64.7852 365.158 64.7852H219.933C214.741 64.7852 210.533 68.9922 210.533 74.1763V84.971H374.559V74.1763Z" fill="#E1E5F0"/>
<path d="M349.29 122.993H331.195C329.703 122.993 328.493 124.201 328.493 125.692C328.493 127.183 329.703 128.391 331.195 128.391H349.29C350.782 128.391 351.992 127.183 351.992 125.692C351.992 124.201 350.782 122.993 349.29 122.993ZM349.29 153.037H331.195C329.703 153.037 328.493 154.245 328.493 155.736C328.493 157.227 329.703 158.435 331.195 158.435H349.29C350.782 158.435 351.992 157.227 351.992 155.736C351.992 154.245 350.782 153.037 349.29 153.037ZM321.56 122.993H303.466C301.973 122.993 300.763 124.201 300.763 125.692C300.763 127.183 301.973 128.391 303.466 128.391H321.56C323.053 128.391 324.263 127.183 324.263 125.692C324.263 124.201 323.053 122.993 321.56 122.993ZM321.56 153.037H303.466C301.973 153.037 300.763 154.245 300.763 155.736C300.763 157.227 301.973 158.435 303.466 158.435H321.56C323.053 158.435 324.263 157.227 324.263 155.736C324.263 154.245 323.053 153.037 321.56 153.037ZM293.831 122.993H275.737C274.244 122.993 273.034 124.201 273.034 125.692C273.034 127.183 274.244 128.391 275.737 128.391H293.831C295.324 128.391 296.534 127.183 296.534 125.692C296.534 124.201 295.324 122.993 293.831 122.993ZM293.831 153.037H275.737C274.244 153.037 273.034 154.245 273.034 155.736C273.034 157.227 274.244 158.435 275.737 158.435H293.831C295.324 158.435 296.534 157.227 296.534 155.736C296.534 154.245 295.324 153.037 293.831 153.037ZM349.29 107.971H315.686C314.193 107.971 312.983 109.179 312.983 110.67C312.983 112.161 314.193 113.369 315.686 113.369H349.29C350.782 113.369 351.992 112.161 351.992 110.67C351.992 109.179 350.782 107.971 349.29 107.971ZM273.152 107.971H235.317C233.825 107.971 232.615 109.179 232.615 110.67C232.615 112.161 233.825 113.369 235.317 113.369H273.152C274.644 113.369 275.854 112.161 275.854 110.67C275.854 109.179 274.644 107.971 273.152 107.971ZM273.152 138.015H235.317C233.825 138.015 232.615 139.223 232.615 140.714C232.615 142.205 233.825 143.413 235.317 143.413H273.152C274.644 143.413 275.854 142.205 275.854 140.714C275.854 139.223 274.644 138.015 273.152 138.015ZM306.051 138.015H299.236C297.743 138.015 296.534 139.223 296.534 140.714C296.534 142.205 297.743 143.413 299.236 143.413H306.051C307.543 143.413 308.753 142.205 308.753 140.714C308.753 139.223 307.543 138.015 306.051 138.015ZM289.601 107.971H282.786C281.294 107.971 280.084 109.179 280.084 110.67C280.084 112.161 281.294 113.369 282.786 113.369H289.601C291.094 113.369 292.304 112.161 292.304 110.67C292.304 109.179 291.094 107.971 289.601 107.971ZM266.102 122.993H235.317C233.825 122.993 232.615 124.201 232.615 125.692C232.615 127.183 233.825 128.391 235.317 128.391H266.102C267.594 128.391 268.804 127.183 268.804 125.692C268.804 124.201 267.594 122.993 266.102 122.993Z" fill="#E1E5F0"/>
<path d="M349.29 138.014H315.686C314.193 138.014 312.983 139.222 312.983 140.713C312.983 142.204 314.193 143.412 315.686 143.412H349.29C350.782 143.412 351.992 142.204 351.992 140.713C351.992 139.222 350.782 138.014 349.29 138.014ZM289.601 138.014H282.786C281.294 138.014 280.084 139.222 280.084 140.713C280.084 142.204 281.294 143.412 282.786 143.412H289.601C291.094 143.412 292.304 142.204 292.304 140.713C292.304 139.222 291.094 138.014 289.601 138.014Z" fill="#00BE7B"/>
<path d="M306.051 107.971H299.237C297.744 107.971 296.534 109.179 296.534 110.67C296.534 112.161 297.744 113.369 299.237 113.369H306.051C307.544 113.369 308.754 112.161 308.754 110.67C308.754 109.179 307.544 107.971 306.051 107.971ZM266.102 153.037H235.318C233.826 153.037 232.616 154.245 232.616 155.736C232.616 157.227 233.826 158.435 235.318 158.435H266.102C267.595 158.435 268.805 157.227 268.805 155.736C268.805 154.245 267.595 153.037 266.102 153.037Z" fill="#FF5645"/>
<path d="M350.594 50.2344H409.342C414.534 50.2344 418.742 54.4379 418.742 59.6232V89.1978C418.742 94.3831 414.534 98.5866 409.342 98.5866H350.594C345.402 98.5866 341.194 94.3831 341.194 89.1978V59.6232C341.194 54.4379 345.402 50.2344 350.594 50.2344Z" fill="#59DCBE"/>
<path d="M393.667 63.377L409.336 75.9697L392.886 84.9712" stroke="white" stroke-width="4.35294" stroke-linecap="round" stroke-linejoin="round"/>
<path d="M367.73 84.9712L352.004 74.1974L368.453 63.377" stroke="white" stroke-width="4.35294" stroke-linecap="round" stroke-linejoin="round"/>
<path d="M384.438 90.3208L377.278 58.8633" stroke="white" stroke-width="4.35294" stroke-linecap="round" stroke-linejoin="round"/>
<path d="M333.44 390.584C333.362 390.578 333.284 390.575 333.205 390.575H239.677C237.86 390.575 236.387 392.047 236.387 393.862C236.387 395.676 237.86 397.148 239.677 397.148H333.205C333.284 397.148 333.362 397.145 333.44 397.139V453.715C333.44 455.53 334.913 457.001 336.73 457.001C338.547 457.001 340.02 455.53 340.02 453.715L340.02 290.82C340.02 289.238 338.901 287.918 337.412 287.604C336.99 287.408 336.52 287.299 336.025 287.299H56.3813C54.5643 287.299 53.0914 288.77 53.0914 290.585C53.0914 292.4 54.5643 293.871 56.3813 293.871H333.44V390.584Z" fill="#D8DEED"/>
<path d="M268.499 280.265L263.979 262.05H297.908C301.433 262.05 304.347 259.374 304.347 256.135V204.544C304.394 201.258 301.527 198.582 297.955 198.582H194.698C191.173 198.582 188.259 201.258 188.259 204.497V256.135C188.259 259.374 191.173 262.05 194.698 262.05H236.046L237.911 280.265H225.67C223.79 280.265 222.333 281.768 222.333 283.598C222.333 285.476 223.837 286.932 225.67 286.932H278.074C279.954 286.932 281.41 285.429 281.41 283.598C281.504 281.768 279.954 280.265 278.074 280.265H268.499Z" fill="#474961"/>
<path fill-rule="evenodd" clip-rule="evenodd" d="M234.652 248.775L234.513 280.314H237.883L234.652 248.775Z" fill="white"/>
</svg>
