<svg width="94" height="36" viewBox="0 0 94 36" fill="none" xmlns="http://www.w3.org/2000/svg">
<path d="M0.93 24.8C0.93 23.26 1.17 21.86 1.65 20.6C2.15 19.32 2.85 18.21 3.75 17.27C4.65 16.33 5.73 15.6 6.99 15.08C8.25 14.56 9.64 14.28 11.16 14.24C12.7 14.2 14.34 14.44 16.08 14.96C16.08 15.8 16.08 16.65 16.08 17.51C16.08 18.35 16.08 19.19 16.08 20.03C14.9 19.47 13.73 19.15 12.57 19.07C11.41 18.99 10.36 19.15 9.42 19.55C8.48 19.95 7.73 20.59 7.17 21.47C6.61 22.33 6.33 23.44 6.33 24.8C6.33 26.16 6.61 27.28 7.17 28.16C7.73 29.02 8.48 29.65 9.42 30.05C10.36 30.45 11.41 30.61 12.57 30.53C13.73 30.45 14.9 30.13 16.08 29.57C16.08 30.41 16.08 31.26 16.08 32.12C16.08 32.96 16.08 33.8 16.08 34.64C14.34 35.16 12.7 35.4 11.16 35.36C9.64 35.32 8.25 35.04 6.99 34.52C5.73 34 4.65 33.27 3.75 32.33C2.85 31.39 2.15 30.29 1.65 29.03C1.17 27.75 0.93 26.34 0.93 24.8ZM26.2852 35.48C25.1252 35.48 24.0452 35.28 23.0452 34.88C22.0452 34.46 21.1752 33.88 20.4352 33.14C19.6952 32.38 19.1152 31.5 18.6952 30.5C18.2952 29.5 18.0952 28.41 18.0952 27.23C18.0952 26.05 18.2952 24.96 18.6952 23.96C19.1152 22.96 19.6952 22.09 20.4352 21.35C21.1752 20.61 22.0452 20.04 23.0452 19.64C24.0452 19.22 25.1252 19.01 26.2852 19.01C27.4652 19.01 28.5452 19.22 29.5252 19.64C30.5252 20.04 31.3952 20.61 32.1352 21.35C32.8752 22.09 33.4452 22.96 33.8452 23.96C34.2652 24.96 34.4752 26.05 34.4752 27.23C34.4752 28.41 34.2652 29.5 33.8452 30.5C33.4452 31.5 32.8752 32.38 32.1352 33.14C31.3952 33.88 30.5252 34.46 29.5252 34.88C28.5452 35.28 27.4652 35.48 26.2852 35.48ZM26.2852 31.01C27.2652 31.01 28.0452 30.66 28.6252 29.96C29.2252 29.24 29.5252 28.33 29.5252 27.23C29.5252 26.11 29.2252 25.21 28.6252 24.53C28.0452 23.83 27.2652 23.48 26.2852 23.48C25.3052 23.48 24.5152 23.83 23.9152 24.53C23.3352 25.21 23.0452 26.11 23.0452 27.23C23.0452 28.33 23.3352 29.24 23.9152 29.96C24.5152 30.66 25.3052 31.01 26.2852 31.01ZM49.5211 35C49.5211 32.44 49.5211 29.86 49.5211 27.26C49.5211 24.64 49.5211 22.05 49.5211 19.49C50.3411 19.49 51.1711 19.49 52.0111 19.49C52.8511 19.49 53.6711 19.49 54.4711 19.49C54.4711 19.63 54.4711 19.77 54.4711 19.91C54.4711 20.05 54.4711 20.19 54.4711 20.33C55.0911 19.89 55.7911 19.56 56.5711 19.34C57.3511 19.12 58.2011 19.06 59.1211 19.16C59.1211 19.96 59.1211 20.77 59.1211 21.59C59.1211 22.41 59.1211 23.22 59.1211 24.02C57.5411 23.8 56.3711 23.94 55.6111 24.44C54.8511 24.92 54.4711 25.71 54.4711 26.81C54.4711 28.15 54.4711 29.51 54.4711 30.89C54.4711 32.27 54.4711 33.64 54.4711 35C53.6711 35 52.8511 35 52.0111 35C51.1711 35 50.3411 35 49.5211 35ZM74.5605 34.28C73.1805 34.86 71.8105 35.22 70.4505 35.36C69.0905 35.5 67.8005 35.42 66.5805 35.12C65.3805 34.84 64.3105 34.35 63.3705 33.65C62.4305 32.95 61.6905 32.06 61.1505 30.98C60.6305 29.9 60.3705 28.65 60.3705 27.23C60.3705 26.05 60.5605 24.97 60.9405 23.99C61.3405 22.99 61.9005 22.12 62.6205 21.38C63.3405 20.62 64.1905 20.04 65.1705 19.64C66.1505 19.22 67.2205 19.01 68.3805 19.01C69.4205 19.01 70.3605 19.18 71.2005 19.52C72.0405 19.86 72.7705 20.34 73.3905 20.96C74.0105 21.56 74.5105 22.28 74.8905 23.12C75.2705 23.96 75.5105 24.88 75.6105 25.88C75.7105 26.88 75.6505 27.94 75.4305 29.06C73.7905 29.06 72.1405 29.06 70.4805 29.06C68.8205 29.06 67.1705 29.06 65.5305 29.06C65.9105 29.82 66.5405 30.36 67.4205 30.68C68.3205 31 69.3805 31.1 70.6005 30.98C71.8405 30.86 73.1605 30.54 74.5605 30.02C74.5605 30.72 74.5605 31.43 74.5605 32.15C74.5605 32.87 74.5605 33.58 74.5605 34.28ZM68.2605 23.45C67.6805 23.45 67.1405 23.61 66.6405 23.93C66.1605 24.25 65.7905 24.74 65.5305 25.4C66.4305 25.4 67.3305 25.4 68.2305 25.4C69.1505 25.4 70.0605 25.4 70.9605 25.4C70.7205 24.72 70.3605 24.23 69.8805 23.93C69.4205 23.61 68.8805 23.45 68.2605 23.45ZM91.582 34.28C90.202 34.86 88.832 35.22 87.472 35.36C86.112 35.5 84.822 35.42 83.602 35.12C82.402 34.84 81.332 34.35 80.392 33.65C79.452 32.95 78.712 32.06 78.172 30.98C77.652 29.9 77.392 28.65 77.392 27.23C77.392 26.05 77.582 24.97 77.962 23.99C78.362 22.99 78.922 22.12 79.642 21.38C80.362 20.62 81.212 20.04 82.192 19.64C83.172 19.22 84.242 19.01 85.402 19.01C86.442 19.01 87.382 19.18 88.222 19.52C89.062 19.86 89.792 20.34 90.412 20.96C91.032 21.56 91.532 22.28 91.912 23.12C92.292 23.96 92.532 24.88 92.632 25.88C92.732 26.88 92.672 27.94 92.452 29.06C90.812 29.06 89.162 29.06 87.502 29.06C85.842 29.06 84.192 29.06 82.552 29.06C82.932 29.82 83.562 30.36 84.442 30.68C85.342 31 86.402 31.1 87.622 30.98C88.862 30.86 90.182 30.54 91.582 30.02C91.582 30.72 91.582 31.43 91.582 32.15C91.582 32.87 91.582 33.58 91.582 34.28ZM85.282 23.45C84.702 23.45 84.162 23.61 83.662 23.93C83.182 24.25 82.812 24.74 82.552 25.4C83.452 25.4 84.352 25.4 85.252 25.4C86.172 25.4 87.082 25.4 87.982 25.4C87.742 24.72 87.382 24.23 86.902 23.93C86.442 23.61 85.902 23.45 85.282 23.45Z" fill="#A4A4A5"/>
<rect x="40" y="9" width="4" height="27" fill="url(#paint0_linear_392_10613)"/>
<rect x="40" y="9" width="4" height="27" fill="url(#paint1_linear_392_10613)"/>
<rect x="40" y="9" width="4" height="27" fill="url(#paint2_linear_392_10613)"/>
<rect x="40" y="9" width="4" height="27" fill="url(#paint3_radial_392_10613)"/>
<rect x="40" y="9" width="4" height="27" fill="url(#paint4_radial_392_10613)"/>
<rect x="40" y="9" width="4" height="27" fill="url(#paint5_radial_392_10613)"/>
<path d="M44 12.3529C44 6.63517 47.7877 2.37162 52.9801 2H60.5356C60.7921 2 61 2.2897 61 2.64706C60.5356 8.78829 58.0837 12.5045 52.2866 13H44.4644C44.2079 13 44 12.7103 44 12.3529Z" fill="url(#paint6_linear_392_10613)"/>
<path d="M44 12.3529C44 6.63517 47.7877 2.37162 52.9801 2H60.5356C60.7921 2 61 2.2897 61 2.64706C60.5356 8.78829 58.0837 12.5045 52.2866 13H44.4644C44.2079 13 44 12.7103 44 12.3529Z" fill="url(#paint7_linear_392_10613)"/>
<path d="M44 12.3529C44 6.63517 47.7877 2.37162 52.9801 2H60.5356C60.7921 2 61 2.2897 61 2.64706C60.5356 8.78829 58.0837 12.5045 52.2866 13H44.4644C44.2079 13 44 12.7103 44 12.3529Z" fill="url(#paint8_linear_392_10613)"/>
<path d="M44 12.3529C44 6.63517 47.7877 2.37162 52.9801 2H60.5356C60.7921 2 61 2.2897 61 2.64706C60.5356 8.78829 58.0837 12.5045 52.2866 13H44.4644C44.2079 13 44 12.7103 44 12.3529Z" fill="url(#paint9_linear_392_10613)"/>
<path d="M44 12.3529C44 6.63517 47.7877 2.37162 52.9801 2H60.5356C60.7921 2 61 2.2897 61 2.64706C60.5356 8.78829 58.0837 12.5045 52.2866 13H44.4644C44.2079 13 44 12.7103 44 12.3529Z" fill="url(#paint10_radial_392_10613)"/>
<path d="M44 12.3529C44 6.63517 47.7877 2.37162 52.9801 2H60.5356C60.7921 2 61 2.2897 61 2.64706C60.5356 8.78829 58.0837 12.5045 52.2866 13H44.4644C44.2079 13 44 12.7103 44 12.3529Z" fill="url(#paint11_radial_392_10613)"/>
<path d="M44 12.3529C44 6.63517 47.7877 2.37162 52.9801 2H60.5356C60.7921 2 61 2.2897 61 2.64706C60.5356 8.78829 58.0837 12.5045 52.2866 13H44.4644C44.2079 13 44 12.7103 44 12.3529Z" fill="url(#paint12_linear_392_10613)"/>
<path d="M42 12.2353C42 5.47793 37.3211 0.439189 30.9069 0H21.5737C21.2569 0 21 0.342371 21 0.764706C21.5737 8.02252 24.6025 12.4144 31.7636 13H41.4263C41.7431 13 42 12.6576 42 12.2353Z" fill="url(#paint13_linear_392_10613)"/>
<path d="M42 12.2353C42 5.47793 37.3211 0.439189 30.9069 0H21.5737C21.2569 0 21 0.342371 21 0.764706C21.5737 8.02252 24.6025 12.4144 31.7636 13H41.4263C41.7431 13 42 12.6576 42 12.2353Z" fill="url(#paint14_radial_392_10613)"/>
<path d="M42 12.2353C42 5.47793 37.3211 0.439189 30.9069 0H21.5737C21.2569 0 21 0.342371 21 0.764706C21.5737 8.02252 24.6025 12.4144 31.7636 13H41.4263C41.7431 13 42 12.6576 42 12.2353Z" fill="url(#paint15_radial_392_10613)"/>
<path d="M42 12.2353C42 5.47793 37.3211 0.439189 30.9069 0H21.5737C21.2569 0 21 0.342371 21 0.764706C21.5737 8.02252 24.6025 12.4144 31.7636 13H41.4263C41.7431 13 42 12.6576 42 12.2353Z" fill="url(#paint16_radial_392_10613)"/>
<path d="M42 12.2353C42 5.47793 37.3211 0.439189 30.9069 0H21.5737C21.2569 0 21 0.342371 21 0.764706C21.5737 8.02252 24.6025 12.4144 31.7636 13H41.4263C41.7431 13 42 12.6576 42 12.2353Z" fill="url(#paint17_radial_392_10613)" fill-opacity="0.6"/>
<path d="M42 12.2353C42 5.47793 37.3211 0.439189 30.9069 0H21.5737C21.2569 0 21 0.342371 21 0.764706C21.5737 8.02252 24.6025 12.4144 31.7636 13H41.4263C41.7431 13 42 12.6576 42 12.2353Z" fill="url(#paint18_radial_392_10613)" fill-opacity="0.4"/>
<path d="M42 12.2353C42 5.47793 37.3211 0.439189 30.9069 0H21.5737C21.2569 0 21 0.342371 21 0.764706C21.5737 8.02252 24.6025 12.4144 31.7636 13H41.4263C41.7431 13 42 12.6576 42 12.2353Z" fill="url(#paint19_radial_392_10613)" fill-opacity="0.6"/>
<path d="M42 12.2353C42 5.47793 37.3211 0.439189 30.9069 0H21.5737C21.2569 0 21 0.342371 21 0.764706C21.5737 8.02252 24.6025 12.4144 31.7636 13H41.4263C41.7431 13 42 12.6576 42 12.2353Z" fill="url(#paint20_radial_392_10613)" fill-opacity="0.6"/>
<path d="M42 12.2353C42 5.47793 37.3211 0.439189 30.9069 0H21.5737C21.2569 0 21 0.342371 21 0.764706C21.5737 8.02252 24.6025 12.4144 31.7636 13H41.4263C41.7431 13 42 12.6576 42 12.2353Z" fill="url(#paint21_linear_392_10613)" fill-opacity="0.7"/>
<defs>
<linearGradient id="paint0_linear_392_10613" x1="40" y1="20.3282" x2="42.8724" y2="20.3282" gradientUnits="userSpaceOnUse">
<stop stop-color="#81BC52"/>
<stop offset="0.963197" stop-color="#C0F65F"/>
</linearGradient>
<linearGradient id="paint1_linear_392_10613" x1="40.8919" y1="9" x2="41.6468" y2="12.8497" gradientUnits="userSpaceOnUse">
<stop stop-color="#81BC52"/>
<stop offset="1" stop-color="#81BC52" stop-opacity="0"/>
</linearGradient>
<linearGradient id="paint2_linear_392_10613" x1="45.1165" y1="18.7208" x2="43.13" y2="18.8573" gradientUnits="userSpaceOnUse">
<stop stop-color="#81BC52"/>
<stop offset="1" stop-color="#81BC52" stop-opacity="0"/>
</linearGradient>
<radialGradient id="paint3_radial_392_10613" cx="0" cy="0" r="1" gradientUnits="userSpaceOnUse" gradientTransform="translate(41.6179 16.8487) rotate(90) scale(8.3093 3.87182)">
<stop stop-color="#81BC52"/>
<stop offset="1" stop-color="#81BC52" stop-opacity="0"/>
</radialGradient>
<radialGradient id="paint4_radial_392_10613" cx="0" cy="0" r="1" gradientUnits="userSpaceOnUse" gradientTransform="translate(43.4703 19.3956) rotate(99.3998) scale(1.16049 2.34313)">
<stop stop-color="#81BC52"/>
<stop offset="1" stop-color="#81BC52" stop-opacity="0"/>
</radialGradient>
<radialGradient id="paint5_radial_392_10613" cx="0" cy="0" r="1" gradientUnits="userSpaceOnUse" gradientTransform="translate(42.3543 14.0554) rotate(29.6333) scale(0.820952 5.03274)">
<stop stop-color="#5EB816"/>
<stop offset="0.818975" stop-color="#5EB816" stop-opacity="0"/>
</radialGradient>
<linearGradient id="paint6_linear_392_10613" x1="45.698" y1="14.7758" x2="62.6825" y2="6.22471" gradientUnits="userSpaceOnUse">
<stop stop-color="#81BC52"/>
<stop offset="1" stop-color="#ABEE48"/>
</linearGradient>
<linearGradient id="paint7_linear_392_10613" x1="51.9845" y1="13.295" x2="51.9845" y2="11.2895" gradientUnits="userSpaceOnUse">
<stop stop-color="#81BC52"/>
<stop offset="1" stop-color="#81BC52" stop-opacity="0"/>
</linearGradient>
<linearGradient id="paint8_linear_392_10613" x1="56.0782" y1="13" x2="54.7709" y2="11.0461" gradientUnits="userSpaceOnUse">
<stop stop-color="#81BC52"/>
<stop offset="1" stop-color="#81BC52" stop-opacity="0"/>
</linearGradient>
<linearGradient id="paint9_linear_392_10613" x1="60.0503" y1="9.37596" x2="58.0293" y2="8.61654" gradientUnits="userSpaceOnUse">
<stop stop-color="#81BC52"/>
<stop offset="1" stop-color="#81BC52" stop-opacity="0"/>
</linearGradient>
<radialGradient id="paint10_radial_392_10613" cx="0" cy="0" r="1" gradientUnits="userSpaceOnUse" gradientTransform="translate(58.5443 5.19447) rotate(151.008) scale(14.5197 6.47037)">
<stop stop-color="#C2FD65" stop-opacity="0.64"/>
<stop offset="1" stop-color="#C2FD65" stop-opacity="0"/>
</radialGradient>
<radialGradient id="paint11_radial_392_10613" cx="0" cy="0" r="1" gradientUnits="userSpaceOnUse" gradientTransform="translate(61.3286 2) rotate(134.134) scale(6.79895 1.72085)">
<stop stop-color="#E1FFB1"/>
<stop offset="1" stop-color="#CBFF78" stop-opacity="0"/>
</radialGradient>
<linearGradient id="paint12_linear_392_10613" x1="55.2859" y1="0.568337" x2="55.2859" y2="3.14781" gradientUnits="userSpaceOnUse">
<stop stop-color="#96D240"/>
<stop offset="1" stop-color="#ADEF4F" stop-opacity="0"/>
</linearGradient>
<linearGradient id="paint13_linear_392_10613" x1="37.588" y1="-2.58922" x2="27.5661" y2="8.86809" gradientUnits="userSpaceOnUse">
<stop stop-color="#BEF85C"/>
<stop offset="1" stop-color="#90CD2F"/>
</linearGradient>
<radialGradient id="paint14_radial_392_10613" cx="0" cy="0" r="1" gradientUnits="userSpaceOnUse" gradientTransform="translate(38.9965 1.27605) rotate(-169.016) scale(11.9278 13.0808)">
<stop stop-color="#B6EB53"/>
<stop offset="1" stop-color="#B6EB53" stop-opacity="0"/>
</radialGradient>
<radialGradient id="paint15_radial_392_10613" cx="0" cy="0" r="1" gradientUnits="userSpaceOnUse" gradientTransform="translate(36.9339 4.07626) rotate(-152.262) scale(10.8993 10.9954)">
<stop stop-color="#B8F053"/>
<stop offset="1" stop-color="#B8F053" stop-opacity="0"/>
</radialGradient>
<radialGradient id="paint16_radial_392_10613" cx="0" cy="0" r="1" gradientUnits="userSpaceOnUse" gradientTransform="translate(21.8214 25.29) rotate(-48.0788) scale(26.6198 20.8401)">
<stop stop-color="#D1FF77" stop-opacity="0"/>
<stop offset="0.837938" stop-color="#D1FF77" stop-opacity="0"/>
<stop offset="0.895132" stop-color="#D1FF77" stop-opacity="0.0569351"/>
<stop offset="0.925992" stop-color="#D1FF77" stop-opacity="0.15"/>
<stop offset="0.955339" stop-color="#D1FF77" stop-opacity="0.36"/>
<stop offset="1" stop-color="#D1FF77" stop-opacity="0"/>
</radialGradient>
<radialGradient id="paint17_radial_392_10613" cx="0" cy="0" r="1" gradientUnits="userSpaceOnUse" gradientTransform="translate(32.2952 0.69389) rotate(137.203) scale(11.5823 16.7526)">
<stop stop-color="#81BC52" stop-opacity="0"/>
<stop offset="0.894411" stop-color="#81BC52" stop-opacity="0"/>
<stop offset="0.955727" stop-color="#81BC52" stop-opacity="0.332789"/>
<stop offset="1" stop-color="#81BC52"/>
</radialGradient>
<radialGradient id="paint18_radial_392_10613" cx="0" cy="0" r="1" gradientUnits="userSpaceOnUse" gradientTransform="translate(32.5943 -7.91886) rotate(97.7214) scale(20.5937 25.5249)">
<stop stop-color="#81BC52" stop-opacity="0"/>
<stop offset="0.953954" stop-color="#81BC52" stop-opacity="0"/>
<stop offset="0.987099" stop-color="#81BC52" stop-opacity="0.77"/>
<stop offset="1" stop-color="#81BC52"/>
</radialGradient>
<radialGradient id="paint19_radial_392_10613" cx="0" cy="0" r="1" gradientUnits="userSpaceOnUse" gradientTransform="translate(32.5943 -7.91887) rotate(110.695) scale(20.0865 26.9334)">
<stop stop-color="#81BC52" stop-opacity="0"/>
<stop offset="0.881174" stop-color="#81BC52" stop-opacity="0"/>
<stop offset="0.924412" stop-color="#81BC52" stop-opacity="0.325906"/>
<stop offset="0.981742" stop-color="#81BC52" stop-opacity="0.77"/>
<stop offset="1" stop-color="#81BC52"/>
</radialGradient>
<radialGradient id="paint20_radial_392_10613" cx="0" cy="0" r="1" gradientUnits="userSpaceOnUse" gradientTransform="translate(29.9734 13.5333) rotate(-85.1965) scale(13.8642 18.4794)">
<stop stop-color="#81BC52" stop-opacity="0"/>
<stop offset="0.907432" stop-color="#81BC52" stop-opacity="0.0384281"/>
<stop offset="0.956328" stop-color="#81BC52" stop-opacity="0.332789"/>
<stop offset="1" stop-color="#81BC52" stop-opacity="0.78"/>
</radialGradient>
<linearGradient id="paint21_linear_392_10613" x1="34.2897" y1="6.5" x2="34.2897" y2="13.0349" gradientUnits="userSpaceOnUse">
<stop offset="0.638716" stop-color="#81A957" stop-opacity="0"/>
<stop offset="0.69368" stop-color="#81BC52" stop-opacity="0.04"/>
<stop offset="0.779851" stop-color="#81BC52" stop-opacity="0.21"/>
<stop offset="0.893696" stop-color="#81BC52" stop-opacity="0.58"/>
<stop offset="0.969711" stop-color="#81BC52"/>
</linearGradient>
</defs>
</svg>
