<svg width="454" height="345" viewBox="0 0 454 345" fill="none" xmlns="http://www.w3.org/2000/svg">
<g clip-path="url(#clip0_110_6053)">
<path d="M181.669 71.5451H180.013V26.2282C180.013 22.7839 179.333 19.3733 178.014 16.1911C176.694 13.009 174.76 10.1176 172.321 7.68207C169.883 5.24656 166.988 3.3146 163.802 1.99651C160.616 0.678419 157.201 2.91831e-06 153.753 0H57.627C50.6625 -1.32608e-05 43.9832 2.76329 39.0585 7.68201C34.1339 12.6007 31.3672 19.272 31.3672 26.2281V274.84C31.3672 278.284 32.0464 281.695 33.3661 284.877C34.6858 288.059 36.62 290.951 39.0585 293.386C41.4969 295.822 44.3918 297.754 47.5778 299.072C50.7638 300.39 54.1785 301.068 57.627 301.068H153.753C160.717 301.068 167.397 298.305 172.321 293.386C177.246 288.467 180.013 281.796 180.013 274.84V103.802H181.669V71.5451Z" fill="#3F3D56"/>
<path d="M154.813 6.82422H142.265C142.842 8.23721 143.062 9.77025 142.906 11.2883C142.75 12.8063 142.223 14.2628 141.371 15.5294C140.519 16.7959 139.368 17.8337 138.019 18.5513C136.671 19.2689 135.167 19.6443 133.639 19.6444H78.5695C77.0417 19.6443 75.5373 19.2689 74.1889 18.5513C72.8405 17.8337 71.6895 16.7959 70.8373 15.5294C69.9851 14.2628 69.4578 12.8063 69.3019 11.2883C69.146 9.77026 69.3663 8.23721 69.9433 6.82422H58.2238C55.6485 6.82422 53.0985 7.33085 50.7192 8.31518C48.3399 9.29951 46.1781 10.7423 44.3571 12.5611C42.5361 14.3799 41.0916 16.5391 40.1061 18.9155C39.1205 21.2919 38.6133 23.8389 38.6133 26.4111V274.658C38.6133 277.23 39.1205 279.777 40.1061 282.154C41.0916 284.53 42.5361 286.689 44.3571 288.508C46.1781 290.327 48.3399 291.77 50.7192 292.754C53.0984 293.739 55.6485 294.245 58.2238 294.245H154.813C157.388 294.245 159.938 293.739 162.317 292.754C164.696 291.77 166.858 290.327 168.679 288.508C170.5 286.689 171.945 284.53 172.93 282.154C173.916 279.777 174.423 277.23 174.423 274.658V26.4111C174.423 23.8389 173.916 21.2919 172.93 18.9155C171.945 16.5391 170.5 14.3799 168.679 12.5611C166.858 10.7423 164.696 9.29951 162.317 8.31518C159.938 7.33085 157.388 6.82422 154.813 6.82422Z" fill="white"/>
<path d="M212.478 301.111H0.556226C0.408706 301.111 0.267227 301.053 0.162914 300.948C0.0586018 300.844 0 300.703 0 300.556C0 300.408 0.0586018 300.267 0.162914 300.163C0.267227 300.059 0.408706 300 0.556226 300H212.478C212.626 300 212.767 300.059 212.872 300.163C212.976 300.267 213.035 300.408 213.035 300.556C213.035 300.703 212.976 300.844 212.872 300.948C212.767 301.053 212.626 301.111 212.478 301.111Z" fill="#CBCBCB"/>
<path d="M106.518 192.044C132.459 192.044 153.489 171.04 153.489 145.129C153.489 119.219 132.459 98.2148 106.518 98.2148C80.5766 98.2148 59.5469 119.219 59.5469 145.129C59.5469 171.04 80.5766 192.044 106.518 192.044Z" fill="#00BE7B"/>
<path d="M101.861 163.025C100.804 163.026 99.7756 162.685 98.9302 162.052L98.8777 162.012L87.8389 153.578C87.3276 153.187 86.8986 152.698 86.5762 152.141C86.2539 151.584 86.0446 150.969 85.9602 150.331C85.8759 149.693 85.9181 149.045 86.0846 148.424C86.251 147.802 86.5385 147.219 86.9304 146.709C87.3224 146.198 87.8112 145.77 88.3689 145.448C88.9267 145.126 89.5425 144.917 90.1812 144.832C90.8198 144.748 91.4688 144.79 92.0912 144.956C92.7135 145.123 93.297 145.41 93.8082 145.801L100.958 151.278L117.854 129.262C118.246 128.751 118.735 128.323 119.292 128.001C119.85 127.679 120.465 127.47 121.104 127.386C121.742 127.302 122.391 127.344 123.013 127.51C123.635 127.676 124.218 127.963 124.729 128.355L124.731 128.356L124.626 128.501L124.734 128.356C125.765 129.147 126.439 130.315 126.609 131.602C126.779 132.89 126.431 134.192 125.641 135.224L105.767 161.108C105.307 161.704 104.716 162.187 104.04 162.518C103.363 162.85 102.619 163.021 101.865 163.019L101.861 163.025Z" fill="white"/>
<path d="M386.156 305.721C386.727 304.799 387.4 303.942 388.161 303.169C388.475 302.843 388.807 302.537 389.148 302.239C391.225 300.392 393.757 299.132 396.483 298.587C399.209 298.042 402.032 298.232 404.66 299.137C407.288 300.043 409.628 301.631 411.438 303.739C413.248 305.847 414.463 308.399 414.958 311.131C417.252 302.658 411.28 294.312 405.276 287.901C399.269 281.492 392.404 274.461 392.438 265.679C392.455 260.793 394.848 256.433 398.462 253.201C398.573 253.103 398.685 253.006 398.798 252.911C403.166 249.172 408.785 247.216 414.533 247.434C425.212 248.006 434.536 255.174 441.012 263.678C451.435 277.359 456.002 296.565 448.705 312.139C442.287 325.837 428.598 333.972 414.628 340.511C412.677 341.424 410.73 342.31 408.787 343.168C408.775 343.172 408.76 343.181 408.747 343.184C408.654 343.225 408.56 343.266 408.473 343.309C408.072 343.485 407.671 343.662 407.273 343.837L407.457 343.957L408.032 344.328C407.832 344.208 407.635 344.091 407.436 343.971C407.377 343.934 407.314 343.9 407.255 343.863C400.394 339.751 393.437 335.401 388.697 328.981C383.781 322.316 381.804 312.768 386.156 305.721Z" fill="#F1F1F1"/>
<path d="M431.937 290.241C433.457 293.693 434.464 297.348 434.927 301.091C435.292 304.428 435.155 307.801 434.521 311.097C433.158 317.872 430.187 324.221 425.856 329.61C422.589 333.701 418.817 337.363 414.631 340.51C412.68 341.423 410.733 342.309 408.79 343.167C408.777 343.171 408.763 343.18 408.75 343.183C408.657 343.224 408.563 343.265 408.475 343.308C408.074 343.484 407.673 343.661 407.276 343.836L407.46 343.956L408.034 344.327C407.835 344.207 407.638 344.09 407.439 343.97C407.38 343.933 407.317 343.899 407.258 343.862C408.768 338.587 408.99 333.026 407.905 327.648C406.821 322.269 404.461 317.228 401.024 312.947C397.569 308.721 393.162 305.37 388.164 303.168C388.478 302.842 388.809 302.536 389.151 302.238C391.076 303.121 392.919 304.172 394.659 305.379C400.882 309.675 405.555 315.858 407.986 323.012C410.156 329.503 410.427 336.478 408.767 343.117C409.111 342.892 409.457 342.661 409.793 342.432C416.185 338.126 422.077 332.956 426.514 326.615C430.341 321.256 432.79 315.039 433.646 308.512C434.496 301.382 432.71 294.371 429.523 288.009C426.004 281.203 421.569 274.91 416.343 269.304C411.093 263.543 405.157 258.445 398.668 254.125C398.522 254.026 398.419 253.875 398.381 253.703C398.343 253.531 398.373 253.351 398.464 253.2C398.534 253.063 398.655 252.959 398.801 252.91C398.875 252.891 398.953 252.889 399.028 252.905C399.103 252.92 399.173 252.952 399.234 252.998C400.036 253.532 400.83 254.07 401.615 254.625C408.15 259.247 414.085 264.662 419.283 270.745C424.306 276.609 428.878 283.124 431.937 290.241Z" fill="white"/>
<path d="M292.042 21.7822C297.551 21.7822 302.017 17.3215 302.017 11.8188C302.017 6.31622 297.551 1.85547 292.042 1.85547C286.533 1.85547 282.066 6.31622 282.066 11.8188C282.066 17.3215 286.533 21.7822 292.042 21.7822Z" fill="#F1F1F1"/>
<path d="M416.082 155.118C419.441 155.118 422.164 152.398 422.164 149.043C422.164 145.688 419.441 142.969 416.082 142.969C412.723 142.969 410 145.688 410 149.043C410 152.398 412.723 155.118 416.082 155.118Z" fill="#F1F1F1"/>
<path d="M238.09 171.782C241.449 171.782 244.171 169.062 244.171 165.707C244.171 162.352 241.449 159.633 238.09 159.633C234.731 159.633 232.008 162.352 232.008 165.707C232.008 169.062 234.731 171.782 238.09 171.782Z" fill="#F1F1F1"/>
<path d="M241.521 345.002H453.443C453.591 345.002 453.732 344.943 453.836 344.839C453.941 344.735 453.999 344.594 453.999 344.446C453.999 344.299 453.941 344.158 453.836 344.053C453.732 343.949 453.591 343.891 453.443 343.891H241.521C241.374 343.891 241.232 343.949 241.128 344.053C241.023 344.158 240.965 344.299 240.965 344.446C240.965 344.594 241.023 344.735 241.128 344.839C241.232 344.943 241.374 345.002 241.521 345.002Z" fill="#CBCBCB"/>
<path d="M430.058 53.6855C430.336 51.7122 429.88 49.7056 428.776 48.0457C427.672 46.3859 425.997 45.1882 424.068 44.6797C422.139 44.1711 420.09 44.387 418.309 45.2865C416.529 46.1859 415.141 47.7064 414.408 49.5598L397.211 69.2511L402.257 83.3271L419.552 60.3186C420.68 60.6797 421.874 60.7892 423.05 60.6395C424.225 60.4898 425.354 60.0844 426.355 59.452C427.357 58.8196 428.208 57.9755 428.847 56.9792C429.487 55.9829 429.901 54.8586 430.058 53.6855Z" fill="#FFB7B7"/>
<path d="M358.773 130.307L415.858 69.4571L408.158 57.2305L336.559 117.71L358.773 130.307Z" fill="#3F3D56"/>
<path d="M346.032 93.332C357.091 93.332 366.056 84.3777 366.056 73.332C366.056 62.2863 357.091 53.332 346.032 53.332C334.973 53.332 326.008 62.2863 326.008 73.332C326.008 84.3777 334.973 93.332 346.032 93.332Z" fill="#2F2E41"/>
<path d="M347.641 62.0343C351.949 57.6701 357.164 54.3023 362.916 52.1681C366.609 50.8017 370.628 49.9576 374.489 50.7335C378.349 51.5094 382 54.1769 383.077 57.96C383.958 61.0536 383.048 64.3844 381.681 67.2964C380.315 70.2085 378.49 72.9089 377.385 75.9297C376.257 79.0119 375.918 82.3267 376.398 85.5731C376.878 88.8194 378.163 91.8946 380.135 94.5194C382.107 97.1442 384.704 99.2356 387.69 100.604C390.677 101.972 393.958 102.573 397.236 102.353C393.443 102.861 389.947 104.642 386.239 105.589C382.531 106.537 378.155 106.473 375.4 103.82C372.485 101.013 372.427 96.449 372.568 92.4072C372.777 86.3989 372.987 80.3905 373.196 74.3822C373.303 71.3181 373.394 68.1557 372.288 65.2958C371.182 62.4358 368.552 59.9315 365.483 59.9576C363.156 59.9773 361.097 61.3849 359.232 62.7731C357.366 64.1613 355.391 65.6424 353.074 65.8489C350.757 66.0554 348.111 64.3425 348.284 62.0253L347.641 62.0343Z" fill="#2F2E41"/>
<path d="M269.98 207.623C268.057 208.156 266.006 207.967 264.214 207.09C262.422 206.214 261.014 204.711 260.258 202.868C259.501 201.024 259.447 198.967 260.108 197.086C260.768 195.206 262.096 193.632 263.84 192.664L281.138 173.062L295.77 176.22L275.191 196.352C275.697 197.422 275.962 198.59 275.967 199.774C275.972 200.958 275.717 202.128 275.22 203.203C274.723 204.277 273.996 205.23 273.091 205.994C272.186 206.757 271.124 207.313 269.98 207.623Z" fill="#FFB7B7"/>
<path d="M326.891 137.446L283.775 191.501L270.633 185.475L321.311 106.672L326.891 137.446Z" fill="#3F3D56"/>
<path d="M292.491 300.673L282.215 300.512L283.451 335.493H292.489L292.491 300.673Z" fill="#FFB7B7"/>
<path d="M294.792 332.544L276.993 332.543H276.992C273.983 332.543 271.098 333.737 268.971 335.862C266.844 337.986 265.649 340.868 265.648 343.873V344.241L294.792 344.242L294.792 332.544Z" fill="#2F2E41"/>
<path d="M360.526 291.395L349.301 298.592L371.754 325.573L379.36 320.696L360.526 291.395Z" fill="#FFB7B7"/>
<path d="M379.706 316.973L364.727 326.577L364.726 326.578C362.195 328.201 360.413 330.763 359.772 333.699C359.131 336.634 359.684 339.704 361.31 342.233L361.509 342.543L386.033 326.817L379.706 316.973Z" fill="#2F2E41"/>
<path d="M364.525 184.58C364.525 184.58 339.584 101.842 331.568 100.724C323.553 99.6061 310.639 121.954 310.639 121.954C293.895 143.292 276.629 212.41 276.629 212.41C276.629 212.41 305.412 214.209 326.452 225.389C347.492 236.57 372.323 224.823 372.323 224.823L364.525 184.58Z" fill="#3F3D56"/>
<path opacity="0.1" d="M364.525 184.579C364.525 184.579 339.584 101.842 331.568 100.724C323.553 99.6057 313.919 122.18 313.919 122.18C305.575 156.624 276.629 212.409 276.629 212.409C276.629 212.409 305.412 214.208 326.452 225.389C347.492 236.57 372.323 224.823 372.323 224.823L364.525 184.579Z" fill="black"/>
<path d="M344.065 159.822V201.397L348.963 261.622L373.437 307.177L361.757 315.511L328.383 272.177L315.183 229.15L294.453 324.4L278.879 323.289L289.695 191.227L310.221 154.055L344.065 159.822Z" fill="#2F2E41"/>
<path d="M318.917 119.612C311.13 127.389 318.361 135.723 318.361 135.723L309.461 155.723L344.503 165.167L356.749 110.513L348.406 101.624C331.719 101.068 331.71 100.723 331.71 100.723C328.786 103.58 318.917 119.612 318.917 119.612Z" fill="#00BE7B"/>
<path d="M358.158 104.849C356.567 103.675 354.758 102.829 352.837 102.359C350.915 101.889 348.92 101.804 346.965 102.109C345.011 102.415 343.137 103.105 341.451 104.139C339.765 105.173 338.302 106.531 337.146 108.134C328.336 120.385 320.19 140.168 331.414 164.84C349.435 204.457 365.117 224.737 371.493 224.735C371.771 224.738 372.048 224.694 372.312 224.607C376.236 223.277 381.91 216.644 382.938 210.8C383.305 208.708 383.218 205.794 380.713 203.793C373.518 198.045 360.601 180.147 356.572 156.591C354.345 143.574 358.663 131.717 362.678 124.063C364.374 120.896 364.87 117.224 364.075 113.721C363.281 110.219 361.249 107.119 358.352 104.991L358.158 104.849Z" fill="#3F3D56"/>
<path d="M347.062 91.3683C354.206 87.4683 356.831 78.523 352.926 71.3885C349.021 64.254 340.065 61.632 332.922 65.5321C325.779 69.4321 323.154 78.3774 327.058 85.5119C330.963 92.6464 339.919 95.2684 347.062 91.3683Z" fill="#FFB7B7"/>
<path d="M319.262 77.3366H340.546L340.764 74.2845L341.856 77.3366H345.133L345.565 71.2874L347.728 77.3366H354.07V77.0369C354.065 72.8255 352.388 68.788 349.407 65.8101C346.425 62.8322 342.383 61.1571 338.166 61.1523H335.165C330.949 61.1571 326.907 62.8322 323.925 65.8101C320.944 68.788 319.266 72.8255 319.262 77.0369V77.3366Z" fill="#2F2E41"/>
<path d="M350.855 88.3067L359.938 85.3629V63.332H342.781L343.206 63.7556C349.116 69.6506 355.688 90.5651 350.855 88.3067Z" fill="#2F2E41"/>
</g>
<defs>
<clipPath id="clip0_110_6053">
<rect width="454" height="345" fill="white"/>
</clipPath>
</defs>
</svg>
