<svg width="31" height="29" viewBox="0 0 31 29" fill="none" xmlns="http://www.w3.org/2000/svg">
<path fill-rule="evenodd" clip-rule="evenodd" d="M1.29172 0C2.00512 0 2.58344 0.590148 2.58344 1.31813V19.7728H26.59L22.3366 15.4319C21.8321 14.9171 21.8322 14.0825 22.3367 13.5678C22.8411 13.0531 23.659 13.0531 24.1634 13.5679L30.6217 20.1589C31.1261 20.6736 31.1261 21.5081 30.6217 22.0229L24.1634 28.6139C23.659 29.1287 22.8411 29.1287 22.3367 28.614C21.8322 28.0992 21.8321 27.2646 22.3366 26.7499L26.59 22.409H1.29172C0.578323 22.409 0 21.8189 0 21.0909V1.31813C0 0.590148 0.578323 0 1.29172 0Z" fill="#C8CFCA"/>
</svg>
