<svg width="189" height="258" viewBox="0 0 189 258" fill="none" xmlns="http://www.w3.org/2000/svg">
<path d="M99.025 109.069C99.3546 108.96 99.6915 108.88 100.032 108.83L113.645 78.1452L109.489 71.2334L118.072 62.9121L128.862 77.5593L106.887 113.038C107.428 114.38 107.587 115.873 107.345 117.317C107.102 118.762 106.469 120.091 105.529 121.127C104.589 122.163 103.387 122.856 102.083 123.116C100.779 123.375 99.4344 123.188 98.2285 122.58C97.0226 121.971 96.0123 120.969 95.332 119.708C94.6518 118.447 94.3337 116.986 94.4202 115.519C94.5066 114.053 94.9935 112.65 95.8161 111.498C96.6386 110.346 97.7579 109.499 99.025 109.069Z" fill="#A0616A"/>
<path d="M122.26 67.1519C122.074 67.3687 121.862 67.5547 121.628 67.7042L107.7 76.6613C107.366 76.8767 106.994 77.0126 106.61 77.0605C106.225 77.1085 105.836 77.0674 105.466 76.9398C105.097 76.8123 104.755 76.6011 104.463 76.3196C104.171 76.038 103.935 75.6923 103.769 75.3043L96.9952 59.4278C96.707 58.7597 96.645 57.9989 96.8205 57.2842C96.9959 56.5696 97.3971 55.9487 97.9509 55.535L106.585 49.0194C107.124 48.6129 107.774 48.4279 108.423 48.4964C109.072 48.5648 109.679 48.8825 110.139 49.3944L122.207 62.8289C122.72 63.4006 123.013 64.1716 123.023 64.9784C123.033 65.7853 122.759 66.5648 122.26 67.1519Z" fill="#CCCCCC"/>
<path d="M141.813 242.982L134.459 245.201L123.242 214.792L134.096 211.516L141.813 242.982Z" fill="#A0616A"/>
<path d="M128.64 244.457L142.822 240.176L145.252 250.082L122.14 257.058C121.821 255.757 121.736 254.4 121.89 253.062C122.044 251.725 122.434 250.434 123.038 249.264C123.641 248.094 124.447 247.067 125.408 246.243C126.369 245.418 127.468 244.811 128.64 244.457Z" fill="#2F2E41"/>
<path d="M78.9495 249.206L71.329 249.206L67.7031 216.596L78.9507 216.596L78.9495 249.206Z" fill="#A0616A"/>
<path d="M65.8868 246.789H80.5843V257.055H56.6328C56.6328 255.707 56.8722 254.372 57.3372 253.126C57.8023 251.881 58.4839 250.749 59.3432 249.796C60.2025 248.843 61.2227 248.086 62.3454 247.571C63.4682 247.055 64.6715 246.789 65.8868 246.789Z" fill="#2F2E41"/>
<path d="M86.9786 38.1951C95.4107 38.1951 102.246 30.612 102.246 21.2577C102.246 11.9034 95.4107 4.32031 86.9786 4.32031C78.5465 4.32031 71.7109 11.9034 71.7109 21.2577C71.7109 30.612 78.5465 38.1951 86.9786 38.1951Z" fill="#A0616A"/>
<path d="M78.4856 225.956H68.0712C67.3592 225.955 66.6744 225.653 66.1555 225.113C65.6366 224.572 65.3224 223.832 65.2766 223.044C62.1733 168.316 63.9886 129.059 70.9891 99.4995C71.0198 99.3701 71.0576 99.2431 71.1025 99.119L71.6602 97.5721C71.8663 96.995 72.2244 96.5002 72.6877 96.1522C73.151 95.8042 73.6981 95.6191 74.2576 95.6211H95.6737C96.0772 95.6208 96.4761 95.7174 96.8427 95.9045C97.2094 96.0916 97.5352 96.3645 97.7976 96.7047L100.706 100.47C100.763 100.543 100.816 100.618 100.867 100.697C113.984 120.989 125.739 160.661 139.353 213.984C139.554 214.759 139.475 215.59 139.131 216.301C138.788 217.011 138.207 217.545 137.514 217.788L126.322 221.761C125.68 221.986 124.986 221.947 124.367 221.652C123.748 221.357 123.245 220.825 122.95 220.153L93.9061 153.326C93.703 152.859 93.3697 152.477 92.9556 152.236C92.5415 151.995 92.0686 151.909 91.6069 151.99C91.1452 152.071 90.7193 152.315 90.3922 152.685C90.0651 153.056 89.8542 153.533 89.7908 154.047L81.2571 223.273C81.1634 224.016 80.8316 224.696 80.3225 225.188C79.8134 225.681 79.1612 225.954 78.4856 225.956Z" fill="#2F2E41"/>
<path d="M99.5332 100.745C99.5039 100.745 99.4747 100.745 99.4453 100.744L73.4314 99.833C72.7627 99.8122 72.1229 99.5254 71.6289 99.0248C71.1349 98.5242 70.8197 97.8432 70.7407 97.1062C67.443 67.4936 76.487 59.5605 80.5285 57.5247C80.8662 57.3556 81.1588 57.0926 81.378 56.7612C81.5971 56.4297 81.7354 56.0411 81.7793 55.633L82.129 52.5291C82.1886 51.9809 82.3795 51.4605 82.6817 51.0219C89.0183 41.9156 97.6707 38.9996 102.264 38.0723C102.637 37.998 103.019 38.0085 103.388 38.1032C103.757 38.1979 104.105 38.3747 104.41 38.623C104.715 38.8713 104.972 39.1858 105.164 39.5475C105.356 39.9092 105.48 40.3105 105.529 40.727L106.053 45.1838C106.106 45.609 106.259 46.0111 106.496 46.3502C119.711 65.5157 104.989 93.8137 101.903 99.2915C101.651 99.7363 101.302 100.103 100.887 100.357C100.473 100.611 100.007 100.745 99.5332 100.745Z" fill="#CCCCCC"/>
<path d="M117.784 23.164C114.378 17.8438 110.294 13.1003 105.659 9.08209C101.806 5.74338 97.5175 2.89098 92.7858 1.52654C88.0538 0.162102 82.8283 0.394357 78.5113 2.93967C74.1939 5.485 69.7306 10.5422 69.7033 15.9659C69.6948 17.7082 70.0942 20.0655 71.641 19.7641L72.0884 19.8299C75.8196 18.9939 79.5508 18.1578 83.2818 17.3218C84.8711 23.4399 86.4602 29.558 88.0493 35.6761C88.3844 36.9656 88.8336 38.4075 89.9369 38.9574C90.9762 39.4753 92.1775 38.9874 93.229 38.5004C93.402 38.4202 94.8877 34.7203 94.8877 34.7203C94.9249 34.6046 94.9893 34.5021 95.0742 34.4233C95.159 34.3445 95.2613 34.2923 95.3705 34.272C95.4796 34.2517 95.5917 34.2642 95.6951 34.308C95.7984 34.3518 95.8894 34.4255 95.9586 34.5213L96.8412 35.7452C97.0098 35.979 97.2425 36.1456 97.504 36.2197C97.7656 36.2939 98.0417 36.2716 98.2909 36.1563C104.376 33.3384 110.46 30.5205 116.545 27.7027C117.386 27.3132 118.326 26.8047 118.57 25.8306C118.803 24.8974 118.289 23.9538 117.784 23.164Z" fill="#2F2E41"/>
<path d="M187.73 257.679H0.621621C0.456757 257.679 0.298654 257.606 0.182078 257.477C0.0655011 257.347 0 257.172 0 256.989C0 256.806 0.0655011 256.63 0.182078 256.501C0.298654 256.372 0.456757 256.299 0.621621 256.299H187.73C187.895 256.299 188.053 256.372 188.169 256.501C188.286 256.63 188.351 256.806 188.351 256.989C188.351 257.172 188.286 257.347 188.169 257.477C188.053 257.606 187.895 257.679 187.73 257.679Z" fill="#3F3D56"/>
<path d="M86.292 150.213C85.8693 150.211 85.458 150.06 85.1178 149.781L82.2882 147.501C82.0535 147.311 81.7703 147.208 81.4796 147.208C81.1888 147.208 80.9057 147.311 80.6709 147.501L77.8413 149.781C77.5 150.056 77.089 150.205 76.6672 150.205C76.2454 150.205 75.8344 150.057 75.4931 149.782C75.1519 149.506 74.8978 149.119 74.7675 148.674C74.6371 148.229 74.637 147.749 74.7673 147.304L75.8482 143.614C75.9385 143.308 75.9388 142.977 75.849 142.67C75.7591 142.364 75.5838 142.097 75.3483 141.908L72.5186 139.627C72.1774 139.352 71.9234 138.964 71.7931 138.519C71.6627 138.074 71.6627 137.594 71.7931 137.149C71.9234 136.704 72.1775 136.316 72.5187 136.041C72.86 135.766 73.271 135.618 73.6928 135.618H77.1904C77.481 135.619 77.7644 135.517 77.9996 135.327C78.2347 135.138 78.4096 134.87 78.499 134.563L79.5797 130.873C79.71 130.428 79.964 130.04 80.3053 129.765C80.6466 129.49 81.0576 129.342 81.4795 129.342C81.9013 129.342 82.3124 129.49 82.6536 129.765C82.9949 130.04 83.2489 130.428 83.3792 130.873L84.4601 134.563C84.5494 134.87 84.7243 135.138 84.9594 135.327C85.1946 135.517 85.4779 135.619 85.7686 135.618H89.2661C89.688 135.618 90.099 135.766 90.4402 136.041C90.7815 136.316 91.0355 136.704 91.1658 137.149C91.2962 137.594 91.2962 138.074 91.1659 138.519C91.0356 138.964 90.7816 139.352 90.4403 139.627L87.6107 141.907C87.3752 142.096 87.1999 142.364 87.1101 142.67C87.0203 142.977 87.0206 143.307 87.1109 143.614L88.1918 147.304C88.3269 147.749 88.3292 148.23 88.1985 148.676C88.0678 149.122 87.8109 149.51 87.466 149.781C87.1259 150.06 86.7147 150.211 86.292 150.213Z" fill="#FFCC00"/>
<path d="M97.1048 142.835C97.9041 142.214 98.5708 141.405 99.0578 140.466C99.5449 139.528 99.8405 138.482 99.9238 137.403C100.007 136.324 99.8763 135.237 99.5403 134.221C99.2043 133.204 98.6714 132.281 97.9792 131.517L102.811 66.7832L88.4243 68.9788L88.1506 131.874C87.0712 133.249 86.484 135.016 86.5003 136.839C86.5166 138.662 87.1352 140.416 88.239 141.767C89.3427 143.118 90.8548 143.973 92.4889 144.17C94.1229 144.367 95.7653 143.892 97.1048 142.835Z" fill="#A0616A"/>
<path d="M103.749 76.1047C103.479 76.1047 103.211 76.0616 102.953 75.9767L87.508 70.9374C87.1368 70.8163 86.7922 70.6111 86.4961 70.3347C86.2 70.0583 85.9589 69.7168 85.7879 69.3317C85.6169 68.9466 85.5198 68.5263 85.5027 68.0975C85.4857 67.6686 85.549 67.2405 85.6887 66.8402L91.4044 50.4594C91.6428 49.7675 92.0975 49.1938 92.6855 48.8429C93.2735 48.4921 93.9556 48.3874 94.6074 48.5481L104.811 51.0089C105.448 51.1628 106.017 51.5585 106.419 52.1278C106.821 52.697 107.031 53.4041 107.013 54.1269L106.538 73.0857C106.518 73.8923 106.215 74.6585 105.695 75.222C105.174 75.7855 104.476 76.1021 103.749 76.1047Z" fill="#CCCCCC"/>
</svg>
