<svg width="25" height="25" viewBox="0 0 25 25" fill="none" xmlns="http://www.w3.org/2000/svg">
<path d="M11.7048 23.1591C12.1825 23.4316 12.7622 23.4161 13.238 23.1404C16.0266 21.5243 20.7497 17.9076 22.6188 13.2272C25.397 7.05612 18.8738 2.12994 14.3654 5.67302C13.9175 6.02505 13.3598 6.42551 12.9561 6.80902C12.7391 7.01528 12.3599 7.03633 12.1364 6.83702C11.6006 6.35909 10.8065 5.76743 10.2896 5.41772C6.44608 2.81734 -0.547269 6.24508 2.43585 13.5607C3.51639 16.8076 8.61995 21.3989 11.7048 23.1591Z" fill="url(#paint0_linear_269_4170)"/>
<path d="M11.7048 23.1591C12.1825 23.4316 12.7622 23.4161 13.238 23.1404C16.0266 21.5243 20.7497 17.9076 22.6188 13.2272C25.397 7.05612 18.8738 2.12994 14.3654 5.67302C13.9175 6.02505 13.3598 6.42551 12.9561 6.80902C12.7391 7.01528 12.3599 7.03633 12.1364 6.83702C11.6006 6.35909 10.8065 5.76743 10.2896 5.41772C6.44608 2.81734 -0.547269 6.24508 2.43585 13.5607C3.51639 16.8076 8.61995 21.3989 11.7048 23.1591Z" fill="url(#paint1_radial_269_4170)"/>
<path d="M11.7048 23.1591C12.1825 23.4316 12.7622 23.4161 13.238 23.1404C16.0266 21.5243 20.7497 17.9076 22.6188 13.2272C25.397 7.05612 18.8738 2.12994 14.3654 5.67302C13.9175 6.02505 13.3598 6.42551 12.9561 6.80902C12.7391 7.01528 12.3599 7.03633 12.1364 6.83702C11.6006 6.35909 10.8065 5.76743 10.2896 5.41772C6.44608 2.81734 -0.547269 6.24508 2.43585 13.5607C3.51639 16.8076 8.61995 21.3989 11.7048 23.1591Z" fill="url(#paint2_radial_269_4170)"/>
<path d="M11.7048 23.1591C12.1825 23.4316 12.7622 23.4161 13.238 23.1404C16.0266 21.5243 20.7497 17.9076 22.6188 13.2272C25.397 7.05612 18.8738 2.12994 14.3654 5.67302C13.9175 6.02505 13.3598 6.42551 12.9561 6.80902C12.7391 7.01528 12.3599 7.03633 12.1364 6.83702C11.6006 6.35909 10.8065 5.76743 10.2896 5.41772C6.44608 2.81734 -0.547269 6.24508 2.43585 13.5607C3.51639 16.8076 8.61995 21.3989 11.7048 23.1591Z" fill="url(#paint3_radial_269_4170)"/>
<path d="M11.7048 23.1591C12.1825 23.4316 12.7622 23.4161 13.238 23.1404C16.0266 21.5243 20.7497 17.9076 22.6188 13.2272C25.397 7.05612 18.8738 2.12994 14.3654 5.67302C13.9175 6.02505 13.3598 6.42551 12.9561 6.80902C12.7391 7.01528 12.3599 7.03633 12.1364 6.83702C11.6006 6.35909 10.8065 5.76743 10.2896 5.41772C6.44608 2.81734 -0.547269 6.24508 2.43585 13.5607C3.51639 16.8076 8.61995 21.3989 11.7048 23.1591Z" fill="url(#paint4_linear_269_4170)"/>
<path d="M11.7048 23.1591C12.1825 23.4316 12.7622 23.4161 13.238 23.1404C16.0266 21.5243 20.7497 17.9076 22.6188 13.2272C25.397 7.05612 18.8738 2.12994 14.3654 5.67302C13.9175 6.02505 13.3598 6.42551 12.9561 6.80902C12.7391 7.01528 12.3599 7.03633 12.1364 6.83702C11.6006 6.35909 10.8065 5.76743 10.2896 5.41772C6.44608 2.81734 -0.547269 6.24508 2.43585 13.5607C3.51639 16.8076 8.61995 21.3989 11.7048 23.1591Z" fill="url(#paint5_linear_269_4170)"/>
<path d="M11.7048 23.1591C12.1825 23.4316 12.7622 23.4161 13.238 23.1404C16.0266 21.5243 20.7497 17.9076 22.6188 13.2272C25.397 7.05612 18.8738 2.12994 14.3654 5.67302C13.9175 6.02505 13.3598 6.42551 12.9561 6.80902C12.7391 7.01528 12.3599 7.03633 12.1364 6.83702C11.6006 6.35909 10.8065 5.76743 10.2896 5.41772C6.44608 2.81734 -0.547269 6.24508 2.43585 13.5607C3.51639 16.8076 8.61995 21.3989 11.7048 23.1591Z" fill="url(#paint6_radial_269_4170)"/>
<path d="M11.7048 23.1591C12.1825 23.4316 12.7622 23.4161 13.238 23.1404C16.0266 21.5243 20.7497 17.9076 22.6188 13.2272C25.397 7.05612 18.8738 2.12994 14.3654 5.67302C13.9175 6.02505 13.3598 6.42551 12.9561 6.80902C12.7391 7.01528 12.3599 7.03633 12.1364 6.83702C11.6006 6.35909 10.8065 5.76743 10.2896 5.41772C6.44608 2.81734 -0.547269 6.24508 2.43585 13.5607C3.51639 16.8076 8.61995 21.3989 11.7048 23.1591Z" fill="url(#paint7_radial_269_4170)"/>
<path d="M11.7048 23.1591C12.1825 23.4316 12.7622 23.4161 13.238 23.1404C16.0266 21.5243 20.7497 17.9076 22.6188 13.2272C25.397 7.05612 18.8738 2.12994 14.3654 5.67302C13.9175 6.02505 13.3598 6.42551 12.9561 6.80902C12.7391 7.01528 12.3599 7.03633 12.1364 6.83702C11.6006 6.35909 10.8065 5.76743 10.2896 5.41772C6.44608 2.81734 -0.547269 6.24508 2.43585 13.5607C3.51639 16.8076 8.61995 21.3989 11.7048 23.1591Z" fill="url(#paint8_radial_269_4170)"/>
<path d="M11.7048 23.1591C12.1825 23.4316 12.7622 23.4161 13.238 23.1404C16.0266 21.5243 20.7497 17.9076 22.6188 13.2272C25.397 7.05612 18.8738 2.12994 14.3654 5.67302C13.9175 6.02505 13.3598 6.42551 12.9561 6.80902C12.7391 7.01528 12.3599 7.03633 12.1364 6.83702C11.6006 6.35909 10.8065 5.76743 10.2896 5.41772C6.44608 2.81734 -0.547269 6.24508 2.43585 13.5607C3.51639 16.8076 8.61995 21.3989 11.7048 23.1591Z" fill="url(#paint9_radial_269_4170)"/>
<defs>
<linearGradient id="paint0_linear_269_4170" x1="3.22708" y1="8.82947" x2="22.2553" y2="8.82947" gradientUnits="userSpaceOnUse">
<stop offset="0.0812458" stop-color="#276AF7"/>
<stop offset="1" stop-color="#438FFF"/>
</linearGradient>
<radialGradient id="paint1_radial_269_4170" cx="0" cy="0" r="1" gradientUnits="userSpaceOnUse" gradientTransform="translate(20.1902 21.8552) rotate(46.7332) scale(38.9491 17.8158)">
<stop offset="0.49399" stop-color="#2A6DFE" stop-opacity="0"/>
<stop offset="0.579924" stop-color="#2D5CBA"/>
</radialGradient>
<radialGradient id="paint2_radial_269_4170" cx="0" cy="0" r="1" gradientUnits="userSpaceOnUse" gradientTransform="translate(21.6758 6.41762) rotate(119.571) scale(19.4746 19.4866)">
<stop offset="0.225474" stop-color="#2D7FF9"/>
<stop offset="1" stop-color="#307EF2" stop-opacity="0"/>
</radialGradient>
<radialGradient id="paint3_radial_269_4170" cx="0" cy="0" r="1" gradientUnits="userSpaceOnUse" gradientTransform="translate(10.4026 9.75094) rotate(76.7068) scale(13.0132 7.5465)">
<stop offset="0.198648" stop-color="#6099FF"/>
<stop offset="0.755379" stop-color="#2E75F9" stop-opacity="0"/>
</radialGradient>
<linearGradient id="paint4_linear_269_4170" x1="11.2441" y1="9.50479" x2="19.9855" y2="9.50479" gradientUnits="userSpaceOnUse">
<stop offset="0.0552486" stop-color="#327AF9" stop-opacity="0"/>
<stop offset="0.197917" stop-color="#327AF9"/>
<stop offset="0.668508" stop-color="#327AF9"/>
<stop offset="1" stop-color="#327AF9" stop-opacity="0"/>
</linearGradient>
<linearGradient id="paint5_linear_269_4170" x1="6.89839" y1="26.7737" x2="15.6745" y2="12.966" gradientUnits="userSpaceOnUse">
<stop offset="0.432579" stop-color="#3A53FB"/>
<stop offset="0.823982" stop-color="#347DFA" stop-opacity="0"/>
</linearGradient>
<radialGradient id="paint6_radial_269_4170" cx="0" cy="0" r="1" gradientUnits="userSpaceOnUse" gradientTransform="translate(20.2142 8.56798) rotate(123.69) scale(10.5375 7.36183)">
<stop offset="0.163623" stop-color="#69A2FF"/>
<stop offset="1" stop-color="#357EFA" stop-opacity="0"/>
</radialGradient>
<radialGradient id="paint7_radial_269_4170" cx="0" cy="0" r="1" gradientUnits="userSpaceOnUse" gradientTransform="translate(16.6531 0.580949) rotate(125.756) scale(8.67831 3.04371)">
<stop offset="0.588879" stop-color="#2D5CBA"/>
<stop offset="1" stop-color="#5270B5" stop-opacity="0"/>
</radialGradient>
<radialGradient id="paint8_radial_269_4170" cx="0" cy="0" r="1" gradientUnits="userSpaceOnUse" gradientTransform="translate(6.51115 6.1282) rotate(136.69) scale(35.4422 27.5777)">
<stop offset="0.604116" stop-color="#3E74FF" stop-opacity="0"/>
<stop offset="0.643539" stop-color="#8F87FF"/>
</radialGradient>
<radialGradient id="paint9_radial_269_4170" cx="0" cy="0" r="1" gradientUnits="userSpaceOnUse" gradientTransform="translate(15.5233 5.97753) rotate(140.059) scale(24.8109 34.5584)">
<stop offset="0.604116" stop-color="#3E74FF" stop-opacity="0"/>
<stop offset="0.643539" stop-color="#8F87FF"/>
</radialGradient>
</defs>
</svg>
