<svg width="402" height="291" viewBox="0 0 402 291" fill="none" xmlns="http://www.w3.org/2000/svg">
<g filter="url(#filter0_f_522_5463)">
<ellipse cx="201" cy="211.5" rx="151" ry="29.5" fill="#FFC5C5"/>
</g>
<path d="M312.991 194.989H296.131C295.736 194.989 295.391 194.669 295.391 194.285V194.029C295.391 193.644 295.72 193.324 296.131 193.324H312.991C313.385 193.324 313.731 193.644 313.731 194.029V194.285C313.731 194.669 313.402 194.989 312.991 194.989ZM271.294 193.324C271.702 193.324 272.034 193.697 272.034 194.157C272.034 194.616 271.702 194.989 271.294 194.989H244.482C244.074 194.989 243.742 194.616 243.742 194.157C243.742 193.697 244.074 193.324 244.482 193.324H271.294Z" fill="#DE3190"/>
<path d="M271.375 193.331C271.349 193.328 271.322 193.326 271.295 193.326H244.599C244.581 193.225 244.572 193.097 244.575 192.932C244.593 192.803 244.595 192.655 244.631 192.507C244.842 191.623 245.098 191.036 245.846 190.514C246.594 189.992 247.358 189.526 248.154 189.116C251.09 187.564 252.094 187.584 254.024 186.16C254.823 185.565 255.557 184.877 256.243 184.131C256.701 183.635 257.635 182.828 259.045 181.71L271.375 182.03V193.331ZM313.053 193.328C313.033 193.327 313.013 193.326 312.992 193.326H296.189L297.678 182.852L308.732 181.43L313.053 193.328Z" fill="#474961"/>
<path d="M276.395 79.6616C276.958 78.9478 277.587 78.2882 278.279 77.695C280.289 76.8454 284.125 75.947 286.863 76.9278C290.064 78.0747 292.039 81.211 292.039 81.211C292.039 81.211 292.509 80.6613 297.405 96.042C300.669 106.296 303.836 120.191 306.907 137.726C307.201 139.69 308.897 150.765 311.997 170.951C311.999 170.968 312.001 170.984 312.004 171.001C312.134 172.012 311.51 172.951 310.611 173.097L293.467 175.889C292.642 176.023 291.858 175.442 291.642 174.536C289.504 165.542 288.348 160.626 288.174 159.788C287.799 158.113 287.431 156.216 287.049 154.044L284.049 137.732C284.02 137.574 283.963 137.061 283.879 136.193C282.479 130.42 281.282 125.485 280.289 121.385C279.49 124.835 278.625 128.534 277.695 132.483C277.243 154.622 276.906 167.212 276.682 170.253C276.648 170.723 276.538 172.454 276.353 175.447C276.291 176.452 275.526 177.216 274.632 177.167L256.958 176.193C256.116 176.147 255.442 175.393 255.396 174.447C254.614 158.495 255.131 143.488 256.948 129.428C259.766 107.606 264.026 98.6889 266.567 90.2948C266.595 90.1948 268.611 86.6048 272.614 79.5249C274.005 79.5341 275.266 79.5796 276.395 79.6616Z" fill="#FFCB3D"/>
<path opacity="0.2" d="M273.941 84.4102C273.009 87.2582 272.849 90.4209 273.589 93.4795C274.626 97.7642 275.663 102.049 276.7 106.334C276.7 106.334 277.904 111.297 280.311 121.225C279.506 124.721 278.634 128.473 277.695 132.483C277.231 154.553 276.888 167.108 276.665 170.149C276.513 172.218 276.399 173.976 276.323 175.423C276.27 176.437 275.5 177.213 274.598 177.162L256.908 176.157C256.066 176.109 255.393 175.353 255.348 174.407C254.598 158.48 255.132 143.487 256.948 129.428C259.766 107.606 263.976 98.6496 266.516 90.2555C266.539 90.1748 270.17 87.0817 273.941 84.4102Z" fill="#8C2A00"/>
<path d="M272.504 49.4509C272.859 49.3037 273.212 49.1791 273.555 49.0735L273.487 47.686C273.477 47.4841 273.613 47.3106 273.793 47.2965L281.51 46.6923C281.691 46.6783 281.848 46.8319 281.861 47.0357L281.91 47.8192C286.119 47.2408 288.576 47.1087 289.282 47.4229C295.824 50.3379 296.905 62.9936 296.871 66.8436C296.861 67.8761 295.394 68.8028 292.47 69.6238C292.789 73.1233 292.976 75.1004 293.084 76.1274C293.084 76.1274 293.083 76.3092 293.119 76.5782C293.212 77.3686 270.987 85.106 270.987 85.106C270.971 85.0895 270.955 85.091 270.955 85.091C270.955 85.091 270.64 85.0311 270.249 84.8149C270.056 84.7249 269.859 84.5988 269.659 84.4186C268.172 83.1105 267.933 79.8451 267.902 79.0487C267.882 78.7962 267.866 78.5979 267.866 78.5979C267.805 77.4097 267.656 75.004 267.361 70.5162C266.307 71.0272 265.158 71.5468 263.914 72.075L263.96 53.6124C263.963 52.2922 264.66 51.0989 265.735 50.5703C268.129 49.3937 270.386 49.0205 272.504 49.4509Z" fill="#DE3190"/>
<path d="M271.332 182.11L268.404 182.035L259.045 181.708L259.525 176.288L271.456 176.94L271.332 182.11ZM296.139 175.416L307.775 173.525L308.732 181.428L297.678 182.85L296.139 175.416ZM281.269 39.8934V46.7319L274.898 47.221L274.988 45.73C274.077 45.9909 274.13 45.9603 274.042 45.9818C272.984 46.153 272.104 46.0129 271.944 45.9572C271.361 45.8334 270.79 45.213 270.322 44.217C269.686 42.8877 269.198 40.8744 269.056 38.5143C269.022 38.1781 269.037 37.8477 269.051 37.5172L269.293 34.2426C269.346 33.5107 269.562 32.7979 269.951 32.1792C270.109 31.9025 270.263 31.6806 270.445 31.499C272.413 29.2202 275.487 29.9497 276.034 30.1062C276.098 30.1321 276.163 30.1398 276.227 30.1657C276.815 30.4192 277.383 30.5411 277.953 30.6265C278.215 30.6572 278.404 30.9376 278.376 31.2296L277.92 35.9C278.077 35.8078 280.558 34.6961 281.249 35.257C281.82 35.7264 282.062 38.6583 281.269 39.8934ZM267.998 81.195L268.167 81.0281C268.243 81.0281 268.286 81.0326 268.301 81.0414L281.938 74.1187L282.219 71.3286C288.257 70.5936 292.432 69.7263 294.747 68.7267C294.787 75.9023 294.316 80.0301 293.335 81.1101C291.11 83.5587 279.523 89.6098 267.924 91.2433C265.332 92.5358 261.043 93.477 255.059 94.0669C253.352 92.8389 252.435 90.6939 252.308 87.632L256.463 86.0245C256.295 85.9596 256.209 85.9112 256.209 85.9112C255.31 83.601 266.701 81.5566 268.154 81.1158L267.998 81.195ZM264.595 71.6288C258.994 74.5283 249.977 76.7331 247.567 73.5743C244.411 69.4381 243.996 58.1759 246.321 39.7876C241.246 38.5234 237.731 37.1491 235.775 35.6649C235.246 35.2631 234.935 34.5874 234.95 33.8712C234.974 32.708 235.835 31.7871 236.873 31.8143C241.843 31.9447 244.992 31.934 246.321 31.7821C246.354 31.7783 246.387 31.7748 246.421 31.7715C250.452 31.3733 254.007 34.7123 254.363 39.2294L255.887 58.6047L263.956 54.2392L263.948 71.9062C264.166 71.8134 264.382 71.721 264.595 71.6288Z" fill="#DB9E75"/>
<path opacity="0.176986" d="M272.378 49.414C270.901 50.0444 269.394 51.0686 268.388 52.7325C268.099 53.2151 267.735 53.9411 267.489 54.9647C267.454 55.1135 267.417 55.2442 267.382 55.393C267.298 55.7101 267.118 56.382 266.972 57.1049C266.818 57.9195 266.751 59.4524 266.777 61.5758L266.781 61.6299L266.819 62.5165C267.035 65.7271 267.21 68.3592 267.351 70.5094C266.304 71.0177 265.162 71.5345 263.926 72.0596L263.96 53.6035C263.963 52.2867 264.655 51.0951 265.726 50.5637C268.075 49.3988 270.292 49.0156 272.378 49.414V49.414Z" fill="#444444"/>
<path d="M274.989 45.7726L277.513 45.0647L274.898 47.2835L274.989 45.7726Z" fill="#482D1F"/>
<path d="M279.874 40.6558L279.889 40.6541C280.112 40.5692 280.765 40.3127 281.2 39.549C281.636 38.7854 281.787 37.7105 281.326 36.8043C280.88 35.9184 279.941 35.345 279.128 35.5457C278.671 35.6585 278.341 36.0085 278.305 36.0413C277.804 36.6121 277.644 37.26 277.644 37.26L277.561 37.705C277.471 37.554 277.388 37.4045 277.314 37.2581C276.281 35.7476 275.251 34.2188 274.22 32.69C273.546 32.8145 272.481 32.8928 271.298 32.4572C270.883 32.2972 270.53 31.9965 270.219 31.7932C270.313 31.6746 270.405 31.5743 270.482 31.4538C271.926 29.642 274.584 29.6955 275.78 29.9846C275.926 30.0202 276.442 30.1551 277.19 30.2986C277.595 30.3834 277.922 30.4219 278.117 30.4633C280.544 30.8601 281.54 30.6439 282.698 31.521C282.915 31.6762 283.408 32.0675 283.806 32.7625C284.928 34.7281 284.397 37.0361 284.25 37.7226C283.759 39.7761 282.61 40.8119 282.233 41.3046C281.477 42.3083 280.495 41.3046 280.495 41.3046C280.495 41.3046 280.243 41.0549 279.874 40.6558Z" fill="#482D1F"/>
<path d="M258.711 88.356C258.843 88.3192 258.977 88.41 259.01 88.5588C259.042 88.7075 258.962 88.858 258.829 88.8947C257.999 89.1256 257.349 89.2819 255.897 89.6122C254.452 89.9409 253.806 90.0961 252.985 90.3244C252.852 90.3612 252.719 90.2704 252.686 90.1216C252.653 89.9728 252.734 89.8224 252.866 89.7856C253.697 89.5548 254.347 89.3985 255.799 89.0682C257.244 88.7395 257.89 88.5843 258.711 88.356ZM260.608 91.1154C260.742 91.0879 260.871 91.1878 260.895 91.3386C260.92 91.4893 260.831 91.6339 260.697 91.6614C259.779 91.8498 259.071 92.0139 257.495 92.3933C255.915 92.7738 255.203 92.9387 254.279 93.1285C254.145 93.156 254.016 93.0561 253.992 92.9053C253.967 92.7546 254.056 92.61 254.19 92.5825C255.108 92.3941 255.817 92.23 257.392 91.8506C258.972 91.4701 259.684 91.3052 260.608 91.1154Z" fill="#482D1F"/>
<path d="M270.035 37.6658C270.035 37.9837 270.049 38.5289 269.896 38.7605C269.658 39.1062 269.168 38.1866 269.317 37.5613C269.405 37.317 269.52 37.2274 269.652 37.2348C269.852 37.2369 270.021 37.4385 270.035 37.6658ZM273.572 37.875C273.588 38.1962 273.603 38.7414 273.433 38.9697C273.195 39.3155 272.705 38.3958 272.854 37.7706C272.942 37.5262 273.056 37.4366 273.189 37.444C273.389 37.4461 273.558 37.6478 273.572 37.875Z" fill="#482D1F"/>
<path d="M271.489 38.0385L271.187 39.8492C271.186 39.8553 271.206 39.8874 271.214 39.8889C271.302 39.9064 271.394 39.9178 271.538 39.9304C271.566 39.9329 271.595 39.9353 271.637 39.9388C271.69 39.9431 271.719 39.9455 271.747 39.9478C271.842 39.9557 271.921 39.9628 272.005 39.9711C272.096 39.98 272.162 40.0697 272.155 40.1715C272.147 40.2733 272.067 40.3486 271.976 40.3397C271.894 40.3315 271.816 40.3246 271.723 40.3168C271.695 40.3145 271.666 40.3121 271.613 40.3078C271.57 40.3043 271.541 40.3018 271.512 40.2993C271.359 40.2859 271.258 40.2733 271.157 40.2534C270.97 40.2165 270.83 39.9925 270.863 39.7828L271.165 37.9703C271.182 37.8699 271.268 37.8037 271.357 37.8226C271.446 37.8414 271.505 37.9381 271.489 38.0385Z" fill="#482D1F"/>
<path d="M276.531 37.9129C276.544 38.1237 276.535 38.3398 276.501 38.5574C276.277 39.9807 275.065 40.9305 273.795 40.6798C272.727 40.4689 271.957 39.4757 271.872 38.3186L271.334 38.2755C271.107 39.694 269.897 40.6396 268.63 40.3893C267.36 40.1385 266.511 38.7814 266.735 37.3578C266.959 35.9346 268.171 34.9847 269.441 35.2355C270.547 35.4539 271.334 36.5119 271.37 37.7219L271.885 37.7632C271.889 37.7249 271.894 37.6866 271.901 37.6483C272.125 36.225 273.336 35.2752 274.606 35.5259C275.51 35.7044 276.2 36.4427 276.443 37.3665L277.545 37.1893C277.68 37.1676 277.805 37.273 277.825 37.4247C277.844 37.5764 277.75 37.717 277.615 37.7387L276.531 37.9129ZM270.876 37.9044C270.918 36.8849 270.278 35.9642 269.355 35.7821C268.353 35.5842 267.398 36.3334 267.221 37.4546C267.045 38.5755 267.713 39.6448 268.715 39.8427C269.718 40.0406 270.673 39.2914 270.85 38.1702C270.858 38.1183 270.864 38.0666 270.869 38.015C270.867 37.9971 270.866 37.9786 270.867 37.9599C270.869 37.9407 270.871 37.9222 270.876 37.9044ZM276.015 38.4607C276.191 37.3397 275.523 36.2704 274.521 36.0726C273.518 35.8747 272.563 36.6238 272.386 37.7451C272.21 38.866 272.879 39.9353 273.881 40.1331C274.883 40.331 275.838 39.5819 276.015 38.4607Z" fill="#482D1F"/>
<path d="M272.121 41.4347C272.243 41.4027 272.541 41.312 272.586 41.1338C272.592 41.0975 272.617 41.0463 272.587 41.0218C272.52 40.9151 272.312 40.9674 272.006 41.0005C271.464 41.0432 271.037 40.9963 271.037 40.9963C271.037 40.9963 271.154 41.3185 271.24 41.4103C271.403 41.6482 271.945 41.4934 272.121 41.4347Z" fill="#482D1F"/>
<path d="M282.57 71.3041C282.535 69.6751 282.508 68.25 282.489 67.029C282.47 65.8078 282.443 63.8021 282.408 61.0119C282.406 60.8587 282.294 60.7362 282.158 60.7383C282.021 60.7405 281.912 60.8664 281.914 61.0197C281.949 63.8105 281.976 65.8168 281.995 67.0388C282.014 68.2611 282.041 69.6873 282.076 71.3174C282.079 71.4706 282.193 71.5919 282.329 71.5883C282.465 71.5845 282.573 71.4573 282.57 71.3041Z" fill="#482D1F"/>
<path d="M176.916 198.725L176.917 198.836C176.907 199.262 176.582 199.602 176.183 199.609L148.522 199.56C148.122 199.55 147.805 199.204 147.798 198.779L147.796 198.668C147.807 198.242 148.131 197.903 148.53 197.895L176.175 197.944C176.591 197.936 176.909 198.281 176.916 198.725ZM103.313 199.425L103.273 199.434L87.0909 185.21C86.7949 184.951 86.7291 184.451 86.9758 184.137L87.0252 184.044C87.1732 183.841 87.4035 183.73 87.6337 183.748C87.7653 183.748 87.8805 183.804 87.9956 183.896L104.102 197.9L112.916 197.922C113.294 197.914 113.596 198.26 113.619 198.685L113.621 198.796C113.611 199.222 113.304 199.561 112.925 199.568L103.284 199.536C103.294 199.499 103.304 199.462 103.313 199.425Z" fill="#FF5645"/>
<path d="M176.703 198.169C176.57 198.027 176.386 197.942 176.176 197.946L148.532 197.896C148.488 197.897 148.445 197.902 148.403 197.911L149.513 186.403L162.147 186.362C163.667 187.48 164.655 188.287 165.112 188.784C165.799 189.529 166.533 190.217 167.332 190.812C169.262 192.236 170.266 192.216 173.202 193.769C173.998 194.178 174.762 194.645 175.51 195.166C176.258 195.688 176.514 196.275 176.725 197.159C176.761 197.307 176.763 197.455 176.781 197.584C176.786 197.875 176.754 198.05 176.703 198.169ZM87.9961 183.897L93.74 175.043L103.642 183.497L103.938 184.607C105.089 189.146 105.715 191.539 105.813 191.785C105.932 192.074 106.055 192.341 106.184 192.601C107.079 193.01 108.094 193.41 109.646 194.283C110.435 194.708 111.192 195.189 111.932 195.726C112.672 196.262 112.919 196.854 113.116 197.742C113.133 197.817 113.141 197.892 113.147 197.964C113.076 197.936 112.998 197.921 112.918 197.923L104.104 197.901L87.9973 183.897C87.9969 183.897 87.9965 183.897 87.9961 183.897Z" fill="#474961"/>
<path d="M136.459 94.4813C136.509 94.4887 136.558 94.4977 136.607 94.5082C137.083 94.6094 137.527 94.8479 137.897 95.2005C152.134 108.789 160.554 120.028 163.158 128.918C164.635 133.959 165.938 146.931 167.068 167.832C167.278 171.708 164.654 175.04 161.209 175.276C161.136 175.281 161.064 175.285 160.991 175.287L150.624 175.588C147.226 175.687 144.38 172.714 144.219 168.895L142.837 136.266C140.564 133.564 138.584 131.184 136.896 129.125C136.491 131.609 135.867 134.23 134.857 137.738C133.174 143.582 126.318 155.134 114.288 172.392L113.826 173.084C111.867 176.021 108.229 176.767 105.474 174.797L97.7381 169.267C94.8248 167.184 93.9643 162.839 95.8161 159.563C95.8931 159.426 95.9743 159.293 96.0594 159.163L113.288 132.87C113.699 122.446 114.512 113.327 115.727 105.512C117.55 93.7894 131.196 94.0425 136.361 94.2355C136.395 94.3158 136.427 94.3977 136.459 94.4813Z" fill="#3ABF7C"/>
<path opacity="0.176986" d="M136.449 94.4766C136.502 94.4843 136.555 94.4938 136.607 94.505C137.083 94.6062 137.528 94.8448 137.897 95.1973C152.134 108.786 160.555 120.025 163.159 128.915C164.635 133.956 165.938 146.928 167.069 167.829C167.278 171.704 164.655 175.037 161.209 175.273C161.137 175.278 161.064 175.281 160.991 175.283L150.624 175.585C147.226 175.684 144.381 172.711 144.219 168.892L142.837 136.263C140.566 133.562 138.587 131.183 136.9 129.126C137.646 124.54 137.643 120.419 137.932 112.05C138.223 103.632 137.729 97.7745 136.449 94.4766Z" fill="#444444"/>
<path d="M146.258 51.0625L248.975 42.984L253.599 117.357C253.726 119.396 252.359 121.164 250.547 121.306L154.393 128.869C152.581 129.011 151.009 127.474 150.882 125.436L146.258 51.0625Z" fill="#F2F6FB"/>
<path d="M151.762 58.8179L154.841 58.5758C155.022 58.5615 155.179 58.7152 155.192 58.9191L155.277 60.2836C155.289 60.4875 155.153 60.6643 154.971 60.6785L151.892 60.9207C151.711 60.9349 151.554 60.7812 151.541 60.5774L151.457 59.2128C151.444 59.009 151.581 58.8322 151.762 58.8179ZM231.134 52.5755L244.485 51.5255C244.666 51.5112 244.823 51.6649 244.836 51.8688L244.921 53.2333C244.933 53.4372 244.797 53.614 244.615 53.6282L231.265 54.6782C231.084 54.6925 230.926 54.5388 230.914 54.3349L230.829 52.9704C230.816 52.7665 230.953 52.5897 231.134 52.5755ZM205.922 54.5584L219.272 53.5084C219.454 53.4941 219.611 53.6478 219.623 53.8517L219.708 55.2162C219.721 55.4201 219.584 55.5969 219.403 55.6111L206.052 56.6611C205.871 56.6754 205.714 56.5217 205.701 56.3178L205.617 54.9533C205.604 54.7494 205.74 54.5726 205.922 54.5584ZM221.796 53.3099L228.61 52.774C228.791 52.7597 228.949 52.9134 228.961 53.1173L229.046 54.4818C229.059 54.6856 228.922 54.8625 228.741 54.8767L221.927 55.4126C221.746 55.4269 221.588 55.2732 221.576 55.0693L221.491 53.7048C221.478 53.5009 221.615 53.3241 221.796 53.3099Z" fill="#D8DEED"/>
<path d="M182.698 64.8704L160.058 66.8308C159.452 66.8832 158.991 67.4688 159.029 68.1386L161.822 117.88C161.86 118.55 162.382 119.05 162.988 118.998L185.628 117.037C186.234 116.985 186.695 116.399 186.657 115.729L183.864 65.9882C183.826 65.3184 183.304 64.8179 182.698 64.8704Z" fill="#D8DEED"/>
<path d="M174.508 116.366C175.47 116.282 176.202 115.367 176.143 114.321C176.085 113.276 175.258 112.496 174.296 112.579C173.334 112.663 172.602 113.578 172.661 114.624C172.719 115.669 173.546 116.449 174.508 116.366Z" fill="#F2F6FB"/>
<path d="M172.839 68.7543L170.304 68.9719C170.047 68.9939 169.853 69.239 169.869 69.5195C169.885 69.7999 170.105 70.0094 170.361 69.9874L172.897 69.7698C173.153 69.7478 173.348 69.5027 173.332 69.2223C173.316 68.9418 173.096 68.7323 172.839 68.7543Z" fill="#F2F6FB"/>
<path d="M182.206 70.8218L161.215 72.6406L163.463 112.699L184.454 110.88L182.206 70.8218Z" fill="#F2F6FB"/>
<path d="M173.531 95.5177L168.662 95.9396C168.542 95.95 168.493 95.8637 168.552 95.7471L171.564 89.8199C171.624 89.7033 171.732 89.6916 171.807 89.7956L174.423 93.457L175.336 91.6482C175.395 91.5314 175.505 91.5168 175.584 91.6186L178.145 94.9223C178.223 95.0227 178.19 95.1135 178.07 95.1252L175.965 95.3295L173.531 95.5177ZM175.371 90.3379C174.943 90.375 174.575 90.0357 174.549 89.5801C174.524 89.1244 174.85 88.725 175.278 88.6879C175.707 88.6508 176.075 88.9901 176.1 89.4457C176.126 89.9014 175.799 90.3008 175.371 90.3379Z" fill="#D8DEED"/>
<path d="M194.254 78.189L236.552 74.8624C236.733 74.8481 236.891 75.0018 236.903 75.2057L237.119 78.673C237.131 78.8768 236.995 79.0536 236.814 79.0679L194.515 82.3945C194.334 82.4088 194.177 82.2551 194.164 82.0512L193.949 78.5839C193.936 78.3801 194.073 78.2033 194.254 78.189ZM194.679 85.023L220.636 82.9815C220.817 82.9673 220.974 83.121 220.987 83.3248L221.202 86.7921C221.215 86.9959 221.078 87.1727 220.897 87.187L194.94 89.2284C194.759 89.2427 194.602 89.089 194.589 88.8852L194.374 85.4179C194.361 85.214 194.498 85.0372 194.679 85.023ZM195.104 91.8569L230.865 89.0443C231.047 89.03 231.204 89.1837 231.216 89.3876L231.432 92.8549C231.445 93.0587 231.308 93.2355 231.127 93.2498L195.365 96.0624C195.184 96.0766 195.027 95.9229 195.014 95.7191L194.798 92.2518C194.786 92.0479 194.922 91.8711 195.104 91.8569Z" fill="#E1E5F0"/>
<path d="M228.656 68.6179L193.828 71.357C193.647 71.3713 193.51 71.5481 193.523 71.7519L193.739 75.2192C193.751 75.423 193.908 75.5767 194.09 75.5625L228.917 72.8234C229.099 72.8091 229.235 72.6323 229.223 72.4284L229.007 68.9612C228.994 68.7573 228.837 68.6036 228.656 68.6179Z" fill="#D8DEED"/>
<path d="M198.567 102.678L215.7 101.33C216.738 101.248 217.154 101.345 217.57 101.555C217.986 101.764 218.322 102.094 218.565 102.528C218.808 102.962 218.95 103.412 219.023 104.579L219.111 106.003C219.184 107.171 219.098 107.639 218.912 108.107C218.725 108.575 218.433 108.953 218.047 109.226C217.66 109.499 217.261 109.659 216.223 109.741L199.09 111.089C198.052 111.17 197.636 111.074 197.22 110.864C196.804 110.654 196.467 110.325 196.225 109.891C195.982 109.457 195.839 109.007 195.767 107.839L195.678 106.415C195.606 105.248 195.691 104.78 195.878 104.312C196.064 103.844 196.357 103.465 196.743 103.193C197.129 102.92 197.529 102.759 198.567 102.678Z" fill="#474BFF"/>
<path d="M145.948 46.0779C145.821 44.0393 147.188 42.2712 149.002 42.1285L245.153 34.5664C246.966 34.4238 248.539 35.9616 248.665 37.9994L248.998 43.3511L146.281 51.4296L145.948 46.0779Z" fill="#E1E5F0"/>
<path d="M151.464 48.6111C152.415 48.5363 153.133 47.6081 153.066 46.5379C153 45.4677 152.174 44.6608 151.223 44.7356C150.271 44.8104 149.554 45.7387 149.62 46.8089C149.687 47.8791 150.512 48.686 151.464 48.6111Z" fill="#FF5645"/>
<path d="M157.206 48.158C158.158 48.0832 158.875 47.1549 158.808 46.0847C158.742 45.0145 157.917 44.2076 156.965 44.2825C156.014 44.3573 155.296 45.2855 155.363 46.3557C155.429 47.4259 156.255 48.2328 157.206 48.158Z" fill="#FFCB3D"/>
<path d="M163.116 47.6971C164.068 47.6222 164.785 46.694 164.719 45.6238C164.652 44.5536 163.827 43.7467 162.875 43.8215C161.924 43.8964 161.206 44.8246 161.273 45.8948C161.339 46.965 162.165 47.7719 163.116 47.6971Z" fill="#3ABF7C"/>
<path d="M115.431 79.6451L113.612 80.0233C113.544 80.0375 113.474 80.0436 113.405 80.0414C112.86 80.0246 112.431 79.5142 112.446 78.9014C112.591 72.9393 113.126 69.0494 114.049 67.2316C114.319 66.6995 114.667 66.2706 115.07 65.9385C116.716 64.1811 119.518 63.1905 122.859 62.551L123.782 62.3679C125.21 62.0954 126.586 62.1159 127.863 62.3743C129.457 62.4428 131.418 62.8587 133.202 64.1816C133.485 64.3884 134.089 64.8322 134.755 65.5643C134.755 65.5643 136.063 66.9769 137.769 71.7858C137.966 72.356 138.254 73.303 138.63 74.627C138.769 75.1136 138.531 75.6343 138.098 75.7901C138.068 75.8007 138.038 75.8094 138.008 75.8163L135.94 76.2799L136.484 83.8377C136.5 84.0413 136.512 84.2267 136.543 84.4271C136.676 85.3777 136.68 86.5791 136.135 87.6828C135.354 89.3031 134.113 91.6155 127.622 92.8277C121.585 93.9498 119.829 92.2317 118.64 91.0398C117.789 90.1941 117.432 88.8748 117.273 87.9671C117.241 87.7667 117.197 87.5877 117.149 87.3905L115.431 79.6451Z" fill="#FF5645"/>
<path opacity="0.176986" d="M127.833 62.3713C131.036 63.0101 133.623 65.1444 134.87 67.9106C135.277 68.8065 135.486 69.8172 135.543 70.8203L135.937 76.28L137.998 75.8285C138.029 75.8218 138.059 75.8131 138.089 75.8026C138.522 75.6488 138.762 75.1292 138.626 74.642C138.251 73.3086 137.965 72.3566 137.767 71.7858C136.061 66.9769 134.754 65.5643 134.754 65.5643C134.088 64.8322 133.484 64.3884 133.201 64.1816C131.389 62.8378 129.43 62.4299 127.833 62.3713V62.3713Z" fill="#444444"/>
<path d="M150.112 175.599C150.295 175.612 150.481 175.616 150.668 175.61L161.035 175.309C161.108 175.307 161.18 175.303 161.253 175.298C161.867 175.256 162.456 175.116 163.006 174.891L161.961 186.456H149.511L150.112 175.599ZM107.566 175.763L103.64 183.496L93.7383 175.041L97.2712 168.882C97.4338 169.026 97.6042 169.161 97.7822 169.289L105.518 174.819C106.163 175.281 106.857 175.593 107.566 175.763ZM144.131 89.8361L146.521 90.1345C147.539 89.5312 156.816 84.1179 157.421 86.7433C157.421 86.7433 157.38 86.8389 157.286 87.003L161.606 85.3399C163.988 89.0898 161.971 94.9515 161.939 94.9719C156.428 97.6918 152.29 99.1368 149.526 99.3072C149.207 99.3268 148.921 99.304 148.67 99.2386C148.666 99.2726 148.661 99.3068 148.657 99.3413C139.937 100.518 130.795 100.082 121.232 98.0347C118.931 97.5421 116.385 91.5187 113.595 79.9645C113.622 79.9615 113.649 79.9572 113.676 79.9516L124.411 77.7199C124.507 77.6999 124.597 77.665 124.68 77.6176L127.325 87.7382L135.453 88.7529C135.72 88.3497 135.913 87.9608 136.085 87.6052C136.63 86.5015 136.625 85.3001 136.493 84.3495C136.462 84.1491 136.449 83.9637 136.434 83.7601L135.876 76.0185L137.95 75.6073C137.993 75.5986 138.037 75.5859 138.079 75.5693C138.135 75.547 138.188 75.5185 138.237 75.4847L140.455 80.6395C142.297 79.4932 147.66 71.9985 147.66 71.9985C147.66 71.9985 147.945 76.2531 148.515 84.7621L144.131 89.8361ZM126.588 60.3336L126.776 62.0924C130.114 62.2458 131.631 63.7052 132.143 64.3416C132.143 64.3416 128.621 65.0649 121.577 66.5114C119.678 64.7985 116.851 64.4102 115.094 65.9C116.07 64.8376 117.754 63.9233 120.148 63.157C120.774 62.9565 121.37 62.7881 121.937 62.6485L121.324 56.0885C121.288 56.0658 121.253 56.0417 121.217 56.0162C120.575 55.5392 120.091 54.6509 120.183 53.608C120.261 52.6462 120.901 51.3228 121.681 51.1645C122.118 51.0709 123.34 51.4885 123.253 51.0548C123.196 50.7657 122.859 49.2329 122.243 46.4563C122.191 46.1656 122.342 45.871 122.596 45.7944C123.172 45.6399 123.742 45.6022 124.308 45.2594C124.371 45.2403 124.431 45.2033 124.494 45.1841C125.017 44.9498 127.93 43.5933 130.154 45.5662C130.343 45.7196 130.53 45.9315 130.721 46.1612C131.172 46.6957 131.469 47.3722 131.608 48.0966L132.243 51.3335C132.288 51.6647 132.348 51.9912 132.362 52.332C132.603 56.4919 131.698 59.6952 130.389 60.2046C130.234 60.2703 129.38 60.5468 128.307 60.5446C128.203 60.5376 128.295 60.5673 126.816 60.3619C126.738 60.3525 126.662 60.3431 126.588 60.3336Z" fill="#F2A98A"/>
<path opacity="0.2" d="M144.005 89.9381L148.515 84.7897C147.945 76.2632 147.66 72 147.66 72C147.66 72 142.297 79.4947 140.455 80.641L138.281 75.6537C138.222 75.6993 138.157 75.7369 138.086 75.7648C138.044 75.7813 138.001 75.794 137.957 75.8027L135.883 76.214L136.441 83.9556C136.457 84.1592 136.469 84.3446 136.5 84.545C136.633 85.4956 136.637 86.6969 136.092 87.8007C135.931 88.1353 135.75 88.4994 135.507 88.8773L144.005 89.9381Z" fill="#8C2A00"/>
<path d="M156.692 89.9927C157.506 89.7298 158.134 89.5021 159.533 88.976C160.939 88.4475 161.572 88.2181 162.395 87.9523C162.526 87.9099 162.662 87.995 162.7 88.1423C162.738 88.2896 162.662 88.4434 162.531 88.4857C161.717 88.7486 161.089 88.9764 159.69 89.5024C158.284 90.0309 157.651 90.2604 156.828 90.5262C156.697 90.5685 156.561 90.4834 156.523 90.3361C156.485 90.1888 156.561 90.0351 156.692 89.9927ZM156.262 93.8017C157.147 93.4474 157.838 93.1908 159.377 92.6339C160.912 92.0787 161.599 91.8234 162.478 91.4716C162.606 91.4202 162.748 91.4956 162.793 91.64C162.839 91.7844 162.772 91.9431 162.643 91.9945C161.758 92.3488 161.067 92.6054 159.528 93.1622C157.994 93.7174 157.307 93.9728 156.427 94.3246C156.299 94.3759 156.158 94.3005 156.112 94.1561C156.066 94.0117 156.133 93.853 156.262 93.8017Z" fill="#482D1F"/>
<path d="M116.501 51.2457C116.488 50.5311 116.59 49.751 116.917 48.9829C117.229 48.2187 117.68 47.7569 117.873 47.5647C118.935 46.517 119.957 46.5919 122.359 45.8105C122.864 45.6394 123.606 45.3965 124.47 45.0211C124.538 45.0199 124.597 44.9828 124.661 44.9637C125.184 44.7294 128.053 43.6923 130.161 45.6046C130.169 45.6403 130.487 45.8317 130.484 45.8901C130.484 45.8901 128.292 51.2045 123.711 52.2882C123.589 52.1396 123.264 51.7876 122.777 51.5646C122.721 51.5432 122.323 51.3757 121.886 51.4693C121.106 51.6276 120.473 52.5461 120.396 53.5079C120.295 54.515 120.775 55.3855 121.401 55.8673C122.026 56.3491 122.7 56.3184 122.919 56.3097L123.177 56.2262C123.399 56.7048 123.554 57.2205 123.374 57.614C123.028 58.374 122.382 58.8127 121.438 58.9303C120.565 60.1733 119.137 61.0408 117.48 61.1711C114.626 61.3956 112.173 59.3467 112.002 56.5948C111.838 53.9595 113.826 51.6352 116.501 51.2457ZM132.453 50.3582C132.164 50.5027 131.668 50.7096 131.181 50.6649C130.422 50.6254 131.035 49.9811 131.695 49.8205C132.017 49.7426 132.298 49.8495 132.475 49.9494C132.616 50.041 132.603 50.2745 132.453 50.3582ZM129.37 51.2871C129.065 51.4364 128.57 51.6433 128.067 51.6034C127.312 51.5818 127.921 50.9196 128.581 50.759C128.918 50.6763 129.199 50.7832 129.376 50.8831C129.533 50.9699 129.521 51.2034 129.37 51.2871Z" fill="#482D1F"/>
<path d="M131.59 52.0929C131.571 51.8689 131.691 51.6602 131.882 51.6028C132.009 51.5645 132.137 51.6024 132.245 51.8382C132.492 52.3765 132.195 53.347 131.912 53.0876C131.702 52.921 131.631 52.4063 131.59 52.0929ZM128.736 52.838C128.717 52.614 128.838 52.4053 129.028 52.3478C129.155 52.3095 129.284 52.3475 129.391 52.5833C129.638 53.1216 129.342 54.0921 129.058 53.8326C128.849 53.6661 128.761 53.1562 128.736 52.838Z" fill="#482D1F"/>
<path d="M130.389 56.2074C130.27 56.2051 129.974 56.1793 129.879 55.9971C129.871 55.9614 129.842 55.9126 129.85 55.8721C129.888 55.7457 130.107 55.737 130.402 55.6866C130.923 55.5869 131.323 55.4088 131.323 55.4088C131.323 55.4088 131.281 55.8045 131.223 55.9178C131.132 56.2516 130.577 56.2083 130.389 56.2074Z" fill="#482D1F"/>
<path d="M130.797 52.4749L131.439 54.3169L131.445 54.3365C131.491 54.5315 131.416 54.7484 131.25 54.833C131.219 54.846 131.202 54.8528 131.184 54.8594C131.019 54.9224 130.899 54.9606 130.466 55.0911C130.378 55.1175 130.288 55.059 130.265 54.9603C130.241 54.8616 130.293 54.7601 130.381 54.7337C130.806 54.6055 130.923 54.5684 131.079 54.509C131.095 54.5028 131.111 54.4965 131.127 54.4901C131.124 54.4912 131.132 54.4665 131.128 54.4394L130.486 52.5973L130.479 52.5716L130.26 51.5077C130.239 51.4082 130.294 51.3088 130.383 51.2857C130.471 51.2626 130.56 51.3246 130.58 51.4241L130.797 52.4749Z" fill="#482D1F"/>
<path d="M124.895 77.5457C124.495 75.8141 124.068 74.0142 123.614 72.1458C123.578 71.998 123.442 71.9109 123.311 71.9513C123.179 71.9917 123.102 72.1443 123.138 72.2921C123.591 74.1583 124.018 75.956 124.418 77.6852C124.452 77.8335 124.587 77.9225 124.718 77.884C124.85 77.8455 124.93 77.694 124.895 77.5457Z" fill="#482D1F"/>
<defs>
<filter id="filter0_f_522_5463" x="0" y="132" width="402" height="159" filterUnits="userSpaceOnUse" color-interpolation-filters="sRGB">
<feFlood flood-opacity="0" result="BackgroundImageFix"/>
<feBlend mode="normal" in="SourceGraphic" in2="BackgroundImageFix" result="shape"/>
<feGaussianBlur stdDeviation="25" result="effect1_foregroundBlur_522_5463"/>
</filter>
</defs>
</svg>
