<svg width="640" height="640" viewBox="0 0 640 640" fill="none" xmlns="http://www.w3.org/2000/svg">
<g clip-path="url(#clip0_1237_5545)">
<path d="M320 640C496.731 640 640 496.731 640 320C640 143.269 496.731 0 320 0C143.269 0 0 143.269 0 320C0 496.731 143.269 640 320 640Z" fill="#F2F2F2"/>
<mask id="mask0_1237_5545" style="mask-type:luminance" maskUnits="userSpaceOnUse" x="0" y="0" width="640" height="640">
<path d="M320 640C496.731 640 640 496.731 640 320C640 143.269 496.731 0 320 0C143.269 0 0 143.269 0 320C0 496.731 143.269 640 320 640Z" fill="white"/>
</mask>
<g mask="url(#mask0_1237_5545)">
<path d="M411.3 319C415.968 303.767 416.324 287.539 412.326 272.116C408.329 256.694 400.136 242.681 388.656 231.633C377.177 220.585 362.86 212.935 347.296 209.532C331.731 206.129 315.528 207.106 300.486 212.355C285.443 217.604 272.149 226.918 262.08 239.265C252.012 251.612 245.562 266.508 243.446 282.299C241.331 298.09 243.634 314.159 250.099 328.72C256.563 343.282 266.937 355.767 280.068 364.789L227.449 496.682L485.935 474.776C485.935 474.776 354.991 404.476 353.312 376.387C366.969 372.361 379.414 365.011 389.534 354.996C399.653 344.981 407.132 332.614 411.3 319Z" fill="#FFD665" fill-opacity="0.45"/>
<path d="M473.129 442.663L493.15 433.414C493.15 433.414 516.022 436.33 522.844 462.135C529.666 487.94 560.814 626.184 560.814 626.184C560.814 626.184 579.061 644.191 568.603 669.022C568.603 669.022 572.246 696.522 560.814 700.665C549.382 704.808 472.793 763.93 472.793 763.93L473.13 442.664L473.129 442.663Z" fill="#00BE7B"/>
<path d="M412.83 406.641L354.501 376.199C342.567 435.583 287.575 437.773 275.641 378.39L237.583 406.641L157.262 433.414L168.945 744.838L331.979 744.368L331.991 744.838H481.468L493.151 433.414L412.83 406.641Z" fill="#00BE7B"/>
<path d="M177.284 442.663L157.263 433.414C157.263 433.414 134.391 436.33 127.569 462.135C120.747 487.94 133.41 637.135 133.41 637.135C133.41 637.135 115.163 655.142 125.621 679.973C125.621 679.973 121.978 707.473 133.41 711.616C144.842 715.759 177.283 717.59 177.283 717.59V442.663H177.284Z" fill="#00BE7B"/>
<path d="M256.325 252.572L250.382 313.202C250.382 313.202 188.018 192.194 265.574 169.818C265.574 169.818 258.021 159.591 268.982 156.188C279.943 152.785 383.856 136.468 392.139 187.342C392.139 187.342 446.424 220.987 429.995 256.984L410.638 299.3L393.114 300.274C393.114 300.274 392.62 219.705 365.854 222.387C339.088 225.069 256.325 252.572 256.325 252.572Z" fill="#090814"/>
</g>
</g>
<defs>
<clipPath id="clip0_1237_5545">
<rect width="640" height="640" fill="white"/>
</clipPath>
</defs>
</svg>
