<svg width="45" height="45" viewBox="0 0 45 45" fill="none" xmlns="http://www.w3.org/2000/svg">
<g clip-path="url(#clip0_110_4464)">
<rect width="45" height="45" rx="22.5" fill="url(#paint0_linear_110_4464)"/>
<path d="M27.1484 26.0996V27.8996C27.1484 30.2996 30.5984 31.3496 30.5984 31.3496C30.5984 31.3496 26.6234 34.3496 22.4984 34.3496C18.3734 34.3496 14.3984 31.3496 14.3984 31.3496C14.3984 31.3496 17.8756 30.2996 17.8484 27.8996C17.8213 25.4996 17.8394 24.0896 17.8213 19.9778C15.6715 17.1913 15.8095 15.3211 16.985 14.0059C20.9234 9.59963 31.6484 11.0996 31.6484 11.0996C31.6484 11.0996 32.6492 21.8986 30.3734 25.0496C29.3984 26.3996 27.1484 26.0996 27.1484 26.0996Z" fill="url(#paint1_linear_110_4464)"/>
<path style="mix-blend-mode:multiply" opacity="0.6" d="M27.1484 26.1008C23.8484 25.7258 21.8984 24.3008 21.8984 24.3008C23.1296 26.1222 25.0058 27.4087 27.1484 27.9008V26.1008Z" fill="url(#paint2_linear_110_4464)"/>
<path d="M38.25 35.897C39.678 38.8005 40.5 45.497 40.5 45.497H4.5C4.5 45.497 5.3223 38.7998 6.75 35.897C8.1777 32.9942 16.515 30.3018 16.515 30.3018C18.122 33.6008 26.9412 33.6008 28.4807 30.3008C28.4807 30.3008 36.822 32.9934 38.25 35.897Z" fill="url(#paint3_linear_110_4464)"/>
<path d="M21.8984 41.6996C21.8984 41.5809 21.9336 41.4649 21.9996 41.3663C22.0655 41.2676 22.1592 41.1907 22.2688 41.1453C22.3785 41.0999 22.4991 41.088 22.6155 41.1111C22.7319 41.1343 22.8388 41.1914 22.9227 41.2753C23.0066 41.3593 23.0638 41.4662 23.0869 41.5826C23.1101 41.6989 23.0982 41.8196 23.0528 41.9292C23.0073 42.0389 22.9304 42.1326 22.8318 42.1985C22.7331 42.2644 22.6171 42.2996 22.4984 42.2996C22.3393 42.2996 22.1867 42.2364 22.0742 42.1239C21.9617 42.0113 21.8984 41.8587 21.8984 41.6996ZM21.8984 38.6996C21.8984 38.5809 21.9336 38.4649 21.9996 38.3663C22.0655 38.2676 22.1592 38.1907 22.2688 38.1453C22.3785 38.0999 22.4991 38.088 22.6155 38.1111C22.7319 38.1343 22.8388 38.1914 22.9227 38.2753C23.0066 38.3593 23.0638 38.4662 23.0869 38.5826C23.1101 38.6989 23.0982 38.8196 23.0528 38.9292C23.0073 39.0389 22.9304 39.1326 22.8318 39.1985C22.7331 39.2644 22.6171 39.2996 22.4984 39.2996C22.3393 39.2996 22.1867 39.2364 22.0742 39.1239C21.9617 39.0114 21.8984 38.8587 21.8984 38.6996ZM21.8984 35.6996C21.8984 35.5809 21.9336 35.4649 21.9996 35.3663C22.0655 35.2676 22.1592 35.1907 22.2688 35.1453C22.3785 35.0999 22.4991 35.088 22.6155 35.1111C22.7319 35.1343 22.8388 35.1914 22.9227 35.2753C23.0066 35.3593 23.0638 35.4662 23.0869 35.5826C23.1101 35.6989 23.0982 35.8196 23.0528 35.9292C23.0073 36.0389 22.9304 36.1326 22.8318 36.1985C22.7331 36.2644 22.6171 36.2996 22.4984 36.2996C22.3393 36.2996 22.1867 36.2364 22.0742 36.1239C21.9617 36.0114 21.8984 35.8587 21.8984 35.6996V35.6996Z" fill="white"/>
<path d="M19.6734 15.4817C19.1964 15.0721 18.6168 14.7962 17.7975 15.2219C15.8551 16.2304 17.3251 20.1004 19.0501 20.1004C19.5001 20.1004 19.7239 21.5137 17.7204 22.5004C17.7204 20.9254 15.3204 17.0254 15.1104 13.4746C12.6954 12.5753 13.2954 8.97728 14.9533 8.97728C14.6887 5.67908 19.9704 3.97538 22.0155 5.86823C24.0954 3.37538 29.3454 4.65038 29.6623 6.81308C33.2724 4.88603 35.6454 10.4254 32.2651 12.5758C30.8742 13.4608 27.6204 13.7975 22.9234 13.7975C22.2144 13.7975 21.8172 13.9736 22.0155 14.8504C22.3993 16.5493 21.5082 17.6194 19.6734 15.4817Z" fill="url(#paint4_linear_110_4464)"/>
</g>
<defs>
<linearGradient id="paint0_linear_110_4464" x1="22.5" y1="45" x2="22.5" y2="0" gradientUnits="userSpaceOnUse">
<stop stop-color="#FFC9B3"/>
<stop offset="1" stop-color="#FFD2C2"/>
</linearGradient>
<linearGradient id="paint1_linear_110_4464" x1="23.133" y1="10.8535" x2="23.133" y2="34.3496" gradientUnits="userSpaceOnUse">
<stop stop-color="#E6864E"/>
<stop offset="1" stop-color="#EB965E"/>
</linearGradient>
<linearGradient id="paint2_linear_110_4464" x1="26.1562" y1="24.9776" x2="25.2367" y2="28.4594" gradientUnits="userSpaceOnUse">
<stop stop-color="#E07A3F"/>
<stop offset="1" stop-color="#EB9154"/>
</linearGradient>
<linearGradient id="paint3_linear_110_4464" x1="22.5" y1="30.3008" x2="22.5" y2="45.497" gradientUnits="userSpaceOnUse">
<stop stop-color="#1D0024"/>
<stop offset="1" stop-color="#100014"/>
</linearGradient>
<linearGradient id="paint4_linear_110_4464" x1="23.6976" y1="4.5" x2="23.6976" y2="22.5004" gradientUnits="userSpaceOnUse">
<stop stop-color="#1D0024"/>
<stop offset="1" stop-color="#100014"/>
</linearGradient>
<clipPath id="clip0_110_4464">
<rect width="45" height="45" rx="22.5" fill="white"/>
</clipPath>
</defs>
</svg>
