<svg width="569" height="403" viewBox="0 0 569 403" fill="none" xmlns="http://www.w3.org/2000/svg">
<g clip-path="url(#clip0_110_3214)">
<path opacity="0.1" d="M450.037 345.819C514.522 345.819 566.797 335.663 566.797 323.136C566.797 310.609 514.522 300.453 450.037 300.453C385.553 300.453 333.277 310.609 333.277 323.136C333.277 335.663 385.553 345.819 450.037 345.819Z" fill="#00BE7B"/>
<g opacity="0.5">
<path d="M350.024 57.182C348.45 57.6293 346.522 58.7943 345.572 61.9803C343.71 68.2252 348.036 72.4713 346.611 78.9813C346.215 80.7082 345.462 82.3332 344.401 83.752C342.661 86.1097 340.771 87.2251 338.937 88.876C336.611 90.9852 334.944 93.7214 334.137 96.7554C333.252 100.104 333.179 103.615 333.921 106.998C334.573 109.825 335.684 111.885 336.656 114.176C337.865 117.099 338.809 120.124 339.479 123.215C339.846 124.72 340.054 126.26 340.097 127.809C340.07 129.867 339.885 131.919 339.545 133.949L336.899 152.402C336.497 154.815 336.255 157.252 336.175 159.696C336.21 162.146 336.493 164.586 337.02 166.979C337.949 171.86 338.948 176.918 341.075 179.502C343.202 182.086 346.826 181.159 349.052 175.93C351.168 170.927 351.218 164.251 353.085 158.907C356.029 150.486 361.879 149.354 365.128 141.32C368.243 133.59 367.288 124.159 368.868 115.369C369.972 109.069 372.409 103.326 373.839 97.1032C375.894 88.1417 375.69 78.8377 374.049 71.9468C372.801 66.2848 370.102 61.0445 366.216 56.7403C364.84 55.2218 363.365 53.869 361.636 53.731C359.797 53.5874 358.189 55.901 356.372 56.5967C354.273 57.4194 352.162 56.5746 350.024 57.182Z" fill="#00BE7B"/>
<path d="M359.985 54.2012C359.985 54.2012 356.869 133.9 343.766 180.894" stroke="#535461" stroke-width="2" stroke-miterlimit="10"/>
<path d="M345.496 62.3555C345.496 62.3555 359.5 75.0993 356.843 99.3502" stroke="#535461" stroke-width="2" stroke-miterlimit="10"/>
<path d="M333.746 98.6211C333.746 98.6211 356.732 103.243 355.025 116.986" stroke="#535461" stroke-width="2" stroke-miterlimit="10"/>
<path d="M374.089 71.7812C374.089 71.7812 364.786 79.9201 356.5 102.973" stroke="#535461" stroke-width="2" stroke-miterlimit="10"/>
<path d="M364.999 141.453C364.999 141.453 358.652 146.422 353.559 129.023" stroke="#535461" stroke-width="2" stroke-miterlimit="10"/>
<path d="M337.613 151.618C337.613 151.618 350.557 149.928 351.75 141.828" stroke="#535461" stroke-width="2" stroke-miterlimit="10"/>
</g>
<path d="M381.316 3.72613C378.112 4.20098 374.256 5.6863 372.67 10.2637C369.56 19.2418 379.012 26.0389 376.835 35.4202C376.186 38.0018 374.818 40.3469 372.891 42.1841C369.577 45.4474 365.787 46.872 362.196 49.0861C358.606 51.3003 354.877 54.7844 353.192 60.1293C351.573 65.27 352.275 70.9462 353.96 75.1868C355.645 79.4274 358.191 82.5912 360.467 86.0809C363.233 90.3762 365.545 94.9468 367.367 99.7193C368.286 101.895 368.903 104.185 369.201 106.527C369.494 109.399 369.124 112.485 368.753 115.506L365.467 142.418C365.03 145.996 364.588 149.629 364.837 153.075C365.119 157.045 366.295 160.512 367.455 163.897C369.952 171.196 372.626 178.805 377.338 182.825C382.05 186.845 389.442 185.983 393.425 178.507C397.214 171.39 396.518 161.567 399.75 153.919C404.843 141.866 416.82 140.888 422.581 129.448C428.106 118.471 425.018 104.429 427.238 91.6743C428.829 82.536 433.138 74.3641 435.348 65.3694C438.535 52.4101 437.005 38.6889 432.796 28.3746C428.586 18.0602 421.93 10.7054 414.787 5.05683C411.76 2.65494 408.55 0.484944 404.954 0.0873881C401.131 -0.337776 398.076 2.8758 394.402 3.68747C390.127 4.57645 385.663 3.0801 381.316 3.72613Z" fill="#00BE7B"/>
<path d="M401.578 0.513672C401.578 0.513672 404.595 117.511 383.039 185.167" stroke="#535461" stroke-width="2" stroke-miterlimit="10"/>
<path d="M372.547 10.8281C372.547 10.8281 403.041 31.2581 400.428 66.6847" stroke="#535461" stroke-width="2" stroke-miterlimit="10"/>
<path d="M352.535 62.8242C352.535 62.8242 400.662 72.3545 398.762 92.3869" stroke="#535461" stroke-width="2" stroke-miterlimit="10"/>
<path d="M432.85 28.0781C432.85 28.0781 414.56 38.9612 400.152 71.9252" stroke="#535461" stroke-width="2" stroke-miterlimit="10"/>
<path d="M422.292 129.604C422.292 129.604 409.752 136.23 397.141 109.941" stroke="#535461" stroke-width="2" stroke-miterlimit="10"/>
<path d="M366.812 141.314C366.812 141.314 393.401 140.359 394.914 128.57" stroke="#535461" stroke-width="2" stroke-miterlimit="10"/>
<path d="M37.1493 319.475C37.1493 319.475 41.7786 325.548 35.0115 334.659C28.2443 343.77 22.6538 351.511 24.9242 357.209C24.9242 357.209 35.133 340.241 43.4414 340.004C51.7498 339.767 46.2919 329.679 37.1493 319.475Z" fill="#00BE7B"/>
<path opacity="0.1" d="M37.1492 319.475C37.5623 320.058 37.8897 320.698 38.1214 321.374C46.231 330.893 50.5454 339.778 42.7563 340.004C35.4974 340.214 26.7913 353.184 24.7031 356.464C24.772 356.717 24.855 356.966 24.9517 357.209C24.9517 357.209 35.1605 340.241 43.4689 340.004C51.7773 339.767 46.2918 329.679 37.1492 319.475Z" fill="black"/>
<path d="M45.7572 327.188C45.7572 329.319 45.5196 331.053 45.2048 331.053C44.8899 331.053 44.6523 329.325 44.6523 327.188C44.6523 325.051 44.9506 326.083 45.2434 326.083C45.5362 326.083 45.7572 325.056 45.7572 327.188Z" fill="#FFD037"/>
<path d="M48.7124 329.728C46.8397 330.749 45.21 331.384 45.0719 331.102C44.9338 330.821 46.3314 329.805 48.2041 328.789C50.0769 327.773 49.3366 328.513 49.4802 328.789C49.6239 329.065 50.5796 328.706 48.7124 329.728Z" fill="#FFD037"/>
<path d="M12.7126 319.475C12.7126 319.475 8.08329 325.548 14.8505 334.659C21.6176 343.77 27.1971 351.505 24.9377 357.204C24.9377 357.204 14.7289 340.236 6.4205 339.998C-1.88792 339.761 3.55895 329.679 12.7126 319.475Z" fill="#00BE7B"/>
<path opacity="0.1" d="M12.7126 319.475C12.3092 320.06 11.9911 320.699 11.7679 321.374C3.65839 330.893 -0.656024 339.778 7.13312 340.004C14.3919 340.214 23.0981 353.184 25.1863 356.464C25.1174 356.717 25.0344 356.966 24.9377 357.209C24.9377 357.209 14.7289 340.241 6.4205 340.004C-1.88792 339.767 3.55895 329.679 12.7126 319.475Z" fill="black"/>
<path d="M4.09375 327.188C4.09375 329.319 4.33129 331.053 4.64617 331.053C4.96105 331.053 5.19859 329.325 5.19859 327.188C5.19859 325.051 4.90029 326.083 4.6075 326.083C4.31472 326.083 4.09375 325.056 4.09375 327.188Z" fill="#FFD037"/>
<path d="M1.13959 329.728C3.0123 330.749 4.64194 331.384 4.78005 331.102C4.91815 330.821 3.52053 329.805 1.64782 328.789C-0.224893 327.773 0.515354 328.513 0.371724 328.789C0.228094 329.065 -0.727596 328.706 1.13959 329.728Z" fill="#FFD037"/>
<path d="M5.57031 356.414C5.57031 356.414 18.5136 356.016 22.4137 353.239C26.3137 350.461 42.3008 347.165 43.2897 351.582C44.2785 356 62.7404 373.729 48.1289 373.845C33.5173 373.961 14.177 371.57 10.2825 369.202C6.3879 366.833 5.57031 356.414 5.57031 356.414Z" fill="#A8A8A8"/>
<path opacity="0.2" d="M48.3885 372.312C33.777 372.428 14.4367 370.037 10.5421 367.668C7.5756 365.862 6.39342 359.386 6.0012 356.398H5.57031C5.57031 356.398 6.3879 366.834 10.2825 369.203C14.177 371.572 33.5173 373.968 48.1289 373.847C52.3494 373.814 53.8023 372.312 53.7249 370.092C53.1394 371.45 51.5318 372.29 48.3885 372.312Z" fill="black"/>
<path d="M542.677 316.962C543.69 316.137 544.428 315.024 544.793 313.771C545.069 312.501 544.528 310.982 543.313 310.519C541.954 310 540.501 310.938 539.402 311.894C538.302 312.849 537.037 313.931 535.595 313.727C536.336 313.055 536.891 312.203 537.205 311.254C537.518 310.305 537.58 309.291 537.385 308.31C537.323 307.904 537.151 307.522 536.888 307.206C536.131 306.4 534.767 306.747 533.861 307.382C530.988 309.403 530.187 313.302 530.171 316.813C529.883 315.549 530.126 314.229 530.115 312.948C530.104 311.667 529.751 310.187 528.657 309.514C527.979 309.149 527.217 308.969 526.447 308.989C525.155 308.939 523.718 309.072 522.834 310.016C521.73 311.187 522.022 313.158 522.978 314.434C523.934 315.709 525.381 316.532 526.718 317.426C527.789 318.063 528.703 318.933 529.392 319.972C529.473 320.116 529.539 320.267 529.591 320.424H537.684C539.497 319.501 541.177 318.336 542.677 316.962Z" fill="#00BE7B"/>
<path opacity="0.1" d="M81.0559 265.214C98.6339 287.554 91.806 320.192 80.636 346.326C76.8961 355.078 72.6646 364.337 74.2445 373.719C76.1724 385.193 86.3978 393.596 97.181 398.014C116.792 406.119 140.27 404.187 158.284 392.983C173.857 383.299 185.011 367.551 200.849 358.308C227.365 342.847 261.096 348.684 289.877 359.335C310.239 366.872 332.502 376.678 352.737 368.799C366.973 363.277 376.817 349.766 382.181 335.465C384.772 328.557 386.65 321.109 391.572 315.587C394.511 312.335 398.345 310.021 402.278 308.078C438.186 290.293 483.484 299.795 518.331 280.094C541.87 266.776 556.94 241.647 563.629 215.447C570.319 189.247 569.524 161.772 567.828 134.793C566.624 115.617 564.464 95.148 552.205 80.3446C539.24 64.6908 516.983 58.8655 496.869 61.8417C476.756 64.8178 458.515 75.4745 442.494 87.9644C422.447 103.574 403.858 123.016 379.242 129.343C362.482 133.65 344.848 131.292 327.558 130.481C298.655 129.117 269.747 132.137 241.004 135.45C213.488 138.631 185.762 142.131 159.561 151.076C141.01 157.41 126.139 168.9 108.622 176.929C97.2031 182.163 84.7516 183.61 73.9462 190.274C60.6273 198.485 48.4243 212.769 51.8493 229.478C55.0644 245.385 71.7199 253.359 81.0559 265.214Z" fill="#00BE7B"/>
<path opacity="0.1" d="M305.129 265.203C435.609 265.203 541.383 255.048 541.383 242.521C541.383 229.993 435.609 219.838 305.129 219.838C174.65 219.838 68.875 229.993 68.875 242.521C68.875 255.048 174.65 265.203 305.129 265.203Z" fill="#00BE7B"/>
<path opacity="0.1" d="M123.553 396.065C188.038 396.065 240.313 385.909 240.313 373.382C240.313 360.855 188.038 350.699 123.553 350.699C59.0681 350.699 6.79297 360.855 6.79297 373.382C6.79297 385.909 59.0681 396.065 123.553 396.065Z" fill="#00BE7B"/>
<path d="M242.909 235.447L241.059 238.136C241.059 238.136 243.075 240.825 243.268 241.162C243.462 241.499 249.152 240.996 249.152 240.996L249.654 238.981L248.815 236.629L242.909 235.447Z" fill="#E6E6F0"/>
<path d="M180.693 233.934L176.992 234.602L179.345 239.146L181.87 240.488L184.223 242.166L184.897 240.322L183.212 236.788L180.693 233.934Z" fill="#FDC2CC"/>
<path d="M241.232 190.231C241.232 190.231 260.909 194.935 264.605 200.17C264.605 200.17 267.969 203.03 264.605 208.237C261.241 213.444 256.534 225.216 256.534 225.216C256.534 225.216 253.17 236.646 251.827 237.485C250.485 238.324 242.746 238.998 242.072 235.828C242.072 235.828 246.441 228.937 246.441 225.74C246.441 222.543 253.672 207.42 253.672 207.42C253.672 207.42 237.194 205.57 231.979 206.746C226.764 207.922 234.338 188.381 241.232 190.231Z" fill="#565171"/>
<path opacity="0.1" d="M241.232 190.231C241.232 190.231 260.909 194.935 264.605 200.17C264.605 200.17 267.969 203.03 264.605 208.237C261.241 213.444 256.534 225.216 256.534 225.216C256.534 225.216 253.17 236.646 251.827 237.485C250.485 238.324 242.746 238.998 242.072 235.828C242.072 235.828 246.441 228.937 246.441 225.74C246.441 222.543 253.672 207.42 253.672 207.42C253.672 207.42 237.194 205.57 231.979 206.746C226.764 207.922 234.338 188.381 241.232 190.231Z" fill="black"/>
<path d="M237.195 194.769C237.156 195.746 237.051 196.845 236.902 198.027C235.825 206.585 232.317 219.313 232.317 219.313C232.317 219.313 228.787 226.877 227.776 231.753C226.765 236.628 219.871 237.826 219.871 237.826C219.871 237.826 201.033 240.035 197.166 239.174C193.3 238.312 187.223 241.697 184.218 241.189C181.213 240.681 179.34 233.625 179.34 233.625C184.556 233.655 189.717 232.567 194.476 230.433C202.21 226.905 213.314 228.583 213.314 228.583C214.142 228.343 214.912 227.936 215.577 227.387C216.242 226.838 216.788 226.159 217.181 225.392C218.357 222.868 218.357 207.574 218.02 206.563C215.811 199.937 215.993 195.686 216.628 193.206C216.841 192.123 217.319 191.11 218.02 190.258L237.195 194.769Z" fill="#565171"/>
<path opacity="0.1" d="M237.193 194.769C237.154 195.747 237.049 196.845 236.9 198.027C235.21 198.159 230.47 198.286 226.957 196.117C223.642 194.085 218.819 193.394 216.648 193.179C216.861 192.096 217.339 191.083 218.041 190.23L237.193 194.769Z" fill="black"/>
<path d="M239.519 192.666C238.735 194.875 237.531 197.465 237.531 197.465C237.531 197.465 231.31 198.304 226.935 195.615C222.56 192.926 215.5 192.589 215.5 192.589C216.644 191.888 217.417 189.756 217.898 187.89C218.166 186.835 218.376 185.766 218.527 184.688C218.527 184.688 239.21 188.889 240.072 189.563C240.392 189.828 240.05 191.164 239.519 192.666Z" fill="#E6E6F0"/>
<path d="M276.378 121.817L251.292 136.952L248.801 138.453V131.06L250.53 130.232L271.671 120.133C271.671 120.133 272.682 101.812 275.372 104.672C278.063 107.532 276.378 121.817 276.378 121.817Z" fill="#FDC2CC"/>
<path opacity="0.1" d="M251.292 136.952L248.801 138.454V131.061L250.53 130.232C250.644 132.486 250.899 134.73 251.292 136.952Z" fill="black"/>
<path d="M231.984 139.658L249.977 129.238C249.977 129.238 250.314 139.326 252.33 140.834C252.33 140.834 244.933 143.042 242.072 147.725L231.984 139.658Z" fill="#B45181"/>
<path opacity="0.1" d="M231.984 139.658L249.977 129.238C249.977 129.238 250.314 139.326 252.33 140.834C252.33 140.834 244.933 143.042 242.072 147.725L231.984 139.658Z" fill="black"/>
<path d="M276.217 148.543C276.217 148.543 267.66 152.27 261.992 153.639C260.717 154.024 259.383 154.177 258.053 154.092C254.186 153.418 259.064 148.57 259.064 148.57L261.097 148.256L272.013 146.555C272.013 146.555 273.19 129.747 275.206 131.094C277.222 132.442 276.217 148.543 276.217 148.543Z" fill="#FDC2CC"/>
<path d="M240.055 133.412C240.055 133.412 232.824 138.79 235.514 145.516C238.205 152.241 221.555 141.479 221.555 141.479C221.555 141.479 226.935 133.412 228.112 127.36C229.289 121.309 240.055 133.412 240.055 133.412Z" fill="#FDC2CC"/>
<path opacity="0.1" d="M239.519 192.666C236.391 191.489 233.122 190.728 229.796 190.402C224.935 189.85 220.482 188.917 217.902 187.89C218.171 186.835 218.381 185.766 218.532 184.688C218.532 184.688 239.215 188.889 240.077 189.563C240.391 189.828 240.049 191.164 239.519 192.666Z" fill="black"/>
<path opacity="0.1" d="M261.984 153.639C260.709 154.024 259.375 154.177 258.045 154.092C254.178 153.419 259.056 148.571 259.056 148.571L261.089 148.256C261.94 149.564 262.807 151.607 261.984 153.639Z" fill="black"/>
<path d="M228.283 136.438C228.283 136.438 221.726 136.272 219.373 138.962C217.019 141.651 217.522 148.9 217.522 148.9C217.522 148.9 217.03 163.417 220.715 171.539C220.837 171.801 220.85 172.1 220.754 172.373C220.715 172.472 220.715 172.411 220.715 172.411C220.715 172.411 218.362 183.002 216.008 184.852C213.655 186.701 221.052 188.888 229.819 189.893C238.586 190.898 242.094 193.421 242.094 193.421C242.094 193.421 243.607 191.765 243.751 188.043C243.895 184.322 241.414 157.282 241.414 157.282C241.414 157.282 250.662 159.634 256.214 156.78C256.214 156.78 258.738 158.127 261.092 154.428C263.445 150.728 259.434 146.697 259.434 146.697C259.434 146.697 255.733 150.397 245.475 145.521C235.216 140.646 231.471 136.273 228.283 136.438Z" fill="#B45181"/>
<path d="M178.001 234.271H175.984V237.132L178.001 241.67C178.001 241.67 180.691 242.173 180.862 242.173C181.034 242.173 183.216 241.67 183.216 241.67L183.89 240.494C183.89 240.494 176.487 237.629 178.001 234.271Z" fill="#E6E6F0"/>
<path d="M241.23 236.959L238.203 243.685L250.986 249.758L261.079 250.095C261.079 250.095 261.919 247.743 258.554 246.567L255.864 246.064C255.864 246.064 252.334 239.676 251.997 236.678C251.997 236.678 248.633 237.351 248.13 239.869C248.125 239.814 243.418 242.166 241.23 236.959Z" fill="#B45181"/>
<path d="M176.488 233.598L175.46 234.437L170.941 238.136L181.366 251.94C181.366 251.94 187.249 254.464 189.945 251.94C189.945 251.94 191.602 250.284 187.928 248.915C187.928 248.915 185.067 249.417 185.067 246.562C185.067 243.708 185.741 240.682 186.724 240.008C186.724 240.008 184.2 239.169 183.531 239.843C183.017 240.409 182.565 241.029 182.183 241.692C182.183 241.692 176.151 239.313 176.488 233.598Z" fill="#B45181"/>
<path opacity="0.1" d="M227.779 127.698C227.609 128.551 227.384 129.392 227.105 130.216C227.979 132.317 229.637 133.994 231.728 134.892C233.819 135.79 236.177 135.838 238.303 135.026C238.747 134.568 239.221 134.142 239.723 133.75C239.723 133.75 228.956 121.647 227.779 127.698Z" fill="black"/>
<path opacity="0.1" d="M226.852 150.148C226.852 150.148 232.066 157.039 239.635 157.211L226.852 150.148Z" fill="black"/>
<g opacity="0.1">
<path d="M258.017 156.895C257.911 156.866 257.808 156.827 257.708 156.779C257.546 156.864 257.38 156.943 257.211 157.017C257.484 157.011 257.755 156.971 258.017 156.895Z" fill="black"/>
<path d="M259.806 147.388C259.623 147.154 259.428 146.929 259.221 146.715C259.221 146.715 258.116 147.819 255.387 148.029C256.89 148.178 258.407 147.958 259.806 147.388Z" fill="black"/>
<path d="M242.91 157.283L242.943 157.642C245.162 158.053 247.416 158.238 249.672 158.194C247.394 158.111 245.129 157.806 242.91 157.283Z" fill="black"/>
<path d="M231.309 189.904C222.564 188.894 215.167 186.713 217.498 184.863C219.829 183.013 222.205 172.423 222.205 172.423C222.205 172.423 222.205 172.484 222.243 172.384C222.34 172.112 222.326 171.813 222.205 171.55C218.52 163.406 219.012 148.912 219.012 148.912C219.012 148.912 218.509 141.684 220.862 138.973C222.613 136.969 226.696 136.554 228.668 136.472C228.484 136.457 228.299 136.457 228.116 136.472C228.116 136.472 221.558 136.306 219.205 138.995C216.852 141.684 217.354 148.934 217.354 148.934C217.354 148.934 216.863 163.45 220.547 171.572C220.669 171.835 220.683 172.134 220.586 172.406C220.547 172.506 220.547 172.445 220.547 172.445C220.547 172.445 218.211 183.002 215.835 184.852C213.46 186.702 220.879 188.888 229.646 189.893C238.413 190.898 241.921 193.421 241.921 193.421C242.097 193.21 242.252 192.983 242.385 192.742C240.678 191.92 237.164 190.567 231.309 189.904Z" fill="black"/>
</g>
<path d="M235.514 135.263C240.344 135.263 244.259 131.349 244.259 126.522C244.259 121.695 240.344 117.781 235.514 117.781C230.685 117.781 226.77 121.695 226.77 126.522C226.77 131.349 230.685 135.263 235.514 135.263Z" fill="#FDC2CC"/>
<path opacity="0.1" d="M247.962 122.614C247.238 124.425 245.078 125.109 243.184 125.579C240.477 126.241 237.56 126.893 234.969 125.866C234.633 125.677 234.246 125.602 233.864 125.65C233.556 125.774 233.299 125.998 233.135 126.285C230.279 130.349 230.743 135.766 230.003 140.68C229.771 142.21 229.378 143.789 228.345 144.932C226.335 147.14 222.54 147.058 220.689 149.404C219.468 150.95 219.457 153.098 219.468 155.07C219.468 157.171 219.45 159.275 219.413 161.381C219.38 162.761 219.313 164.191 218.689 165.417C217.628 167.493 215.264 168.482 213.082 169.282C211.723 169.79 210.32 170.304 208.862 170.166C207.403 170.028 205.945 169.061 205.757 167.604C205.497 165.627 207.536 164.246 208.939 162.822C211.182 160.552 212.104 157.251 212.187 154.059C212.266 152.77 212.078 151.479 211.635 150.266C211.121 149.012 210.204 147.958 209.652 146.721C207.95 142.911 210.049 138.505 212.563 135.17C215.076 131.835 218.164 128.582 218.7 124.447C218.747 123.552 218.874 122.663 219.081 121.791C219.468 120.587 220.385 117.263 221.396 116.501C223.014 115.283 224.915 114.492 226.92 114.204C228.473 113.978 230.058 114.061 231.599 113.762C233.4 113.415 235.074 112.559 236.875 112.238C240.769 111.548 244.995 116.07 246.702 119.637C247.172 120.731 248.404 121.504 247.962 122.614Z" fill="black"/>
<path d="M247.962 122.276C247.238 124.087 245.078 124.771 243.184 125.241C240.477 125.903 237.56 126.555 234.969 125.528C234.633 125.34 234.246 125.264 233.864 125.312C233.556 125.436 233.299 125.66 233.135 125.947C230.279 130.011 230.743 135.428 230.003 140.342C229.771 141.872 229.378 143.451 228.345 144.594C226.335 146.803 222.54 146.72 220.689 149.066C219.468 150.613 219.457 152.76 219.468 154.732C219.468 156.834 219.45 158.937 219.413 161.043C219.38 162.423 219.313 163.853 218.689 165.079C217.628 167.155 215.264 168.144 213.082 168.944C211.723 169.452 210.32 169.966 208.862 169.828C207.403 169.69 205.945 168.723 205.757 167.266C205.497 165.289 207.536 163.909 208.939 162.484C211.182 160.215 212.104 156.913 212.187 153.721C212.266 152.432 212.078 151.141 211.635 149.928C211.121 148.674 210.204 147.62 209.652 146.383C207.95 142.573 210.049 138.167 212.563 134.832C215.076 131.497 218.164 128.244 218.7 124.109C218.747 123.214 218.874 122.325 219.081 121.453C219.468 120.249 220.385 116.925 221.396 116.163C223.014 114.945 224.915 114.155 226.92 113.866C228.473 113.64 230.058 113.723 231.599 113.424C233.4 113.077 235.074 112.221 236.875 111.901C240.769 111.21 244.995 115.733 246.702 119.299C247.172 120.393 248.404 121.166 247.962 122.276Z" fill="#F569BC"/>
<path d="M276.215 105.475H421.596V250.776H276.215V105.475Z" fill="#F7DF1E"/>
<path d="M314.449 226.899L325.575 220.168C327.724 223.973 329.674 227.192 334.358 227.192C338.85 227.192 341.678 225.436 341.678 218.611V172.18H355.339V218.799C355.339 232.94 347.053 239.378 334.944 239.378C324.017 239.378 317.675 233.718 314.455 226.893M362.758 225.43L373.879 218.992C376.807 223.774 380.613 227.274 387.347 227.274C393.009 227.274 396.616 224.447 396.616 220.544C396.616 215.861 392.91 214.205 386.673 211.472L383.259 210.008C373.404 205.818 366.863 200.55 366.863 189.429C366.863 179.187 374.669 171.385 386.866 171.385C395.55 171.385 401.782 174.411 406.284 182.307L395.65 189.137C393.307 184.94 390.772 183.284 386.866 183.284C382.867 183.284 380.326 185.818 380.326 189.137C380.326 193.234 382.861 194.89 388.717 197.419L392.131 198.882C403.732 203.852 410.283 208.926 410.283 220.339C410.283 232.63 400.621 239.361 387.634 239.361C374.928 239.361 366.753 233.288 362.775 225.414" fill="black"/>
<path d="M485.371 331.412C485.371 331.412 479.697 331.81 476.195 325.736C475.51 324.513 474.701 323.364 473.781 322.307C472.65 320.454 472.063 318.321 472.085 316.151C472.278 311.65 467.583 287.002 467.583 287.002C467.583 287.002 468.168 277.615 463.473 271.746C460.379 267.881 455.932 256.837 453.253 249.703C453.433 249.864 453.649 249.977 453.883 250.035L453.772 249.422H453.883L452.496 241.808C450.477 239.488 448.776 236.911 447.436 234.144L447.751 234.077L451.905 233.205C451.905 233.205 458.656 223.614 459.087 218.898H459.639H460.418C466.666 218.864 472.912 219.191 479.123 219.876C479.123 219.848 479.079 219.727 479.023 219.533C478.76 218.585 478.557 217.62 478.416 216.646H478.802L482.669 216.392C482.669 216.392 495.977 201.527 491.083 198.789C486.188 196.05 481.101 211.113 481.101 211.113L479.443 211.411L478.996 211.494C479.04 211.428 479.084 211.367 479.134 211.306C479.184 211.246 457.413 210.334 454.059 205.045C454.059 205.045 444.469 197.414 444.077 192.345C444.007 191.293 443.648 190.282 443.04 189.421C442.431 188.56 441.598 187.883 440.63 187.464C439.445 186.899 438.133 186.653 436.824 186.752L432.333 187.061L432.648 187.613H432.521C432.239 186.968 432.002 186.304 431.813 185.625H431.907C431.874 185.487 431.847 185.349 431.819 185.211C433.195 184.887 434.493 184.289 435.634 183.455C436.775 182.62 437.737 181.565 438.463 180.352C439.189 179.139 439.664 177.792 439.859 176.393C440.055 174.993 439.968 173.568 439.603 172.202C440.042 172.259 440.488 172.246 440.923 172.164C442.58 171.827 443.746 170.148 443.79 168.47C443.79 168.359 443.79 168.249 443.79 168.144C443.79 168.144 443.79 168.1 443.79 168.078C443.773 167.234 443.569 166.405 443.192 165.65C442.814 164.896 442.273 164.235 441.608 163.716C440.713 162.97 439.641 162.44 438.846 161.612C437.879 160.623 437.349 159.298 436.597 158.133C435.339 156.206 433.472 154.754 431.294 154.009C429.676 153.456 427.687 153.401 426.444 154.561C425.803 155.163 425.433 156.035 424.715 156.543C423.682 157.283 422.279 157.062 421.014 157.211C419.868 157.387 418.784 157.843 417.856 158.537C416.928 159.231 416.185 160.143 415.694 161.192C415.074 162.506 414.774 163.948 414.821 165.4C414.807 166.396 414.926 167.389 415.174 168.354C415.418 169.314 415.777 170.242 416.042 171.203C416.594 173.191 416.721 175.283 417.357 177.243C417.783 178.698 418.636 179.992 419.804 180.959L419.616 181.766C419.494 181.766 416.445 182.445 414.34 187.044C412.683 190.672 407.043 194.416 404.562 195.929C404.1 196.212 403.698 196.584 403.382 197.024C403.065 197.464 402.839 197.962 402.717 198.491C402.479 199.558 402.373 200.65 402.402 201.743C402.358 204.101 402.85 207.364 404.745 211.5C409.048 220.886 412.18 224.994 412.18 224.994C412.18 224.994 412.418 227.871 412.434 230.902C412.434 233.161 412.269 235.408 411.788 236.534C411.379 237.484 411.236 239.908 411.269 242.68C411.269 247.992 411.788 254.921 411.788 254.921C411.788 254.921 413.285 255.209 415.6 255.545L417.042 280.901C417.223 283.971 416.236 286.997 414.28 289.371C413.268 290.619 412.1 291.733 410.805 292.684C406.695 295.616 397.889 326.526 397.889 326.526C397.889 326.526 398.32 326.526 399.027 326.608L396.32 334.157C396.32 334.157 407.137 342.439 413.716 340.175C414.429 339.943 415.177 339.838 415.926 339.866C417.224 339.866 420.003 338.839 418.456 337.486C415.469 334.737 412.652 331.809 410.02 328.718C410.232 328.821 410.435 328.941 410.628 329.077V329.016L410.722 329.077C410.722 329.077 410.722 328.773 410.794 328.276L410.7 328.243C410.899 326.211 411.529 321.065 412.777 320.468C414.34 319.684 425.891 296.797 425.891 296.797L437.437 267.063C437.437 267.063 446.635 282.91 454.463 285.644V292.27C454.463 292.27 458.766 311.833 460.335 313.981C461.904 316.128 460.335 324.737 460.335 324.737C460.644 325.091 460.999 325.403 461.39 325.664L460.136 332.754C460.136 332.754 469.141 332.362 484.404 337.055C484.393 337.083 490.265 334.543 485.371 331.412ZM449.364 229.108L447.458 229.583L447.082 229.677C447.044 229.439 447.016 229.301 447.016 229.301C446.579 229.498 446.109 229.613 445.629 229.638C444.954 227.499 444.564 225.281 444.469 223.04C443.828 220.358 443.438 217.622 443.304 214.868C443.304 213.443 443.541 212.201 444.077 211.5L444.712 211.549L445.154 211.969L445.188 211.996L445.414 212.201L445.652 212.411L445.69 212.444L445.944 212.67L445.989 212.709L446.248 212.93L446.541 213.173L446.607 213.228L446.917 213.476L447.22 213.719L447.292 213.774L447.629 214.028L447.701 214.078L448.021 214.316L448.077 214.354L448.441 214.614L448.53 214.674L448.916 214.939H448.95L449.325 215.188L449.414 215.249L449.817 215.508L449.905 215.563L450.281 215.795L450.353 215.839L450.784 216.093L450.889 216.154L451.336 216.403H451.369L451.806 216.635L451.911 216.69L452.375 216.922L452.468 216.966L452.899 217.165L452.982 217.203L453.468 217.413L453.584 217.463L454.087 217.667C450.966 221.102 449.364 229.108 449.364 229.108Z" fill="url(#paint0_linear_110_3214)"/>
<path d="M401.09 321.959L397.461 332.08C397.461 332.08 407.405 339.7 413.868 338.121C414.842 337.879 415.834 337.718 416.834 337.64C418.171 337.541 420.475 336.564 419.044 335.327C414.459 331.318 408.344 323.869 408.344 323.869L401.09 321.959Z" fill="#4F4D59"/>
<path d="M461.464 321.003L459.746 330.744C459.746 330.744 468.535 330.363 483.439 334.946C483.439 334.946 489.174 332.461 484.395 329.424C484.395 329.424 478.871 329.805 475.418 323.902C471.966 318 469.894 318.745 469.894 318.745L461.464 321.003Z" fill="#4F4D59"/>
<path d="M415.98 250.35L417.638 279.99C417.819 283.148 416.772 286.254 414.715 288.659C413.786 289.763 412.727 290.751 411.561 291.602C407.55 294.468 398.949 324.638 398.949 324.638C398.949 324.638 408.694 325.19 411.368 327.122C411.368 327.122 411.92 319.486 413.467 318.718C415.014 317.951 426.266 295.611 426.266 295.611L437.541 266.583C437.541 266.583 446.518 282.044 454.164 284.727V291.221C454.164 291.221 458.368 310.32 459.898 312.418C461.428 314.517 459.898 322.909 459.898 322.909C459.898 322.909 464.317 328.431 474.416 322.528C474.416 322.528 471.167 318.901 471.361 314.505C471.554 310.11 466.941 286.053 466.941 286.053C466.941 286.053 467.494 276.887 462.931 271.144C458.368 265.402 450.783 243.465 450.783 243.465L445.524 232.156L415.98 250.35Z" fill="#C48C96"/>
<g opacity="0.1">
<path d="M400.804 324.632C400.804 324.632 409.4 294.462 413.416 291.597C414.648 290.694 415.761 289.64 416.73 288.46C418.691 286.089 419.678 283.061 419.492 279.99L417.808 250.345L445.981 232.985L445.6 232.162L416.089 250.35L417.774 279.996C417.96 283.067 416.973 286.094 415.012 288.466C414.043 289.646 412.93 290.7 411.698 291.602C407.693 294.462 399.086 324.632 399.086 324.632C399.086 324.632 408.831 325.185 411.504 327.117C411.504 327.117 411.504 326.819 411.576 326.339C407.814 325.047 400.804 324.632 400.804 324.632Z" fill="black"/>
<path d="M461.754 322.915C461.754 322.915 463.284 314.511 461.754 312.424C460.224 310.337 456.02 291.227 456.02 291.227V284.722C448.38 282.05 439.397 266.578 439.397 266.578L438.734 268.312C441.325 272.42 448.236 282.613 454.307 284.733V291.227C454.307 291.227 458.511 310.326 460.041 312.424C461.571 314.522 460.041 322.915 460.041 322.915C460.041 322.915 462.174 325.599 466.88 325.234C463.361 324.942 461.754 322.915 461.754 322.915Z" fill="black"/>
</g>
<path d="M481.717 217.121L477.966 217.369L475.988 217.502V212.726L478.585 212.256L480.192 211.964C480.192 211.964 485.164 197.26 489.937 199.932C494.71 202.605 481.717 217.121 481.717 217.121Z" fill="#714B4F"/>
<path d="M421.537 177.758C421.537 177.758 419.051 187.305 418.289 193.218C417.526 199.132 436.054 194.367 436.054 194.367C436.054 194.367 428.983 185.775 433 181.192L421.537 177.758Z" fill="#714B4F"/>
<path d="M441.595 217.512L441.976 221.14L436.054 220.759L430.132 215.601L424.21 198.981L420.398 193.057L417.531 189.429L418.68 185.012C418.68 185.012 419.205 185.47 420.089 186.144C423 188.352 429.823 192.996 434.811 191.715C435.042 191.657 435.269 191.585 435.49 191.5L442.943 204.293L441.595 217.512Z" fill="#E6E6F0"/>
<path opacity="0.1" d="M420.2 183.892C420.2 183.892 417.145 184.444 415.04 189.049C413.427 192.572 407.969 196.228 405.533 197.702C405.068 197.985 404.665 198.359 404.347 198.801C404.029 199.243 403.803 199.744 403.682 200.275C403.191 202.45 403.003 206.509 405.677 212.345C409.881 221.511 412.935 225.52 412.935 225.52C412.935 225.52 413.698 234.686 412.554 237.358C411.411 240.03 412.554 254.734 412.554 254.734C412.554 254.734 432.613 258.555 439.303 254.734C445.992 250.913 445.037 236.209 445.037 236.209C445.037 236.209 451.34 249.577 453.632 249.958L452.296 242.51C452.296 242.51 444.843 234.487 444.462 224.178C444.462 224.178 442.17 214.819 444.081 212.34C444.081 212.34 476.37 215.012 478.281 212.721C478.281 212.721 457.074 211.765 453.826 206.608C453.826 206.608 444.462 199.159 444.081 194.196C444.025 193.264 443.733 192.361 443.231 191.574C442.73 190.786 442.035 190.14 441.214 189.695C439.914 188.957 438.423 188.624 436.933 188.74L432.618 189.038C432.618 189.038 440.07 202.213 439.689 203.947C439.308 205.68 440.07 219.606 440.07 219.606C440.07 219.606 431.447 201.081 427.652 198.983C423.857 196.885 419.432 188.249 419.432 188.249L420.194 183.887" fill="black"/>
<path opacity="0.1" d="M441.595 217.512L441.976 221.14L436.054 220.759L430.132 215.601L424.21 198.981L420.398 193.057L417.531 189.429L418.68 185.012C418.68 185.012 419.205 185.47 420.089 186.144L419.824 187.651C419.824 187.651 424.243 196.276 428.038 198.38C431.833 200.483 440.457 219.003 440.457 219.003C440.457 219.003 439.694 205.061 440.076 203.343C440.335 202.178 436.988 195.74 434.811 191.715C435.042 191.657 435.269 191.585 435.49 191.5L442.943 204.293L441.595 217.512Z" fill="black"/>
<path opacity="0.1" d="M477.966 217.369L475.988 217.501V212.725L478.585 212.256C477.679 213.454 477.712 215.574 477.966 217.369Z" fill="black"/>
<path d="M420.2 183.322C420.2 183.322 417.145 183.874 415.04 188.479C413.427 192.002 407.969 195.658 405.533 197.132C405.068 197.415 404.665 197.789 404.347 198.231C404.029 198.673 403.803 199.174 403.682 199.705C403.191 201.88 403.003 205.939 405.677 211.775C409.881 220.941 412.935 224.95 412.935 224.95C412.935 224.95 413.698 234.116 412.554 236.788C411.411 239.46 412.554 254.164 412.554 254.164C412.554 254.164 432.613 257.985 439.303 254.164C445.992 250.344 445.037 235.639 445.037 235.639C445.037 235.639 451.334 248.985 453.632 249.394L452.296 241.945C452.296 241.945 444.843 233.922 444.462 223.613C444.462 223.613 442.17 214.254 444.081 211.775C444.081 211.775 451.533 219.798 459.941 219.605C466.068 219.568 472.192 219.887 478.281 220.56C478.281 220.56 476.37 214.448 478.281 212.156C478.281 212.156 457.074 211.201 453.826 206.044C453.826 206.044 444.462 198.595 444.081 193.631C444.025 192.699 443.733 191.797 443.231 191.009C442.73 190.222 442.035 189.575 441.214 189.131C439.914 188.392 438.423 188.059 436.933 188.176L432.618 188.474C432.618 188.474 440.07 201.648 439.689 203.382C439.308 205.116 440.07 219.042 440.07 219.042C440.07 219.042 431.447 200.506 427.652 198.407C423.857 196.309 419.432 187.695 419.432 187.695L420.194 183.333" fill="#C48C96"/>
<path opacity="0.1" d="M415.979 203.371C415.979 203.371 420.564 218.832 423.238 220.748C425.912 222.664 442.153 232.398 446.932 230.107C446.932 230.107 448.081 235.838 446.379 237.174C446.379 237.174 428.564 236.479 428.42 236.412C428.42 236.412 416.764 234.883 414.852 229.157C412.941 223.431 410.648 213.696 410.648 213.696L415.979 203.371Z" fill="black"/>
<path d="M440.45 220.848C440.819 220.848 441.118 220.42 441.118 219.893C441.118 219.365 440.819 218.938 440.45 218.938C440.081 218.938 439.781 219.365 439.781 219.893C439.781 220.42 440.081 220.848 440.45 220.848Z" fill="#BA7855"/>
<path d="M442.356 227.53C442.725 227.53 443.024 227.102 443.024 226.574C443.024 226.047 442.725 225.619 442.356 225.619C441.987 225.619 441.688 226.047 441.688 226.574C441.688 227.102 441.987 227.53 442.356 227.53Z" fill="#BA7855"/>
<g opacity="0.1">
<path d="M413.897 253.956C413.897 253.956 412.748 239.252 413.897 236.579C415.046 233.907 414.278 224.741 414.278 224.741C414.278 224.741 411.223 220.732 407.019 211.566C404.34 205.73 404.533 201.672 405.025 199.496C405.146 198.965 405.372 198.464 405.69 198.022C406.007 197.58 406.411 197.207 406.875 196.923C409.312 195.432 414.764 191.793 416.383 188.271C417.57 185.686 419.056 184.378 420.128 183.726L420.2 183.307C420.2 183.307 417.145 183.859 415.04 188.464C413.427 191.987 407.969 195.642 405.533 197.116C405.068 197.4 404.665 197.774 404.347 198.216C404.029 198.657 403.803 199.159 403.682 199.689C403.191 201.865 403.003 205.923 405.677 211.759C409.881 220.925 412.935 224.934 412.935 224.934C412.935 224.934 413.698 234.1 412.554 236.772C411.411 239.445 412.554 254.149 412.554 254.149C412.554 254.149 426.884 256.877 435.358 255.413C426.801 256.435 413.897 253.956 413.897 253.956Z" fill="black"/>
<path d="M439.684 203.372C439.425 204.548 439.684 211.467 439.9 215.708C440.822 217.591 441.402 218.844 441.402 218.844C441.402 218.844 440.64 204.902 441.021 203.185C441.386 201.528 434.674 189.568 434.005 188.387L432.613 188.481C432.613 188.481 440.071 201.655 439.684 203.372Z" fill="black"/>
<path d="M461.278 219.412C452.87 219.605 445.418 211.582 445.418 211.582C445.195 211.893 445.032 212.243 444.938 212.615C447.147 214.669 453.224 219.754 459.941 219.599C466.068 219.563 472.192 219.881 478.282 220.555C478.282 220.555 478.243 220.428 478.182 220.212C472.567 219.632 466.923 219.365 461.278 219.412Z" fill="black"/>
<path d="M446.363 235.453C446.363 235.453 446.441 236.646 446.396 238.435C448.385 242.377 452.004 249.119 453.622 249.39L453.34 247.822C450.562 244.332 446.363 235.453 446.363 235.453Z" fill="black"/>
</g>
<path d="M451.721 233.525L447.661 234.381L444.457 235.054L446.175 230.278L447.374 229.98L449.235 229.516C449.235 229.516 451.909 216.148 457.262 217.104C462.615 218.059 451.721 233.525 451.721 233.525Z" fill="#714B4F"/>
<path opacity="0.1" d="M447.665 234.397L444.461 235.07L446.179 230.294L447.378 229.996C447.643 231.447 447.74 232.924 447.665 234.397Z" fill="black"/>
<path d="M415.979 202.99C415.979 202.99 420.564 218.451 423.238 220.367C425.912 222.283 442.153 232.017 446.932 229.726C446.932 229.726 448.081 235.457 446.379 236.793C446.379 236.793 428.564 236.098 428.42 236.032C428.42 236.032 416.764 234.502 414.852 228.776C412.941 223.05 410.648 213.316 410.648 213.316L415.979 202.99Z" fill="#C48C96"/>
<path opacity="0.1" d="M421.726 178.166C421.726 178.166 421.34 179.662 420.82 181.838C421.878 183.841 423.566 185.44 425.624 186.388C427.682 187.336 429.995 187.581 432.206 187.083C431.747 185.123 431.847 183.141 433.189 181.606L421.726 178.166Z" fill="black"/>
<path d="M429.753 186.951C435.452 186.951 440.072 182.333 440.072 176.637C440.072 170.94 435.452 166.322 429.753 166.322C424.054 166.322 419.434 170.94 419.434 176.637C419.434 182.333 424.054 186.951 429.753 186.951Z" fill="#714B4F"/>
<path opacity="0.1" d="M438.713 173.799C439.46 174.008 440.243 174.057 441.011 173.943C441.806 173.727 442.509 173.259 443.014 172.608C443.518 171.958 443.796 171.16 443.806 170.337C443.792 169.514 443.593 168.704 443.225 167.968C442.857 167.231 442.329 166.586 441.679 166.08C440.807 165.351 439.762 164.837 438.961 164.026C438.017 163.059 437.498 161.767 436.752 160.63C435.523 158.749 433.702 157.332 431.576 156.605C429.996 156.053 428.057 156.008 426.841 157.157C426.217 157.748 425.852 158.592 425.156 159.095C424.146 159.813 422.776 159.603 421.544 159.747C420.427 159.916 419.37 160.357 418.465 161.031C417.559 161.705 416.833 162.591 416.351 163.612C415.408 165.692 415.228 168.038 415.843 170.238C416.08 171.176 416.434 172.082 416.688 172.998C417.24 174.942 417.351 176.979 417.969 178.895C418.588 180.811 419.864 182.689 421.798 183.263C421.645 181.112 422.071 178.96 423.03 177.029C423.188 176.607 423.499 176.26 423.902 176.057C424.247 175.969 424.608 175.969 424.952 176.057C427.375 176.416 429.847 175.916 431.94 174.644C432.675 174.202 433.818 172.678 434.597 172.529C435.603 172.358 437.663 173.567 438.713 173.799Z" fill="black"/>
<path d="M438.713 173.416C439.46 173.625 440.243 173.674 441.011 173.56C441.806 173.345 442.509 172.876 443.014 172.226C443.518 171.575 443.796 170.777 443.806 169.954C443.792 169.131 443.593 168.321 443.225 167.585C442.857 166.848 442.329 166.203 441.679 165.697C440.807 164.968 439.762 164.455 438.961 163.643C438.017 162.677 437.498 161.385 436.752 160.247C435.523 158.366 433.702 156.95 431.576 156.222C429.996 155.67 428.057 155.626 426.841 156.774C426.217 157.365 425.852 158.21 425.156 158.712C424.146 159.43 422.776 159.22 421.544 159.364C420.427 159.533 419.37 159.974 418.465 160.648C417.559 161.322 416.833 162.209 416.351 163.229C415.408 165.309 415.228 167.655 415.843 169.855C416.08 170.793 416.434 171.699 416.688 172.616C417.24 174.559 417.351 176.597 417.969 178.513C418.588 180.429 419.864 182.306 421.798 182.88C421.65 180.73 422.079 178.58 423.041 176.652C423.199 176.23 423.51 175.882 423.913 175.68C424.258 175.592 424.619 175.592 424.963 175.68C427.386 176.038 429.858 175.538 431.951 174.267C432.686 173.825 433.829 172.301 434.608 172.152C435.603 171.975 437.663 173.184 438.713 173.416Z" fill="#503F43"/>
<path d="M541.654 139.377L533.235 233.631L495.394 244.122L457.658 233.631L449.25 139.377H541.654Z" fill="#E44D26"/>
<path d="M495.449 236.103L526.026 227.633L533.207 147.084H495.449V236.103Z" fill="#F16529"/>
<path d="M479.089 170.209H495.451V158.646H466.449L466.725 161.75L469.57 193.609H495.457V182.047H480.149L479.089 170.209ZM481.718 199.39H470.117L471.736 217.545L495.402 224.138H495.457V212.074H495.407L482.525 208.595L481.718 199.39Z" fill="#EBEBEB"/>
<path d="M457.852 113.756H463.729V119.559H469.104V113.756H474.982V131.337H469.104V125.451H463.729V131.337H457.852V113.756ZM482.711 119.587H477.534V113.756H493.765V119.587H488.588V131.337H482.716V119.587H482.711ZM496.344 113.756H502.476L506.249 119.935L510.017 113.756H516.149V131.337H510.293V122.624L506.249 128.874H506.15L502.101 122.624V131.337H496.344V113.756ZM519.071 113.756H524.949V125.522H533.235V131.331H519.088V113.756H519.071Z" fill="black"/>
<path d="M495.41 193.609H509.652L508.309 208.606L495.41 212.084V224.138L519.126 217.567L519.297 215.613L522.015 185.172L522.297 182.069H495.41V193.631V193.609ZM495.41 170.181V170.208H523.352L523.584 167.608L524.136 161.744L524.412 158.641H495.41V170.175V170.181Z" fill="white"/>
<path d="M202.59 208.959C201.513 205.806 199.961 201.781 198.723 200.865C198.649 200.805 198.567 200.755 198.48 200.716H198.326V196.823L195.42 197.287C194.953 195.88 194.601 194.438 194.365 192.974C194.645 193.254 195.001 193.445 195.39 193.523C195.778 193.6 196.181 193.561 196.547 193.41C196.497 193.333 196.458 193.25 196.414 193.168L196.547 193.112C196.089 192.306 195.848 191.395 195.845 190.467C195.869 189.621 196.005 188.782 196.248 187.972C196.768 186.177 197.646 184.499 198.138 182.699C198.452 181.536 198.601 180.335 198.58 179.132C198.595 177.092 198.129 175.078 197.221 173.251C196.995 172.725 196.642 172.264 196.193 171.909C195.784 171.683 195.364 171.478 194.934 171.296C194.213 170.811 193.593 170.193 193.105 169.474C191.042 166.963 188.279 165.12 185.167 164.179C184.357 163.878 183.478 163.81 182.631 163.98C180.681 164.532 179.969 166.923 178.389 168.188C176.991 169.292 175.074 169.419 173.328 169.795C171.536 170.099 169.887 170.963 168.616 172.263C167.79 173.207 167.34 174.421 167.351 175.675C167.304 176.26 167.407 176.848 167.652 177.381C167.897 177.915 168.274 178.377 168.749 178.723C169.289 179.078 169.901 179.309 170.541 179.4C171.181 179.49 171.833 179.438 172.45 179.248C171.968 180.913 171.835 182.66 172.06 184.379C172.285 186.098 172.863 187.752 173.758 189.238C174.652 190.723 175.845 192.008 177.259 193.011C178.674 194.014 180.281 194.714 181.979 195.067L182.322 195.674C183.367 197.622 184.159 199.694 184.681 201.842C182.007 203.36 179.085 204.779 177.322 204.912C177.253 205.601 177.125 206.282 176.941 206.949C176.53 208.625 175.738 210.184 174.627 211.505C172.229 214.199 161.44 234.574 161.44 234.574C161.44 234.574 161.098 235.386 160.545 236.783C153.845 237.605 142.912 238.793 139.857 238.18L127.87 226.794C127.87 226.794 124.003 229.748 124.334 233.337L122.174 231.283C122.174 231.283 110.783 239.969 128.77 245.639L156.137 248.814C153.53 256.677 151.099 265.826 151.85 270.807H152.077C152.6 270.806 153.123 270.765 153.64 270.685L153.59 271.569L150.955 318.74C150.955 318.74 150.353 327.425 158.446 331.324C158.446 331.324 168.34 360.384 164.44 363.68C164.44 363.68 164.904 363.923 165.683 364.266L157.546 371.444C157.546 371.444 151.552 372.94 148.254 372.642C147.674 372.563 147.086 372.7 146.601 373.027C146.116 373.354 145.768 373.848 145.625 374.414C145.625 374.475 145.625 374.536 145.591 374.602V374.679C145.591 374.74 145.591 374.806 145.591 374.873C145.591 374.939 145.591 374.922 145.591 374.944C145.591 374.966 145.591 375.055 145.591 375.11V375.182C145.591 375.248 145.591 375.309 145.63 375.375V375.447C145.648 375.517 145.671 375.585 145.696 375.651V375.717C145.724 375.784 145.757 375.85 145.79 375.916V375.96C145.829 376.027 145.868 376.093 145.912 376.159L145.95 376.214C145.998 376.284 146.052 376.354 146.111 376.424L146.155 376.479C146.216 376.551 146.282 376.617 146.354 376.689H146.387L146.608 376.877L146.658 376.916L146.928 377.109L146.994 377.153L147.309 377.335H147.359L147.696 377.501H147.746L148.138 377.661L148.221 377.694L148.657 377.838H148.729L149.199 377.959H149.237L149.79 378.064H149.895L150.447 378.147H150.552L151.187 378.208C152.419 378.301 154.082 378.335 156.005 378.329C156.005 378.329 156.005 378.379 156.005 378.401C156.005 378.423 156.005 378.511 156.005 378.567V378.638C156.005 378.705 156.004 378.765 156.043 378.832V378.903C156.062 378.973 156.084 379.041 156.109 379.108V379.174C156.137 379.24 156.17 379.306 156.203 379.373V379.417C156.242 379.483 156.281 379.549 156.325 379.616L156.364 379.671C156.411 379.741 156.465 379.811 156.524 379.881L156.568 379.936C156.629 380.008 156.695 380.074 156.767 380.146H156.794L157.015 380.333L157.065 380.372L157.336 380.565L157.402 380.61L157.711 380.792H157.761L158.098 380.957H158.148L158.54 381.117L158.623 381.151L159.059 381.294H159.131L159.601 381.416H159.639L160.192 381.521H160.297L160.849 381.603H160.954L161.589 381.664C169.384 382.266 194.26 380.466 194.26 380.466V380.394V380.306C194.508 379.146 195.702 372.404 191.459 367.418C191.586 367.286 191.708 367.148 191.824 367.004C191.824 367.004 188.509 361.311 190.326 359.517C192.144 357.722 181.548 326.84 181.548 326.84C181.548 326.84 175.853 317.851 179.151 307.664C182.449 297.476 178.853 286.394 178.853 286.394C178.853 286.394 186.725 284.064 186.868 274.385C186.868 274.092 186.868 273.789 186.868 273.485C187.033 273.509 187.199 273.52 187.365 273.518C187.476 273.526 187.587 273.526 187.697 273.518C187.697 273.518 186.2 268.123 187.995 264.231C189.791 260.338 193.691 263.932 197.287 248.052C199.889 236.562 202.176 223.349 203.248 216.916C203.688 214.25 203.462 211.517 202.59 208.959ZM134.189 242.641L131.455 240.046C132.361 240.421 133.366 240.786 134.488 241.15L144.79 242.36C140.194 242.774 135.902 243.006 134.189 242.658V242.641Z" fill="url(#paint1_linear_110_3214)"/>
<path d="M160.281 241.129C160.281 241.129 139.079 244.072 134.659 243.189L122.882 232.002C122.882 232.002 111.69 240.538 129.362 246.132L162.341 249.958L160.281 241.129Z" fill="#FDC2CC"/>
<path opacity="0.05" d="M160.281 241.129C160.281 241.129 139.079 244.072 134.659 243.189L122.882 232.002C122.882 232.002 111.69 240.538 129.362 246.132L162.341 249.958L160.281 241.129Z" fill="black"/>
<path d="M118.777 248.555L72.9588 235.855L62.75 121.393H174.941L164.722 235.839L118.777 248.555Z" fill="#264DE4"/>
<path d="M155.973 228.557L164.706 130.758H118.855V238.821L155.973 228.557Z" fill="#2965F1"/>
<path d="M86.1827 173.192L87.4422 187.227H118.875V173.192H86.1827ZM83.6526 144.777L84.9287 158.813H118.87V144.777H83.625H83.6526ZM118.87 209.651H118.809L103.164 205.427L102.164 194.229H88.0389L90.0055 216.271L118.776 224.272H118.842L118.87 209.651Z" fill="#EBEBEB"/>
<path d="M89.1562 90.2734H106.165V97.3853H96.2659V104.497H106.165V111.609H89.1562V90.2734ZM109.596 90.2734H126.605V96.4576H116.683V97.6945H126.583V111.918H109.568V105.425H119.468V104.188H109.568V90.2734H109.596ZM130.035 90.2734H147.045V96.4576H137.095V97.6945H146.995V111.918H129.98V105.425H139.88V104.188H129.98V90.2734H130.035Z" fill="black"/>
<path d="M151.448 173.192L153.983 144.777H118.777V158.813H138.571L137.295 173.169H118.777V187.205H136.074L134.416 205.427L118.777 209.662V224.266L147.57 216.288L147.779 213.913L151.094 176.952L151.437 173.18L151.448 173.192Z" fill="white"/>
<path d="M167.941 360.627L157.633 369.749C157.633 369.749 151.744 371.223 148.507 370.925C145.27 370.627 143.795 375.927 151.451 376.518C159.108 377.109 183.547 375.342 183.547 375.342C183.547 375.342 185.9 365.922 178.835 360.627H167.941Z" fill="#47465A"/>
<path opacity="0.05" d="M167.941 360.627L157.633 369.749C157.633 369.749 151.744 371.223 148.507 370.925C145.27 370.627 143.795 375.927 151.451 376.518C159.108 377.109 183.547 375.342 183.547 375.342C183.547 375.342 185.9 365.922 178.835 360.627H167.941Z" fill="black"/>
<path opacity="0.3" d="M183.911 371.273C183.893 372.347 183.769 373.416 183.54 374.465C183.54 374.465 159.101 376.232 151.445 375.641C147.76 375.359 146.197 373.985 145.921 372.67C145.584 374.183 146.92 376.177 151.445 376.536C159.101 377.126 183.54 375.359 183.54 375.359C183.828 374.017 183.953 372.645 183.911 371.273Z" fill="white"/>
<path d="M180.008 193.771C180.008 193.771 186.488 202.892 184.129 209.077C181.77 215.261 196.498 202.6 196.498 202.6C196.498 202.6 191.785 194.323 194.144 185.488L180.008 193.771Z" fill="#FDC2CC"/>
<path d="M178.239 364.16L167.941 373.282C167.941 373.282 162.053 374.756 158.815 374.458C155.578 374.16 154.103 379.461 161.76 380.051C169.416 380.642 193.856 378.875 193.856 378.875C193.856 378.875 196.209 369.455 189.143 364.16H178.239Z" fill="#47465A"/>
<path d="M181.201 362.102C179.665 363.996 177.5 364.724 175.235 364.835C170.086 365.078 164.418 362.102 164.418 362.102C168.247 358.866 158.53 330.314 158.53 330.314C150.58 326.487 151.166 317.951 151.166 317.951L153.74 271.625L154.392 259.985L162.64 254.982L169.136 259.952L175.301 264.678C175.703 266.182 175.962 267.72 176.075 269.272C176.793 280.089 168.236 282.635 168.236 282.635C168.236 282.635 171.771 293.523 168.529 303.534C165.286 313.545 170.882 322.374 170.882 322.374C170.882 322.374 181.483 352.985 179.721 354.752C177.958 356.519 181.201 362.102 181.201 362.102Z" fill="#565171"/>
<path opacity="0.05" d="M181.201 362.102C179.665 363.996 177.5 364.724 175.235 364.835C170.086 365.078 164.418 362.102 164.418 362.102C168.247 358.866 158.53 330.314 158.53 330.314C150.58 326.487 151.166 317.951 151.166 317.951L153.74 271.625L154.392 259.985L162.64 254.982L169.136 259.952L175.301 264.678C175.703 266.182 175.962 267.72 176.075 269.272C176.793 280.089 168.236 282.635 168.236 282.635C168.236 282.635 171.771 293.523 168.529 303.534C165.286 313.545 170.882 322.374 170.882 322.374C170.882 322.374 181.483 352.985 179.721 354.752C177.958 356.519 181.201 362.102 181.201 362.102Z" fill="black"/>
<path d="M191.493 365.63C186.488 371.809 174.711 365.63 174.711 365.63C174.948 365.412 175.125 365.136 175.225 364.83C177.385 358.96 167.938 330.899 167.938 330.899C159.989 327.073 159.099 317.951 159.099 317.951L157.017 270.786L156.746 264.679L169.137 259.952L172.943 258.5L185.621 268.213C186.166 270.225 186.433 272.301 186.417 274.386C186.256 283.888 178.539 286.185 178.539 286.185C178.539 286.185 182.075 297.074 178.832 307.085C175.589 317.095 181.202 325.897 181.202 325.897C181.202 325.897 191.803 356.509 190.041 358.275C188.278 360.042 191.493 365.63 191.493 365.63Z" fill="#565171"/>
<path opacity="0.1" d="M186.414 274.386C183.867 274.021 178.713 270.957 176.067 269.295C175.056 268.66 174.41 268.235 174.41 268.235C174.41 268.235 171.758 260.874 164.693 266.468C162.394 268.334 159.799 269.801 157.014 270.808C155.95 271.184 154.854 271.46 153.738 271.63L154.39 259.991L162.638 254.988L169.134 259.958L172.94 258.506L185.619 268.213C186.163 270.225 186.431 272.301 186.414 274.386Z" fill="black"/>
<path d="M202.35 217.905C201.301 224.222 199.036 237.23 196.495 248.489C192.959 264.088 189.131 260.554 187.369 264.38C185.606 268.207 187.076 273.502 187.076 273.502C184.131 273.795 174.414 267.323 174.414 267.323C174.414 267.323 171.763 259.963 164.697 265.556C157.632 271.15 152.036 270.852 152.036 270.852C150.561 261.139 161.46 235.237 161.46 235.237C161.46 235.237 172.061 215.221 174.414 212.599C175.506 211.302 176.285 209.772 176.69 208.126C176.871 207.471 176.997 206.803 177.066 206.127C180.894 205.835 190.324 199.358 190.324 199.358L197.688 198.182V202.008C197.775 202.047 197.857 202.097 197.931 202.157C199.141 203.079 200.693 207.011 201.726 210.108C202.572 212.616 202.786 215.294 202.35 217.905Z" fill="#E1A0A7"/>
<path d="M167.941 245.546L164.135 245.104L134.962 241.72C117.284 236.126 128.482 227.59 128.482 227.59L140.259 238.777C143.657 239.456 156.987 237.871 162.958 237.12C164.748 236.888 165.881 236.734 165.881 236.734L167.941 245.546Z" fill="#FDC2CC"/>
<path opacity="0.1" d="M196.495 205.813C196.495 205.813 188.839 199.634 177.332 219.644C165.825 239.655 163.195 236.419 163.195 236.419C163.195 236.419 165.549 245.254 164.372 247.015C164.372 247.015 172.321 246.424 175.266 247.015C178.21 247.606 196.468 224.647 196.468 224.647C196.468 224.647 205.92 211.699 196.495 205.813Z" fill="black"/>
<path opacity="0.1" d="M196.204 204.637C196.204 204.637 188.547 198.458 177.062 218.469C165.577 238.479 162.926 235.243 162.926 235.243C162.926 235.243 172.052 245.248 174.996 245.839C177.941 246.43 196.198 223.471 196.198 223.471C196.198 223.471 205.628 210.523 196.204 204.637Z" fill="black"/>
<path opacity="0.1" d="M164.13 245.12C164.251 242.939 163.428 239.107 162.953 237.119C164.743 236.887 165.875 236.732 165.875 236.732L167.936 245.567L164.13 245.12Z" fill="black"/>
<path d="M196.495 205.221C196.495 205.221 188.839 199.042 177.332 219.058C165.825 239.074 163.195 235.832 163.195 235.832C163.195 235.832 165.549 244.667 164.372 246.428C164.372 246.428 172.321 245.838 175.266 246.428C178.21 247.019 196.468 224.06 196.468 224.06C196.468 224.06 205.92 211.107 196.495 205.221Z" fill="#E1A0A7"/>
<path opacity="0.1" d="M194.459 186.09L180.301 194.323C180.9 195.191 181.453 196.091 181.958 197.017C182.773 197.182 183.602 197.266 184.433 197.266C188.206 197.266 189.957 193.307 192.239 190.64C192.073 188.519 193.807 188.464 194.459 186.09Z" fill="black"/>
<path d="M184.127 196.691C190.958 196.691 196.495 191.156 196.495 184.328C196.495 177.5 190.958 171.965 184.127 171.965C177.295 171.965 171.758 177.5 171.758 184.328C171.758 191.156 177.295 196.691 184.127 196.691Z" fill="#FDC2CC"/>
<path opacity="0.1" d="M168.495 174.329C169.742 173.05 171.363 172.2 173.124 171.899C174.842 171.529 176.726 171.419 178.096 170.32C179.648 169.078 180.345 166.714 182.261 166.184C183.094 166.018 183.957 166.087 184.753 166.383C187.811 167.307 190.525 169.117 192.553 171.585C193.033 172.292 193.644 172.902 194.354 173.379C194.777 173.558 195.19 173.759 195.591 173.981C196.031 174.33 196.377 174.784 196.597 175.301C197.977 178.087 198.295 181.28 197.492 184.284C197.011 186.057 196.149 187.702 195.636 189.469C195.122 191.236 194.995 193.235 195.928 194.814C195.022 195.278 193.879 194.692 193.31 193.848C192.741 193.003 192.57 191.965 192.271 190.987C191.685 189.069 190.58 187.349 189.078 186.018C188.15 185.201 186.493 184.649 185.847 185.703C185.598 186.112 185.615 186.636 185.399 187.062C184.979 187.895 183.742 188.061 182.952 187.614C182.174 187.077 181.628 186.267 181.422 185.344C180.212 181.242 178.14 178.663 173.754 180.414C172.097 181.065 170.191 181.518 168.617 180.414C166.6 178.934 167.004 176.002 168.495 174.329Z" fill="black"/>
<path d="M168.495 174.03C169.742 172.751 171.363 171.901 173.124 171.6C174.842 171.23 176.726 171.12 178.096 170.021C179.648 168.779 180.345 166.416 182.261 165.886C183.094 165.719 183.957 165.788 184.753 166.084C187.811 167.008 190.525 168.818 192.553 171.286C193.033 171.994 193.644 172.603 194.354 173.08C194.777 173.259 195.19 173.46 195.591 173.682C196.031 174.031 196.377 174.485 196.597 175.002C197.977 177.788 198.295 180.982 197.492 183.985C197.011 185.758 196.149 187.403 195.636 189.17C195.122 190.937 194.995 192.936 195.928 194.515C195.022 194.979 193.879 194.394 193.31 193.549C192.741 192.704 192.57 191.666 192.271 190.689C191.685 188.77 190.58 187.051 189.078 185.719C188.15 184.902 186.493 184.35 185.847 185.404C185.598 185.813 185.615 186.338 185.399 186.763C184.979 187.597 183.742 187.762 182.952 187.315C182.174 186.778 181.628 185.968 181.422 185.046C180.212 180.943 178.14 178.364 173.754 180.115C172.097 180.766 170.191 181.219 168.617 180.115C166.6 178.64 167.004 175.709 168.495 174.03Z" fill="#8F5A6A"/>
<path opacity="0.05" d="M197.917 202.134H191.934C191.934 202.134 180.157 208.02 179.864 207.727C179.665 207.529 177.842 207.871 176.688 208.108C176.868 207.454 176.994 206.785 177.063 206.11C180.891 205.817 190.321 199.34 190.321 199.34L197.685 198.164V201.991C197.768 202.029 197.846 202.077 197.917 202.134Z" fill="black"/>
<path opacity="0.3" d="M194.215 374.801C194.198 375.874 194.074 376.943 193.845 377.992C193.845 377.992 169.406 379.759 161.749 379.168C158.065 378.887 156.501 377.512 156.225 376.198C155.888 377.711 157.225 379.704 161.749 380.063C169.406 380.654 193.845 378.887 193.845 378.887C194.133 377.545 194.257 376.173 194.215 374.801Z" fill="white"/>
<g opacity="0.05">
<path d="M161.9 265.264C157.928 268.411 154.415 269.681 152.105 270.233C152.105 270.454 152.15 270.669 152.183 270.879C152.183 270.879 157.779 271.172 164.844 265.584C165.939 264.646 167.233 263.97 168.628 263.607C167.087 262.851 164.889 262.9 161.9 265.264Z" fill="black"/>
<path d="M201.863 210.081C200.807 206.983 199.277 203.057 198.067 202.13C197.993 202.07 197.912 202.019 197.824 201.98C197.824 201.98 195.388 202.063 195.471 202.13C196.681 203.052 197.863 206.69 198.918 209.783C199.773 212.296 199.993 214.982 199.559 217.601C198.509 223.918 196.244 236.927 193.703 248.185C190.168 263.784 186.34 260.25 184.577 264.076C183.13 267.213 183.854 271.332 184.169 272.718C185.121 273.194 186.165 273.46 187.229 273.496C187.229 273.496 185.754 268.201 187.522 264.375C189.289 260.548 193.118 264.082 196.648 248.483C199.205 237.197 201.454 224.188 202.503 217.899C202.938 215.28 202.718 212.594 201.863 210.081Z" fill="black"/>
</g>
<path d="M236.084 265.06C237.096 264.235 237.834 263.122 238.199 261.869C238.476 260.599 237.934 259.08 236.719 258.616C235.36 258.097 233.907 259.036 232.808 259.991C231.709 260.946 230.443 262.029 229.002 261.824C229.743 261.153 230.297 260.301 230.611 259.352C230.924 258.402 230.987 257.388 230.791 256.408C230.729 256.001 230.557 255.62 230.294 255.303C229.537 254.497 228.173 254.845 227.267 255.48C224.394 257.501 223.593 261.399 223.577 264.911C223.29 263.647 223.533 262.327 223.522 261.046C223.511 259.765 223.157 258.285 222.063 257.611C221.385 257.247 220.623 257.066 219.854 257.087C218.561 257.037 217.125 257.17 216.241 258.114C215.136 259.284 215.429 261.256 216.384 262.531C217.34 263.807 218.787 264.629 220.124 265.524C221.196 266.161 222.11 267.031 222.798 268.069C222.879 268.213 222.946 268.365 222.997 268.522H231.09C232.903 267.599 234.583 266.434 236.084 265.06Z" fill="#00BE7B"/>
<path d="M250.95 368.739C252.237 367.541 253.447 366.127 253.822 364.41C254.198 362.693 253.463 360.628 251.817 359.993C249.977 359.286 248.005 360.545 246.514 361.853C245.022 363.162 243.31 364.614 241.36 364.338C242.364 363.428 243.115 362.273 243.54 360.986C243.965 359.699 244.049 358.324 243.785 356.994C243.699 356.446 243.466 355.93 243.111 355.503C242.089 354.399 240.233 354.88 239.012 355.741C235.145 358.502 234.04 363.764 234.012 368.523C233.62 366.806 233.952 365.017 233.94 363.256C233.929 361.494 233.449 359.545 231.963 358.596C231.037 358.098 229.997 357.855 228.947 357.889C227.195 357.823 225.245 357.999 224.052 359.28C222.566 360.87 222.947 363.537 224.245 365.288C225.544 367.038 227.505 368.137 229.311 369.346C230.761 370.21 231.998 371.39 232.93 372.797C233.04 372.994 233.131 373.201 233.2 373.416H244.177C246.635 372.169 248.913 370.596 250.95 368.739Z" fill="#00BE7B"/>
</g>
<defs>
<linearGradient id="paint0_linear_110_3214" x1="444.226" y1="340.562" x2="444.226" y2="153.628" gradientUnits="userSpaceOnUse">
<stop stop-color="#808080" stop-opacity="0.25"/>
<stop offset="0.54" stop-color="#808080" stop-opacity="0.12"/>
<stop offset="1" stop-color="#808080" stop-opacity="0.1"/>
</linearGradient>
<linearGradient id="paint1_linear_110_3214" x1="161.054" y1="382.089" x2="161.054" y2="163.87" gradientUnits="userSpaceOnUse">
<stop stop-color="#808080" stop-opacity="0.25"/>
<stop offset="0.54" stop-color="#808080" stop-opacity="0.12"/>
<stop offset="1" stop-color="#808080" stop-opacity="0.1"/>
</linearGradient>
<clipPath id="clip0_110_3214">
<rect width="569" height="403" fill="white"/>
</clipPath>
</defs>
</svg>
