<svg width="56" height="56" viewBox="0 0 56 56" fill="none" xmlns="http://www.w3.org/2000/svg">
<circle cx="28" cy="28" r="28" fill="#00BE7B"/>
<path d="M10.5801 21.2734H21.0039V23.4531H17.1016V34H14.4824V23.4531H10.5801V21.2734ZM33.7305 27.6367C33.7305 28.9844 33.4727 30.1533 32.957 31.1436C32.4414 32.1279 31.7324 32.8809 30.8301 33.4023C29.9336 33.918 28.9199 34.1758 27.7891 34.1758C26.6523 34.1758 25.6328 33.915 24.7305 33.3936C23.8281 32.8721 23.1191 32.1191 22.6035 31.1348C22.0879 30.1445 21.8301 28.9785 21.8301 27.6367C21.8301 26.2891 22.0879 25.123 22.6035 24.1387C23.1191 23.1484 23.8281 22.3955 24.7305 21.8799C25.6328 21.3584 26.6523 21.0977 27.7891 21.0977C28.9199 21.0977 29.9336 21.3584 30.8301 21.8799C31.7324 22.3955 32.4414 23.1484 32.957 24.1387C33.4727 25.123 33.7305 26.2891 33.7305 27.6367ZM31.041 27.6367C31.041 26.7402 30.9062 25.9785 30.6367 25.3516C30.373 24.7246 29.998 24.25 29.5117 23.9277C29.0254 23.5996 28.4512 23.4355 27.7891 23.4355C27.127 23.4355 26.5498 23.5996 26.0576 23.9277C25.5713 24.25 25.1934 24.7275 24.9238 25.3604C24.6543 25.9873 24.5195 26.7461 24.5195 27.6367C24.5195 28.5273 24.6543 29.2891 24.9238 29.9219C25.1934 30.5488 25.5713 31.0264 26.0576 31.3545C26.5498 31.6768 27.127 31.8379 27.7891 31.8379C28.4512 31.8379 29.0254 31.6768 29.5117 31.3545C29.998 31.0264 30.373 30.5488 30.6367 29.9219C30.9062 29.2949 31.041 28.5332 31.041 27.6367ZM35.6289 21.2734H40.6211C41.5703 21.2734 42.3877 21.4551 43.0732 21.8184C43.7588 22.1758 44.2803 22.6797 44.6377 23.3301C44.9951 23.9746 45.1738 24.7188 45.1738 25.5625C45.1738 26.4121 44.9893 27.1621 44.6201 27.8125C44.2568 28.457 43.7266 28.958 43.0293 29.3154C42.3379 29.6729 41.5117 29.8516 40.5508 29.8516H38.2656V34H35.6289V21.2734ZM40.1289 27.7246C40.8906 27.7246 41.4678 27.5312 41.8604 27.1445C42.2529 26.752 42.4492 26.2246 42.4492 25.5625C42.4492 24.9062 42.2529 24.3877 41.8604 24.0068C41.4678 23.626 40.8906 23.4355 40.1289 23.4355H38.2656V27.7246H40.1289Z" fill="white"/>
</svg>
