<svg width="142" height="55" viewBox="0 0 142 55" fill="none" xmlns="http://www.w3.org/2000/svg">
<path d="M23.6103 52.2299H4.83886C2.21086 52.2299 0 50.1961 0 47.5116V24.8961C0 22.2115 2.21086 20.1777 4.83886 20.1777H23.6103C26.2383 20.1777 28.4492 22.2115 28.4492 24.8961V32.0956H22.6926V25.9536C22.6926 25.5469 22.3589 25.2215 21.9418 25.2215H6.50743C6.09029 25.2215 5.75657 25.5469 5.75657 25.9536V46.454C5.75657 46.8607 6.09029 47.1862 6.50743 47.1862H21.9418C22.3589 47.1862 22.6926 46.8607 22.6926 46.454V40.2307H28.4492V47.5116C28.4492 50.1961 26.2383 52.2299 23.6103 52.2299ZM49.5901 52.2299H36.8673C34.281 52.2299 32.1118 50.2368 32.1118 47.5929V34.4141C32.1118 31.7702 34.281 29.7771 36.8673 29.7771H49.5901C52.1764 29.7771 54.3456 31.7702 54.3456 34.4141V47.5929C54.3456 50.2368 52.1764 52.2299 49.5901 52.2299ZM48.6724 46.6167V35.3903C48.6724 34.9836 48.3387 34.6582 47.9633 34.6582H38.4941C38.1187 34.6582 37.785 34.9836 37.785 35.3903V46.6167C37.785 47.0234 38.1187 47.3489 38.4941 47.3489H47.9633C48.3387 47.3489 48.6724 47.0234 48.6724 46.6167ZM82.7771 52.2299H77.1039V34.4141C77.1039 31.7702 79.2731 29.7771 81.8594 29.7771H90.5359V34.6582H83.4862C83.1108 34.6582 82.7771 34.9836 82.7771 35.3903V52.2299ZM110.156 52.2299H97.6417C95.0555 52.2299 92.8863 50.2368 92.8863 47.5929V34.4141C92.8863 31.7702 95.0555 29.7771 97.6417 29.7771H110.573C113.159 29.7771 115.328 31.7702 115.328 34.4141V39.3358C115.328 41.9797 113.576 43.566 110.99 43.566H98.5595V46.6167C98.5595 47.0234 98.8932 47.3489 99.2686 47.3489H108.529C108.905 47.3489 109.238 47.0234 109.238 46.6167V44.949H114.911V47.5929C114.911 50.2368 112.742 52.2299 110.156 52.2299ZM109.655 38.3596V35.3903C109.655 34.9836 109.322 34.6582 108.946 34.6582H99.2686C98.8932 34.6582 98.5595 34.9836 98.5595 35.3903V39.0918H108.946C109.322 39.0918 109.655 38.7664 109.655 38.3596ZM136.084 52.2299H123.569C120.983 52.2299 118.814 50.2368 118.814 47.5929V34.4141C118.814 31.7702 120.983 29.7771 123.569 29.7771H136.501C139.087 29.7771 141.256 31.7702 141.256 34.4141V39.3358C141.256 41.9797 139.504 43.566 136.918 43.566H124.487V46.6167C124.487 47.0234 124.821 47.3489 125.196 47.3489H134.457C134.832 47.3489 135.166 47.0234 135.166 46.6167V44.949H140.839V47.5929C140.839 50.2368 138.67 52.2299 136.084 52.2299ZM135.583 38.3596V35.3903C135.583 34.9836 135.249 34.6582 134.874 34.6582H125.196C124.821 34.6582 124.487 34.9836 124.487 35.3903V39.0918H134.874C135.249 39.0918 135.583 38.7664 135.583 38.3596Z" fill="#00BE7B"/>
<path d="M69.3388 17.1953H63.5508V54.6338H69.3388V17.1953Z" fill="url(#paint0_linear_454_5382)"/>
<path d="M69.3388 17.1953H63.5508V54.6338H69.3388V17.1953Z" fill="url(#paint1_linear_454_5382)"/>
<path d="M69.3388 17.1953H63.5508V54.6338H69.3388V17.1953Z" fill="url(#paint2_linear_454_5382)"/>
<path d="M69.3388 17.1953H63.5508V54.6338H69.3388V17.1953Z" fill="url(#paint3_radial_454_5382)"/>
<path d="M69.3388 17.1953H63.5508V54.6338H69.3388V17.1953Z" fill="url(#paint4_radial_454_5382)"/>
<path d="M69.3388 17.1953H63.5508V54.6338H69.3388V17.1953Z" fill="url(#paint5_radial_454_5382)"/>
<path d="M67.3398 17.6047C67.3398 9.69412 72.7298 3.7954 80.1188 3.28125H90.8704C91.2354 3.28125 91.5313 3.68205 91.5313 4.17647C90.8704 12.6729 87.3814 17.8144 79.1319 18.4999H68.0008C67.6358 18.4999 67.3398 18.0991 67.3398 17.6047Z" fill="url(#paint6_linear_454_5382)"/>
<path d="M67.3398 17.6047C67.3398 9.69412 72.7298 3.7954 80.1188 3.28125H90.8704C91.2354 3.28125 91.5313 3.68205 91.5313 4.17647C90.8704 12.6729 87.3814 17.8144 79.1319 18.4999H68.0008C67.6358 18.4999 67.3398 18.0991 67.3398 17.6047Z" fill="url(#paint7_linear_454_5382)"/>
<path d="M67.3398 17.6047C67.3398 9.69412 72.7298 3.7954 80.1188 3.28125H90.8704C91.2354 3.28125 91.5313 3.68205 91.5313 4.17647C90.8704 12.6729 87.3814 17.8144 79.1319 18.4999H68.0008C67.6358 18.4999 67.3398 18.0991 67.3398 17.6047Z" fill="url(#paint8_linear_454_5382)"/>
<path d="M67.3398 17.6047C67.3398 9.69412 72.7298 3.7954 80.1188 3.28125H90.8704C91.2354 3.28125 91.5313 3.68205 91.5313 4.17647C90.8704 12.6729 87.3814 17.8144 79.1319 18.4999H68.0008C67.6358 18.4999 67.3398 18.0991 67.3398 17.6047Z" fill="url(#paint9_linear_454_5382)"/>
<path d="M67.3398 17.6047C67.3398 9.69412 72.7298 3.7954 80.1188 3.28125H90.8704C91.2354 3.28125 91.5313 3.68205 91.5313 4.17647C90.8704 12.6729 87.3814 17.8144 79.1319 18.4999H68.0008C67.6358 18.4999 67.3398 18.0991 67.3398 17.6047Z" fill="url(#paint10_radial_454_5382)"/>
<path d="M67.3398 17.6047C67.3398 9.69412 72.7298 3.7954 80.1188 3.28125H90.8704C91.2354 3.28125 91.5313 3.68205 91.5313 4.17647C90.8704 12.6729 87.3814 17.8144 79.1319 18.4999H68.0008C67.6358 18.4999 67.3398 18.0991 67.3398 17.6047Z" fill="url(#paint11_radial_454_5382)"/>
<path d="M67.3398 17.6047C67.3398 9.69412 72.7298 3.7954 80.1188 3.28125H90.8704C91.2354 3.28125 91.5313 3.68205 91.5313 4.17647C90.8704 12.6729 87.3814 17.8144 79.1319 18.4999H68.0008C67.6358 18.4999 67.3398 18.0991 67.3398 17.6047Z" fill="url(#paint12_linear_454_5382)"/>
<path d="M69.3351 17.4413C69.3351 7.80871 62.7069 0.626061 53.6204 0H40.3987C39.9499 0 39.5859 0.488047 39.5859 1.09009C40.3987 11.436 44.6893 17.6967 54.8339 18.5314H68.5223C68.9711 18.5314 69.3351 18.0433 69.3351 17.4413Z" fill="url(#paint13_linear_454_5382)"/>
<path d="M69.3351 17.4413C69.3351 7.80871 62.7069 0.626061 53.6204 0H40.3987C39.9499 0 39.5859 0.488047 39.5859 1.09009C40.3987 11.436 44.6893 17.6967 54.8339 18.5314H68.5223C68.9711 18.5314 69.3351 18.0433 69.3351 17.4413Z" fill="url(#paint14_radial_454_5382)"/>
<path d="M69.3351 17.4413C69.3351 7.80871 62.7069 0.626061 53.6204 0H40.3987C39.9499 0 39.5859 0.488047 39.5859 1.09009C40.3987 11.436 44.6893 17.6967 54.8339 18.5314H68.5223C68.9711 18.5314 69.3351 18.0433 69.3351 17.4413Z" fill="url(#paint15_radial_454_5382)"/>
<path d="M69.3351 17.4413C69.3351 7.80871 62.7069 0.626061 53.6204 0H40.3987C39.9499 0 39.5859 0.488047 39.5859 1.09009C40.3987 11.436 44.6893 17.6967 54.8339 18.5314H68.5223C68.9711 18.5314 69.3351 18.0433 69.3351 17.4413Z" fill="url(#paint16_radial_454_5382)"/>
<path d="M69.3351 17.4413C69.3351 7.80871 62.7069 0.626061 53.6204 0H40.3987C39.9499 0 39.5859 0.488047 39.5859 1.09009C40.3987 11.436 44.6893 17.6967 54.8339 18.5314H68.5223C68.9711 18.5314 69.3351 18.0433 69.3351 17.4413Z" fill="url(#paint17_radial_454_5382)" fill-opacity="0.6"/>
<path d="M69.3351 17.4413C69.3351 7.80871 62.7069 0.626061 53.6204 0H40.3987C39.9499 0 39.5859 0.488047 39.5859 1.09009C40.3987 11.436 44.6893 17.6967 54.8339 18.5314H68.5223C68.9711 18.5314 69.3351 18.0433 69.3351 17.4413Z" fill="url(#paint18_radial_454_5382)" fill-opacity="0.4"/>
<path d="M69.3351 17.4413C69.3351 7.80871 62.7069 0.626061 53.6204 0H40.3987C39.9499 0 39.5859 0.488047 39.5859 1.09009C40.3987 11.436 44.6893 17.6967 54.8339 18.5314H68.5223C68.9711 18.5314 69.3351 18.0433 69.3351 17.4413Z" fill="url(#paint19_radial_454_5382)" fill-opacity="0.6"/>
<path d="M69.3351 17.4413C69.3351 7.80871 62.7069 0.626061 53.6204 0H40.3987C39.9499 0 39.5859 0.488047 39.5859 1.09009C40.3987 11.436 44.6893 17.6967 54.8339 18.5314H68.5223C68.9711 18.5314 69.3351 18.0433 69.3351 17.4413Z" fill="url(#paint20_radial_454_5382)" fill-opacity="0.6"/>
<path d="M69.3351 17.4413C69.3351 7.80871 62.7069 0.626061 53.6204 0H40.3987C39.9499 0 39.5859 0.488047 39.5859 1.09009C40.3987 11.436 44.6893 17.6967 54.8339 18.5314H68.5223C68.9711 18.5314 69.3351 18.0433 69.3351 17.4413Z" fill="url(#paint21_linear_454_5382)" fill-opacity="0.7"/>
<defs>
<linearGradient id="paint0_linear_454_5382" x1="63.5508" y1="32.903" x2="67.7071" y2="32.903" gradientUnits="userSpaceOnUse">
<stop stop-color="#81BC52"/>
<stop offset="0.963197" stop-color="#C0F65F"/>
</linearGradient>
<linearGradient id="paint1_linear_454_5382" x1="64.8414" y1="17.1953" x2="65.8474" y2="22.5495" gradientUnits="userSpaceOnUse">
<stop stop-color="#81BC52"/>
<stop offset="1" stop-color="#81BC52" stop-opacity="0"/>
</linearGradient>
<linearGradient id="paint2_linear_454_5382" x1="70.9543" y1="30.6743" x2="68.0811" y2="30.8802" gradientUnits="userSpaceOnUse">
<stop stop-color="#81BC52"/>
<stop offset="1" stop-color="#81BC52" stop-opacity="0"/>
</linearGradient>
<radialGradient id="paint3_radial_454_5382" cx="0" cy="0" r="1" gradientUnits="userSpaceOnUse" gradientTransform="translate(65.8919 28.0783) rotate(90) scale(11.5217 5.60252)">
<stop stop-color="#81BC52"/>
<stop offset="1" stop-color="#81BC52" stop-opacity="0"/>
</radialGradient>
<radialGradient id="paint4_radial_454_5382" cx="0" cy="0" r="1" gradientUnits="userSpaceOnUse" gradientTransform="translate(68.5723 31.61) rotate(99.8014) scale(1.61106 3.38649)">
<stop stop-color="#81BC52"/>
<stop offset="1" stop-color="#81BC52" stop-opacity="0"/>
</radialGradient>
<radialGradient id="paint5_radial_454_5382" cx="0" cy="0" r="1" gradientUnits="userSpaceOnUse" gradientTransform="translate(66.9574 24.2053) rotate(28.5951) scale(1.17599 7.04922)">
<stop stop-color="#5EB816"/>
<stop offset="0.818975" stop-color="#5EB816" stop-opacity="0"/>
</radialGradient>
<linearGradient id="paint6_linear_454_5382" x1="69.7563" y1="20.9568" x2="93.6457" y2="8.58574" gradientUnits="userSpaceOnUse">
<stop stop-color="#81BC52"/>
<stop offset="1" stop-color="#ABEE48"/>
</linearGradient>
<linearGradient id="paint7_linear_454_5382" x1="78.702" y1="18.908" x2="78.702" y2="16.1334" gradientUnits="userSpaceOnUse">
<stop stop-color="#81BC52"/>
<stop offset="1" stop-color="#81BC52" stop-opacity="0"/>
</linearGradient>
<linearGradient id="paint8_linear_454_5382" x1="84.5275" y1="18.4999" x2="82.7386" y2="15.7501" gradientUnits="userSpaceOnUse">
<stop stop-color="#81BC52"/>
<stop offset="1" stop-color="#81BC52" stop-opacity="0"/>
</linearGradient>
<linearGradient id="paint9_linear_454_5382" x1="90.1799" y1="13.486" x2="87.3244" y2="12.3823" gradientUnits="userSpaceOnUse">
<stop stop-color="#81BC52"/>
<stop offset="1" stop-color="#81BC52" stop-opacity="0"/>
</linearGradient>
<radialGradient id="paint10_radial_454_5382" cx="0" cy="0" r="1" gradientUnits="userSpaceOnUse" gradientTransform="translate(88.0368 7.7008) rotate(151.688) scale(20.5285 9.00999)">
<stop stop-color="#C2FD65" stop-opacity="0.64"/>
<stop offset="1" stop-color="#C2FD65" stop-opacity="0"/>
</radialGradient>
<radialGradient id="paint11_radial_454_5382" cx="0" cy="0" r="1" gradientUnits="userSpaceOnUse" gradientTransform="translate(91.9989 3.28125) rotate(134.94) scale(9.53765 2.41513)">
<stop stop-color="#E1FFB1"/>
<stop offset="1" stop-color="#CBFF78" stop-opacity="0"/>
</radialGradient>
<linearGradient id="paint12_linear_454_5382" x1="83.4" y1="1.30052" x2="83.4" y2="4.86926" gradientUnits="userSpaceOnUse">
<stop stop-color="#96D240"/>
<stop offset="1" stop-color="#ADEF4F" stop-opacity="0"/>
</linearGradient>
<linearGradient id="paint13_linear_454_5382" x1="63.0849" y1="-3.69091" x2="48.7871" y2="12.553" gradientUnits="userSpaceOnUse">
<stop stop-color="#BEF85C"/>
<stop offset="1" stop-color="#90CD2F"/>
</linearGradient>
<radialGradient id="paint14_radial_454_5382" cx="0" cy="0" r="1" gradientUnits="userSpaceOnUse" gradientTransform="translate(65.0802 1.819) rotate(-168.949) scale(16.9011 18.6424)">
<stop stop-color="#B6EB53"/>
<stop offset="1" stop-color="#B6EB53" stop-opacity="0"/>
</radialGradient>
<radialGradient id="paint15_radial_454_5382" cx="0" cy="0" r="1" gradientUnits="userSpaceOnUse" gradientTransform="translate(62.1583 5.81065) rotate(-152.114) scale(15.4612 15.6526)">
<stop stop-color="#B8F053"/>
<stop offset="1" stop-color="#B8F053" stop-opacity="0"/>
</radialGradient>
<radialGradient id="paint16_radial_454_5382" cx="0" cy="0" r="1" gradientUnits="userSpaceOnUse" gradientTransform="translate(40.7495 36.0507) rotate(-48.2565) scale(37.8411 29.6046)">
<stop stop-color="#D1FF77" stop-opacity="0"/>
<stop offset="0.837938" stop-color="#D1FF77" stop-opacity="0"/>
<stop offset="0.895132" stop-color="#D1FF77" stop-opacity="0.0569351"/>
<stop offset="0.925992" stop-color="#D1FF77" stop-opacity="0.15"/>
<stop offset="0.955339" stop-color="#D1FF77" stop-opacity="0.36"/>
<stop offset="1" stop-color="#D1FF77" stop-opacity="0"/>
</radialGradient>
<radialGradient id="paint17_radial_454_5382" cx="0" cy="0" r="1" gradientUnits="userSpaceOnUse" gradientTransform="translate(55.587 0.989134) rotate(137.025) scale(16.4552 23.8117)">
<stop stop-color="#81BC52" stop-opacity="0"/>
<stop offset="0.894411" stop-color="#81BC52" stop-opacity="0"/>
<stop offset="0.955727" stop-color="#81BC52" stop-opacity="0.332789"/>
<stop offset="1" stop-color="#81BC52"/>
</radialGradient>
<radialGradient id="paint18_radial_454_5382" cx="0" cy="0" r="1" gradientUnits="userSpaceOnUse" gradientTransform="translate(56.0107 -11.2883) rotate(97.6739) scale(29.3528 36.163)">
<stop stop-color="#81BC52" stop-opacity="0"/>
<stop offset="0.953954" stop-color="#81BC52" stop-opacity="0"/>
<stop offset="0.987099" stop-color="#81BC52" stop-opacity="0.77"/>
<stop offset="1" stop-color="#81BC52"/>
</radialGradient>
<radialGradient id="paint19_radial_454_5382" cx="0" cy="0" r="1" gradientUnits="userSpaceOnUse" gradientTransform="translate(56.0107 -11.2883) rotate(110.577) scale(28.611 38.184)">
<stop stop-color="#81BC52" stop-opacity="0"/>
<stop offset="0.881174" stop-color="#81BC52" stop-opacity="0"/>
<stop offset="0.924412" stop-color="#81BC52" stop-opacity="0.325906"/>
<stop offset="0.981742" stop-color="#81BC52" stop-opacity="0.77"/>
<stop offset="1" stop-color="#81BC52"/>
</radialGradient>
<radialGradient id="paint20_radial_454_5382" cx="0" cy="0" r="1" gradientUnits="userSpaceOnUse" gradientTransform="translate(52.2979 19.2916) rotate(-85.2262) scale(19.7624 26.1794)">
<stop stop-color="#81BC52" stop-opacity="0"/>
<stop offset="0.907432" stop-color="#81BC52" stop-opacity="0.0384281"/>
<stop offset="0.956328" stop-color="#81BC52" stop-opacity="0.332789"/>
<stop offset="1" stop-color="#81BC52" stop-opacity="0.78"/>
</radialGradient>
<linearGradient id="paint21_linear_454_5382" x1="58.4124" y1="9.26568" x2="58.4124" y2="18.5811" gradientUnits="userSpaceOnUse">
<stop offset="0.638716" stop-color="#81A957" stop-opacity="0"/>
<stop offset="0.69368" stop-color="#81BC52" stop-opacity="0.04"/>
<stop offset="0.779851" stop-color="#81BC52" stop-opacity="0.21"/>
<stop offset="0.893696" stop-color="#81BC52" stop-opacity="0.58"/>
<stop offset="0.969711" stop-color="#81BC52"/>
</linearGradient>
</defs>
</svg>
