<svg width="663" height="440" viewBox="0 0 663 440" fill="none" xmlns="http://www.w3.org/2000/svg">
<g clip-path="url(#clip0_643_5440)">
<path d="M335.871 123.667C329.96 113.896 322.955 103.462 311.984 100.271C299.28 96.5763 286.229 103.917 275.159 111.16C242.053 132.823 210.171 156.3 179.66 181.483L179.694 181.862C203.448 180.225 227.202 178.588 250.956 176.951C268.118 175.768 285.87 174.422 301.037 166.307C306.792 163.228 312.403 159.115 318.924 158.829C327.027 158.473 334.092 164.128 339.644 170.037C372.486 204.99 381.99 258.441 418.836 289.15C395.602 231.884 367.86 176.549 335.871 123.667Z" fill="#F2F2F2"/>
<path d="M537.747 420.129C534.115 415.546 532.632 414.472 529.049 409.846C499.879 372.141 472.462 333.162 446.797 292.909C429.365 265.571 412.797 237.708 397.093 209.319C389.617 195.823 382.346 182.221 375.279 168.514C369.796 157.885 364.435 147.192 359.197 136.437C357.699 133.364 356.243 130.278 354.794 127.185C351.381 119.911 348.032 112.601 344.435 105.426C340.337 97.2479 335.348 88.6742 327.822 83.1798C324.397 80.5766 320.302 79.0016 316.014 78.6387C309.888 78.2432 304.235 80.7715 298.921 83.5329C260.042 103.795 223.644 129.198 190.723 158.104C157.716 187.075 128.214 219.805 102.818 255.627C102.041 256.736 100.203 255.676 100.988 254.561C104.076 250.196 107.225 245.879 110.435 241.608C150.355 188.546 199.302 142.916 255.039 106.803C264.417 100.73 273.97 94.9408 283.7 89.4369C288.604 86.6614 293.53 83.9213 298.54 81.3506C303.451 78.8294 308.666 76.5624 314.276 76.4776C333.369 76.181 343.255 97.7916 350.046 112.333C352.18 116.909 354.34 121.472 356.526 126.02C364.786 143.287 373.364 160.397 382.261 177.348C387.751 187.815 393.362 198.22 399.093 208.564C416.928 240.775 435.885 272.334 455.962 303.241C482.56 344.181 508.945 380.347 539.245 418.632C540.079 419.691 538.589 421.203 537.747 420.129Z" fill="#E4E4E4"/>
<path d="M188.836 147.433C187.727 146.197 186.624 144.961 185.508 143.725C176.703 133.993 167.256 124.375 155.165 118.795C149.4 116.051 143.107 114.593 136.722 114.523C130.122 114.544 123.671 116.274 117.573 118.697C114.69 119.848 111.87 121.154 109.093 122.545C105.92 124.142 102.804 125.844 99.702 127.56C93.8792 130.78 88.132 134.142 82.4603 137.645C71.1753 144.615 60.2437 152.118 49.6656 160.152C44.182 164.319 38.8115 168.622 33.5542 173.062C28.6644 177.187 23.8735 181.422 19.1815 185.767C18.1782 186.692 16.68 185.195 17.6834 184.27C18.92 183.119 20.1708 181.975 21.4215 180.845C24.9546 177.653 28.5444 174.522 32.1907 171.452C38.8398 165.844 45.6611 160.454 52.6546 155.279C63.5297 147.228 74.7792 139.723 86.403 132.765C92.2116 129.29 98.1002 125.961 104.069 122.779C105.871 121.818 107.694 120.879 109.538 119.989C113.723 117.879 118.071 116.11 122.54 114.699C128.871 112.652 135.569 111.995 142.177 112.771C148.558 113.699 154.705 115.824 160.295 119.036C172.167 125.667 181.374 135.921 190.334 145.929C191.239 146.946 189.747 148.45 188.836 147.433Z" fill="#E4E4E4"/>
<path d="M432.073 248.28L460.52 237.882L474.644 232.719C479.244 231.037 483.833 229.123 488.588 227.919C492.72 226.739 497.108 226.795 501.209 228.08C504.866 229.433 508.214 231.507 511.053 234.179C513.953 236.848 516.652 239.729 519.127 242.797C522.202 246.49 525.231 250.222 528.275 253.942C540.834 269.293 553.312 284.711 565.708 300.196C578.103 315.681 590.415 331.231 602.645 346.847C614.904 362.502 627.079 378.221 639.17 394.006C640.651 395.94 642.131 397.875 643.61 399.811C644.427 400.88 646.269 399.826 645.44 398.741C633.26 382.797 620.995 366.919 608.646 351.105C596.265 335.254 583.8 319.47 571.249 303.753C558.698 288.037 546.062 272.389 533.341 256.808C530.172 252.927 526.998 249.05 523.818 245.177C521.136 241.91 518.484 238.608 515.542 235.567C510.143 229.985 503.396 225.053 495.321 224.919C490.573 224.84 485.978 226.346 481.566 227.941C476.811 229.661 472.066 231.412 467.317 233.148L438.671 243.62L431.51 246.238C430.239 246.702 430.788 248.75 432.073 248.28Z" fill="#E4E4E4"/>
<path d="M151.421 131.042C136.965 123.617 118.452 125.071 105.168 134.348C130.506 138.717 155.567 144.563 180.222 151.855C169.984 145.859 161.975 136.463 151.421 131.042Z" fill="#F2F2F2"/>
<path d="M105.025 134.322L102.242 136.583C103.184 135.792 104.162 135.05 105.167 134.348C105.12 134.34 105.073 134.33 105.025 134.322Z" fill="#F2F2F2"/>
<path d="M509.981 248.385C507.181 244.978 504.153 241.411 499.965 240.027L496.055 240.181C525.822 292.751 566.024 338.686 614.195 375.168C579.457 332.907 544.719 290.646 509.981 248.385Z" fill="#F2F2F2"/>
<path d="M266.817 220.283C268.626 226.854 272.703 232.573 278.326 236.429C280.5 237.909 283.071 239.328 283.815 241.849C284.206 243.456 283.965 245.152 283.142 246.586C282.32 248.003 281.319 249.308 280.165 250.47L280.06 250.865C274.666 247.67 269.533 243.628 266.554 238.114C263.574 232.6 263.158 225.373 266.817 220.283Z" fill="#F2F2F2"/>
<path d="M446.414 376.67C448.224 383.241 452.301 388.96 457.923 392.816C460.097 394.295 462.669 395.714 463.413 398.235C463.804 399.842 463.563 401.538 462.739 402.973C461.917 404.389 460.917 405.695 459.763 406.857L459.658 407.251C454.263 404.056 449.131 400.015 446.151 394.501C443.171 388.986 442.755 381.759 446.414 376.67Z" fill="#F2F2F2"/>
<path d="M87.9885 365.885C89.7981 372.456 93.8749 378.175 99.4976 382.031C101.671 383.51 104.243 384.929 104.987 387.45C105.378 389.057 105.137 390.753 104.314 392.188C103.491 393.604 102.491 394.909 101.337 396.072L101.232 396.466C95.8374 393.271 90.7054 389.23 87.7255 383.715C84.7457 378.201 84.3297 370.974 87.9885 365.885Z" fill="#F2F2F2"/>
<path d="M500.448 78.5786C522.159 78.5786 539.76 60.9882 539.76 39.2893C539.76 17.5904 522.159 0 500.448 0C478.737 0 461.137 17.5904 461.137 39.2893C461.137 60.9882 478.737 78.5786 500.448 78.5786Z" fill="#00BE7B"/>
<path d="M571.393 9.14479C552.341 6.571 530.59 16.863 525.652 35.4328C524.408 32.1311 522.145 29.3102 519.192 27.3778C516.238 25.4453 512.746 24.5013 509.221 24.6821C505.695 24.8629 502.318 26.1592 499.578 28.3837C496.838 30.6081 494.876 33.6456 493.977 37.0573L496.158 38.6186C536.986 47.4427 579.249 47.2518 619.996 38.059C606.743 24.1391 590.445 11.7185 571.393 9.14479Z" fill="#F0F0F0"/>
<path d="M489.686 61.5296C470.634 58.9558 448.883 69.2477 443.945 87.8176C442.7 84.5159 440.438 81.695 437.484 79.7625C434.531 77.8301 431.039 76.886 427.514 77.0668C423.988 77.2477 420.611 78.5439 417.871 80.7684C415.131 82.9929 413.169 86.0304 412.27 89.4421L414.451 91.0034C455.279 99.8275 497.542 99.6365 538.289 90.4438C525.036 76.5239 508.738 64.1033 489.686 61.5296Z" fill="#F0F0F0"/>
<path d="M655.968 71.4354C655.89 71.4356 655.811 71.4234 655.736 71.3993C451.928 6.98171 272.3 15.4054 157.498 33.8155C141.875 36.32 126.21 39.2127 110.938 42.4138C107.039 43.2301 102.994 44.1051 98.916 45.0161C94.0454 46.1002 89.2395 47.2167 84.6312 48.3331C82.6409 48.8041 80.6896 49.2788 78.7771 49.7573C75.8801 50.472 72.9406 51.2168 69.7896 52.0353C66.2687 52.9426 62.6912 53.8943 59.1545 54.864C59.1415 54.8686 59.1283 54.8723 59.1149 54.8753L59.1153 54.876C55.1205 55.9661 51.1467 57.0879 47.304 58.2081C45.2241 58.8084 43.2158 59.4005 41.2921 59.9851C41.0772 60.0445 40.8868 60.1017 40.6937 60.1604L40.2805 60.286C40.0411 60.359 39.8047 60.4304 39.5684 60.4982L39.5533 60.5027L39.5537 60.5034L38.9281 60.6976C38.1822 60.9233 37.4543 61.1437 36.7384 61.3634C17.8189 67.1924 7.41817 71.3392 7.31543 71.3798C7.22147 71.4174 7.12102 71.4362 7.0198 71.4351C6.91858 71.4339 6.81858 71.4128 6.72551 71.373C6.63244 71.3332 6.54811 71.2755 6.47736 71.2032C6.40661 71.1308 6.35081 71.0453 6.31314 70.9514C6.27548 70.8575 6.2567 70.757 6.25786 70.6559C6.25902 70.5547 6.28011 70.4548 6.31992 70.3618C6.35973 70.2688 6.41747 70.1845 6.48986 70.1138C6.56226 70.043 6.64787 69.9873 6.74183 69.9496C6.84534 69.909 17.2969 65.7412 36.2853 59.8903C37.0038 59.6699 37.7336 59.4495 38.4818 59.223L39.0629 59.0425C39.0828 59.035 39.1028 59.0289 39.1231 59.0229C39.3583 58.956 39.5932 58.8845 39.8318 58.8123L40.2458 58.6866C40.4521 58.6242 40.6553 58.5625 40.8635 58.5053C42.7739 57.9245 44.789 57.3309 46.8741 56.7283C50.7184 55.6074 54.6959 54.4857 58.6938 53.394C58.7062 53.3895 58.719 53.3865 58.7314 53.3827C62.2806 52.41 65.8712 51.4538 69.4035 50.5435C72.5594 49.7242 75.5045 48.9779 78.4063 48.2617C80.327 47.784 82.2821 47.3082 84.2717 46.8345C88.8853 45.7166 93.701 44.5986 98.5803 43.5123C102.665 42.6004 106.717 41.7232 110.622 40.9062C125.917 37.6998 141.607 34.8026 157.254 32.2944C272.22 13.858 452.105 5.42062 656.2 69.9308C656.376 69.9861 656.526 70.1024 656.623 70.2587C656.72 70.4149 656.758 70.6007 656.73 70.7825C656.702 70.9643 656.61 71.13 656.47 71.2498C656.33 71.3696 656.152 71.4354 655.968 71.4354Z" fill="#CCCCCC"/>
<path d="M202.717 323.436C202.45 322.656 202.001 321.951 201.406 321.379C201.187 321.176 200.95 320.993 200.697 320.832C198.685 319.492 195.679 319.191 193.768 320.832C193.575 320.999 193.397 321.182 193.236 321.379C192.665 322.08 192.079 322.766 191.478 323.436C190.492 324.561 189.482 325.647 188.426 326.702C188.125 326.995 187.825 327.296 187.516 327.588C187.339 327.766 187.162 327.935 186.984 328.105C186.306 328.752 185.612 329.376 184.911 329.992C184.541 330.323 184.171 330.647 183.793 330.963C183.231 331.433 182.668 331.903 182.097 332.357C182.044 332.396 181.99 332.434 181.936 332.48C181.92 332.488 181.912 332.503 181.897 332.511C181.889 332.511 181.882 332.511 181.874 332.527C181.853 332.535 181.835 332.548 181.82 332.565C181.65 332.681 181.535 332.758 181.45 332.827C181.481 332.812 181.512 332.788 181.542 332.773C181.404 332.881 181.257 332.989 181.119 333.097C179.77 334.09 178.39 335.046 176.979 335.939C173.489 338.172 169.824 340.117 166.018 341.756C165.764 341.856 165.502 341.964 165.24 342.064C155.277 346.143 144.469 347.735 133.752 346.702C132.658 346.617 131.563 346.501 130.468 346.355C129.204 346.17 127.948 345.947 126.699 345.692C121.945 344.744 117.294 343.341 112.809 341.501C107.199 338.934 101.864 335.806 96.8842 332.164C96.1133 331.618 95.3348 331.071 94.5563 330.539C95.4427 328.367 96.3138 326.194 97.1617 324.006C97.5856 322.951 97.9941 321.895 98.395 320.832C101.548 312.643 104.507 304.377 107.344 296.08C110.212 287.675 112.917 279.222 115.461 270.719C115.723 269.856 115.977 268.993 116.224 268.131C117.557 263.639 118.837 259.138 120.062 254.626C120.178 254.187 120.301 253.755 120.409 253.316C120.764 252.022 121.111 250.728 121.45 249.434C122.221 246.514 120.479 243.024 117.411 242.323C115.934 241.944 114.367 242.154 113.042 242.907C111.716 243.66 110.734 244.898 110.304 246.36C109.973 247.608 109.641 248.848 109.302 250.096C107.676 256.128 105.964 262.14 104.168 268.131C103.906 268.993 103.644 269.856 103.382 270.719C99.4201 283.769 95.0702 296.689 90.3322 309.477C89.7618 311.025 89.1837 312.569 88.5979 314.107C88.3127 314.862 88.0275 315.617 87.7346 316.372C87.1719 317.859 86.5938 319.345 86.0157 320.832C85.6842 321.703 85.3451 322.573 85.006 323.436C84.7824 323.983 84.5666 324.53 84.3508 325.069C82.153 324.281 79.876 323.733 77.5599 323.436L77.1899 323.39C75.3942 323.174 73.5782 323.189 71.7865 323.436C69.1049 323.749 66.5248 324.646 64.2285 326.065C61.9322 327.485 59.9758 329.39 58.4977 331.648C54.8209 337.434 54.8672 345.708 60.0239 350.623C65.3348 355.684 73.3744 355.646 79.6257 352.479C82.9385 350.688 85.7318 348.072 87.7346 344.883C88.5019 343.728 89.207 342.532 89.8467 341.301C90.0085 341.409 90.1704 341.517 90.3322 341.632C90.9489 342.064 91.5656 342.503 92.1745 342.934C95.7226 345.503 99.4616 347.798 103.359 349.798C111.739 353.962 120.76 356.689 130.045 357.864C130.253 357.887 130.453 357.918 130.661 357.941C131.686 358.072 132.719 358.172 133.752 358.257C148.569 359.373 163.404 356.343 176.594 349.506C177.712 348.928 178.819 348.322 179.916 347.688C181.62 346.701 183.285 345.654 184.911 344.544C185.797 343.944 186.661 343.335 187.516 342.696C191.255 339.943 194.74 336.862 197.93 333.49C199.14 332.218 200.299 330.906 201.406 329.553C202.454 328.446 203.057 326.993 203.102 325.47C203.096 324.774 202.966 324.086 202.717 323.436ZM75.0779 341.786C75.2398 341.671 75.4016 341.548 75.5558 341.424C75.5096 341.54 75.286 341.671 75.0779 341.786ZM77.5522 339.298C77.3749 339.498 77.213 339.699 77.0357 339.899C76.4964 340.502 75.917 341.069 75.3014 341.594C75.2166 341.671 75.1241 341.748 75.0316 341.817C75.0306 341.817 75.0296 341.817 75.0287 341.818C75.0277 341.818 75.0269 341.819 75.0261 341.819C75.0254 341.82 75.0248 341.821 75.0245 341.822C75.0241 341.823 75.0239 341.824 75.0239 341.825C74.9126 341.875 74.8044 341.931 74.7002 341.995C74.3687 342.195 74.0296 342.38 73.6827 342.549C73.0036 342.799 72.3049 342.992 71.5938 343.127C71.0474 343.167 70.499 343.172 69.952 343.142H69.9366C69.559 343.059 69.186 342.956 68.8189 342.834C68.6339 342.742 68.4566 342.634 68.2793 342.526C68.2099 342.464 68.1482 342.403 68.1097 342.364C68.0344 342.296 67.9649 342.221 67.9017 342.141C67.9017 342.14 67.9015 342.139 67.9011 342.138C67.9007 342.137 67.9002 342.136 67.8995 342.135C67.8987 342.135 67.8979 342.134 67.8969 342.134C67.896 342.133 67.895 342.133 67.894 342.133C67.8091 341.979 67.7166 341.825 67.6319 341.671C67.6275 341.667 67.6247 341.661 67.6242 341.656C67.5625 341.463 67.5086 341.263 67.4623 341.062C67.4456 340.711 67.4481 340.358 67.47 340.007C67.5734 339.515 67.7126 339.031 67.8862 338.559C68.0423 338.224 68.22 337.9 68.4181 337.588C68.4335 337.557 68.5106 337.434 68.5954 337.295C68.6031 337.287 68.6031 337.288 68.6031 337.28C68.7187 337.149 68.8344 337.01 68.9577 336.887C69.1658 336.656 69.3893 336.455 69.6129 336.247C70.0476 335.963 70.498 335.703 70.9618 335.469C71.6976 335.208 72.4528 335.005 73.2203 334.861C74.3521 334.771 75.4896 334.781 76.6196 334.892C77.6898 335.077 78.7458 335.337 79.7799 335.67C79.1531 336.885 78.4396 338.054 77.6447 339.167C77.6139 339.213 77.5831 339.26 77.5522 339.298ZM68.9808 336.764C68.9129 336.873 68.8327 336.973 68.7418 337.064C68.803 336.95 68.8839 336.849 68.9808 336.764Z" fill="#3F3D56"/>
<path d="M179.545 244.756C179.476 247.175 179.406 249.594 179.337 252.013C179.19 257.383 179.039 262.755 178.882 268.13C178.72 274.177 178.55 280.222 178.373 286.264C178.288 289.384 178.201 292.504 178.111 295.624C177.872 304.029 177.636 312.432 177.402 320.831C177.379 321.702 177.348 322.565 177.325 323.435C177.209 327.603 177.094 331.771 176.978 335.938C176.847 340.46 176.719 344.983 176.593 349.505C176.5 352.894 176.405 356.287 176.307 359.681C175.614 384.28 174.92 408.878 174.226 433.476C174.197 434.999 173.578 436.452 172.501 437.529C171.423 438.606 169.969 439.224 168.445 439.254C166.916 439.241 165.452 438.629 164.371 437.548C163.289 436.467 162.676 435.005 162.664 433.476C163.049 419.64 163.44 405.804 163.836 391.968C164.183 379.457 164.535 366.946 164.892 354.435C165.007 350.314 165.123 346.189 165.239 342.063C165.416 335.854 165.591 329.644 165.763 323.435C165.786 322.565 165.817 321.702 165.84 320.831C165.855 320.069 165.878 319.314 165.901 318.551C166.241 306.494 166.58 294.435 166.919 282.374C167.058 277.628 167.191 272.88 167.32 268.13C167.474 262.714 167.628 257.301 167.782 251.89C167.852 249.51 167.913 247.137 167.983 244.756C168.012 243.233 168.63 241.78 169.708 240.703C170.786 239.626 172.24 239.008 173.764 238.979C175.293 238.991 176.756 239.604 177.838 240.684C178.919 241.765 179.533 243.228 179.545 244.756Z" fill="#3F3D56"/>
<path d="M496.679 246.36C490.617 269.301 483.371 291.914 474.972 314.108C472.654 320.229 470.283 326.339 467.748 332.375L468.331 330.995C467.2 333.87 465.755 336.611 464.022 339.17C463.905 339.335 463.785 339.498 463.663 339.66C464.262 338.895 464.375 338.743 464.004 339.206C463.808 339.438 463.615 339.67 463.412 339.896C462.873 340.5 462.294 341.067 461.679 341.593C461.524 341.726 461.367 341.855 461.207 341.982L461.93 341.42C461.846 341.618 461.257 341.881 461.074 341.993C460.48 342.351 459.86 342.665 459.22 342.931L460.601 342.349C459.552 342.771 458.458 343.071 457.34 343.243L458.877 343.037C457.778 343.188 456.665 343.2 455.564 343.072L457.101 343.278C456.199 343.154 455.318 342.917 454.476 342.572L455.857 343.155C455.408 342.959 454.975 342.728 454.563 342.464C454.354 342.328 453.711 341.841 454.551 342.483C455.425 343.15 454.664 342.54 454.484 342.363C454.334 342.215 454.199 342.055 454.052 341.905C453.373 341.208 454.82 343.104 454.358 342.289C454.111 341.88 453.885 341.459 453.681 341.028L454.264 342.408C453.999 341.751 453.811 341.066 453.703 340.366L453.91 341.901C453.799 341.031 453.798 340.149 453.907 339.278L453.701 340.814C453.842 339.842 454.099 338.89 454.467 337.979L453.885 339.36C454.141 338.747 454.445 338.155 454.793 337.589C454.953 337.296 455.141 337.02 455.354 336.763C455.392 336.776 454.376 337.929 454.915 337.347C455.056 337.194 455.188 337.034 455.331 336.883C455.559 336.641 455.804 336.42 456.044 336.191C456.849 335.425 454.917 336.935 455.847 336.329C456.52 335.887 457.229 335.5 457.966 335.174L456.585 335.757C457.819 335.25 459.113 334.903 460.435 334.724L458.898 334.931C460.554 334.74 462.227 334.76 463.878 334.99L462.341 334.783C464.432 335.1 466.475 335.674 468.424 336.493L467.043 335.911C471.198 337.694 474.877 340.34 478.55 342.935C482.098 345.503 485.836 347.796 489.732 349.797C498.112 353.961 507.134 356.689 516.419 357.865C529.735 359.496 543.248 357.758 555.717 352.811C568.186 347.864 579.213 339.867 587.785 329.553C588.831 328.444 589.433 326.99 589.478 325.467C589.467 323.937 588.86 322.471 587.785 321.381C585.664 319.436 581.658 318.886 579.609 321.381C577.668 323.75 575.581 325.995 573.361 328.104C572.324 329.087 571.26 330.04 570.168 330.962C569.544 331.489 568.912 332.006 568.271 332.512C567.968 332.751 567.023 333.389 568.474 332.36C568.141 332.596 567.822 332.853 567.494 333.095C562.64 336.672 557.379 339.662 551.822 342.004L553.203 341.422C547.24 343.922 540.977 345.637 534.571 346.524L536.108 346.318C529.519 347.184 522.844 347.174 516.257 346.288L517.794 346.495C511.209 345.591 504.768 343.837 498.634 341.279L500.015 341.861C494.095 339.244 488.477 335.991 483.26 332.161C480.545 330.152 477.681 328.351 474.694 326.773C471.214 324.997 467.446 323.852 463.565 323.392C456.29 322.537 448.876 325.369 444.876 331.651C441.195 337.433 441.242 345.706 446.397 350.622C451.706 355.685 459.747 355.642 466.003 352.475C472.029 349.425 475.648 343.088 478.194 337.112C483.922 323.665 488.993 309.908 493.718 296.08C498.392 282.399 502.631 268.58 506.435 254.623C506.906 252.894 507.37 251.164 507.828 249.432C508.599 246.513 506.856 243.022 503.79 242.324C502.313 241.944 500.745 242.153 499.418 242.905C498.091 243.658 497.109 244.897 496.679 246.36Z" fill="#3F3D56"/>
<path d="M554.36 244.756L552.28 318.553L550.21 391.966L549.039 433.477C549.052 435.005 549.665 436.467 550.747 437.548C551.828 438.629 553.291 439.241 554.82 439.254C556.344 439.225 557.798 438.607 558.875 437.53C559.953 436.452 560.572 435 560.601 433.477L562.682 359.68L564.752 286.267L565.923 244.756C565.91 243.228 565.296 241.766 564.215 240.685C563.134 239.604 561.671 238.992 560.142 238.979C558.617 239.008 557.164 239.626 556.086 240.703C555.008 241.781 554.39 243.233 554.36 244.756Z" fill="#3F3D56"/>
<path opacity="0.2" d="M354.259 412.872H356.054V331.18H397.931V329.39H356.054V294.92H388.394C387.92 294.318 387.432 293.723 386.93 293.135H356.054V270.368C355.46 270.115 354.862 269.872 354.259 269.642V293.135H319.07V263.965C318.467 263.992 317.873 264.034 317.274 264.084V293.135H289.201V271.371C288.598 271.638 288.005 271.919 287.415 272.213V293.135H263.816V294.92H287.415V329.39H263.816V331.18H287.415V412.872H289.201V331.18C292.888 331.179 296.539 331.904 299.945 333.314C303.352 334.724 306.447 336.791 309.054 339.396C311.661 342.002 313.728 345.095 315.139 348.499C316.55 351.904 317.275 355.552 317.274 359.237V412.872H319.07V331.18H354.259V412.872ZM289.201 329.39V294.92H317.274V329.39H289.201ZM319.07 329.39V294.92H319.774C324.303 294.921 328.787 295.812 332.971 297.545C337.155 299.277 340.957 301.816 344.159 305.017C347.362 308.218 349.902 312.018 351.634 316.2C353.367 320.382 354.259 324.864 354.259 329.39H319.07Z" fill="black"/>
<path d="M343.294 388.378C341.034 398.453 335.621 407.547 327.84 414.34C327.269 414.833 326.699 415.31 326.105 415.78C324.664 415.911 323.233 416.045 321.812 416.181C320.633 416.289 319.469 416.404 318.312 416.512L318.104 416.535L317.958 415.272L317.372 410.157C315.099 406.448 313.691 402.277 313.25 397.951C312.81 393.625 313.349 389.255 314.828 385.165C316.863 379.68 320.548 374.835 324.171 370.027C329.173 363.387 334.037 356.823 334.214 348.727C336.676 351.875 338.722 355.326 340.304 358.996C338.811 359.698 337.471 360.684 336.357 361.9C336.041 362.247 335.725 362.732 335.941 363.148C336.126 363.502 336.588 363.587 336.989 363.633C337.953 363.733 338.924 363.834 339.887 363.934C340.658 364.019 341.429 364.096 342.2 364.18C343.132 367.239 343.765 370.382 344.088 373.564C344.608 378.513 344.34 383.513 343.294 388.378Z" fill="#3F3D56"/>
<path d="M368.887 368.187C364.34 371.492 361.68 376.245 359.614 381.483C357.497 382.161 355.593 383.377 354.088 385.012C353.772 385.358 353.456 385.844 353.672 386.26C353.857 386.614 354.319 386.699 354.72 386.745C355.683 386.845 356.655 386.945 357.618 387.046C355.552 393.239 353.656 399.649 350.002 404.88C347.573 408.333 344.405 411.204 340.73 413.285C339.727 413.855 338.693 414.367 337.631 414.818C333.715 415.118 329.874 415.439 326.107 415.781C324.666 415.912 323.235 416.045 321.814 416.181C320.635 416.289 319.471 416.405 318.314 416.513C318.307 416.089 318.307 415.665 318.314 415.241C318.558 403.954 322.713 393.101 330.069 384.534C330.416 384.134 330.771 383.741 331.133 383.348C334.86 379.369 339.243 376.06 344.09 373.564C351.729 369.595 360.29 367.738 368.887 368.187Z" fill="#00BE7B"/>
<path d="M323.149 412.23L322.262 414.849L321.815 416.182C320.636 416.289 319.472 416.405 318.316 416.513L318.108 416.536C316.828 416.667 315.556 416.798 314.284 416.929C313.953 416.544 313.621 416.151 313.298 415.75C305.252 406.013 301.39 393.488 302.556 380.914C303.721 368.339 309.82 356.737 319.518 348.643C318.501 353.966 319.688 359.066 321.638 364.127C321.43 364.212 321.229 364.297 321.037 364.389C319.544 365.091 318.204 366.078 317.09 367.293C316.774 367.64 316.458 368.125 316.674 368.541C316.859 368.896 317.321 368.981 317.722 369.027C318.686 369.127 319.657 369.227 320.62 369.327C321.391 369.412 322.162 369.489 322.933 369.574C323.295 369.612 323.657 369.651 324.02 369.689C324.074 369.805 324.12 369.913 324.174 370.028C326.371 374.789 328.737 379.573 330.071 384.534C330.405 385.779 330.667 387.042 330.857 388.317C331.45 392.625 331.066 397.012 329.731 401.152C328.397 405.291 326.147 409.078 323.149 412.23Z" fill="#00BE7B"/>
<path d="M400.736 300.494C394.101 287.558 383.82 276.674 371.729 268.675C359.599 260.688 345.68 255.823 331.213 254.516C329.317 254.343 327.416 254.242 325.51 254.213C323.258 254.179 289.385 263.944 278.038 271.918C266.697 279.794 257.367 290.225 250.803 302.369C244.249 314.579 241.026 328.297 241.456 342.146C242.018 356.078 245.903 369.675 252.789 381.802C259.581 393.89 269.224 404.136 280.881 411.651C292.703 419.19 304.579 439.181 318.538 439.886C332.602 440.597 348.642 421.74 361.469 416.014C374.296 410.241 385.385 401.209 393.631 389.818C401.645 378.655 406.828 365.715 408.739 352.109C410.722 338.179 409.798 323.811 405.038 310.497C403.816 307.075 402.38 303.735 400.736 300.494C399.365 297.794 395.344 296.8 392.827 298.422C391.53 299.22 390.591 300.487 390.205 301.959C389.818 303.431 390.015 304.996 390.753 306.327C391.558 307.913 392.307 309.525 393 311.163L392.417 309.783C395.038 316.081 396.82 322.695 397.718 329.457L397.511 327.921C398.466 335.256 398.449 342.686 397.46 350.017L397.667 348.481C396.667 355.812 394.71 362.98 391.843 369.801L392.426 368.421C390.952 371.901 389.233 375.273 387.284 378.511C386.295 380.147 385.247 381.745 384.138 383.304C383.651 383.988 383.149 384.661 382.644 385.331C381.984 386.206 383.543 384.189 382.861 385.047C382.745 385.193 382.63 385.339 382.513 385.485C382.163 385.923 381.808 386.356 381.448 386.785C379.045 389.651 376.422 392.326 373.604 394.785C372.902 395.397 372.188 395.996 371.463 396.581C371.101 396.872 370.744 397.176 370.367 397.447C370.382 397.437 371.585 396.523 370.873 397.053C370.649 397.22 370.427 397.389 370.202 397.555C368.707 398.663 367.172 399.713 365.597 400.708C361.972 402.991 358.168 404.978 354.223 406.65L355.604 406.067C348.8 408.931 341.648 410.886 334.333 411.885L335.869 411.679C328.558 412.666 321.148 412.679 313.833 411.718L315.369 411.924C308.721 411.032 302.218 409.275 296.026 406.697L297.407 407.28C293.82 405.766 290.362 403.965 287.065 401.894C285.434 400.867 283.845 399.776 282.299 398.622C282.078 398.457 281.86 398.29 281.64 398.125C280.934 397.592 282.147 398.517 282.157 398.524C281.746 398.23 281.351 397.915 280.973 397.58C280.227 396.972 279.491 396.35 278.768 395.715C275.873 393.166 273.169 390.409 270.68 387.464C270.056 386.728 269.446 385.98 268.85 385.222C268.591 384.894 268.12 384.228 269.161 385.629C269.024 385.445 268.882 385.264 268.744 385.081C268.412 384.64 268.084 384.197 267.76 383.75C266.628 382.184 265.552 380.58 264.532 378.938C262.227 375.22 260.216 371.329 258.516 367.299L259.099 368.679C256.317 362.064 254.415 355.113 253.441 348.004L253.647 349.54C252.768 342.987 252.756 336.347 253.61 329.791L253.403 331.327C254.279 324.978 255.988 318.772 258.486 312.869L257.904 314.25C259.476 310.554 261.33 306.986 263.45 303.575C264.511 301.868 265.636 300.203 266.824 298.579C267.094 298.21 267.367 297.844 267.643 297.479C267.893 297.15 268.58 296.329 267.408 297.779C267.523 297.637 267.633 297.49 267.746 297.347C268.398 296.521 269.066 295.709 269.75 294.909C272.338 291.881 275.142 289.043 278.139 286.419C278.897 285.755 279.666 285.106 280.448 284.47C280.803 284.181 281.16 283.896 281.52 283.613C281.664 283.5 281.809 283.389 281.953 283.275C280.413 284.5 281.525 283.608 281.874 283.347C283.485 282.14 285.138 280.995 286.835 279.91C290.606 277.499 294.573 275.41 298.695 273.663L297.314 274.246C303.295 271.736 329.797 265.811 334.617 266.458L333.08 266.251C340.164 267.24 347.088 269.152 353.676 271.938L352.295 271.356C355.633 272.773 358.877 274.401 362.007 276.232C363.571 277.148 365.104 278.114 366.607 279.13C367.318 279.611 368.021 280.103 368.717 280.606C369.065 280.857 369.411 281.111 369.755 281.367C369.946 281.51 370.136 281.654 370.327 281.797C371.128 282.398 369.223 280.928 370.063 281.592C372.873 283.799 375.542 286.18 378.055 288.72C379.288 289.976 380.48 291.272 381.629 292.607C382.218 293.292 382.795 293.988 383.36 294.693C383.641 295.043 384.597 296.312 383.425 294.758C383.712 295.138 384.002 295.515 384.284 295.897C386.72 299.193 388.883 302.681 390.753 306.327C392.135 309.021 396.138 310.026 398.662 308.4C399.96 307.602 400.899 306.335 401.285 304.863C401.672 303.39 401.475 301.826 400.736 300.494Z" fill="#3F3D56"/>
<path d="M333.374 394.785C332.778 394.812 332.187 394.655 331.682 394.336C331.177 394.017 330.783 393.55 330.553 392.999C330.322 392.448 330.267 391.84 330.394 391.257C330.521 390.673 330.824 390.143 331.263 389.738C331.336 389.446 331.389 389.236 331.462 388.944C331.436 388.881 331.41 388.817 331.383 388.754C328.701 382.362 311.585 400.181 310.845 406.189C310.519 408.844 310.656 411.536 311.251 414.145C305.707 402.058 302.828 388.921 302.809 375.624C302.808 372.287 302.994 368.953 303.365 365.637C303.672 362.919 304.098 360.22 304.642 357.54C307.614 343.001 313.994 329.373 323.258 317.776C328.557 318.072 333.2 317.265 333.649 307.002C333.728 305.176 335.083 303.596 335.382 301.797C334.876 301.864 334.362 301.905 333.856 301.938C333.698 301.946 333.533 301.955 333.375 301.963L333.316 301.966C332.76 301.991 332.208 301.854 331.728 301.574C331.248 301.293 330.859 300.879 330.609 300.382C330.358 299.886 330.257 299.327 330.316 298.774C330.376 298.221 330.594 297.697 330.945 297.266C331.163 296.997 331.382 296.728 331.6 296.46C331.932 296.046 332.272 295.64 332.604 295.225C332.642 295.186 332.678 295.144 332.712 295.101C333.093 294.628 333.475 294.164 333.856 293.692C333.16 292.612 332.223 291.707 331.12 291.048C327.297 288.811 322.023 290.36 319.261 293.816C316.492 297.272 315.969 302.121 316.931 306.438C317.877 310.113 319.442 313.599 321.558 316.748C321.351 317.014 321.135 317.27 320.928 317.536C317.139 322.406 313.836 327.636 311.067 333.15C311.85 327.034 302.271 304.948 298.566 300.27C294.116 294.65 284.991 297.103 284.207 304.226C284.2 304.295 284.192 304.364 284.185 304.433C284.735 304.743 285.274 305.072 285.801 305.421C286.463 305.863 286.976 306.495 287.273 307.233C287.569 307.971 287.636 308.782 287.464 309.559C287.291 310.336 286.888 311.043 286.307 311.587C285.726 312.131 284.994 312.487 284.207 312.609L284.127 312.621C276.761 323.132 300.374 350.489 306.284 344.346C303.502 352.225 301.757 360.433 301.093 368.762C300.717 373.676 300.739 378.612 301.159 383.522L301.134 383.348C299.821 372.653 277.292 356.753 270.713 358.077C266.923 358.84 263.191 358.667 263.766 362.487C263.775 362.548 263.785 362.609 263.794 362.67C264.815 363.086 265.809 363.565 266.771 364.104C267.321 364.414 267.86 364.744 268.387 365.092C269.049 365.534 269.562 366.166 269.859 366.904C270.155 367.643 270.222 368.454 270.05 369.231C269.878 370.008 269.475 370.714 268.893 371.259C268.312 371.803 267.58 372.159 266.793 372.28L266.713 372.292C266.655 372.301 266.605 372.309 266.547 372.317C263.194 383.847 288.058 402.454 303.174 396.534H303.183C304.681 403.04 306.851 409.372 309.659 415.43H332.795C332.878 415.173 332.952 414.907 333.027 414.651C330.885 414.785 328.735 414.657 326.625 414.269C328.342 412.164 330.058 410.043 331.775 407.938C331.813 407.898 331.849 407.857 331.882 407.813C332.753 406.736 333.632 405.667 334.503 404.589L334.503 404.588C334.55 401.286 334.17 397.991 333.375 394.785L333.374 394.785ZM306.881 342.697L306.893 342.681L306.881 342.714V342.697ZM301.756 388.868L301.557 388.42C301.566 388.097 301.566 387.774 301.557 387.442C301.557 387.351 301.541 387.26 301.541 387.169C301.615 387.741 301.682 388.312 301.765 388.884L301.756 388.868Z" fill="#3F3D56"/>
<path d="M73.4203 346.671C78.1031 346.671 81.8993 342.877 81.8993 338.197C81.8993 333.517 78.1031 329.723 73.4203 329.723C68.7376 329.723 64.9414 333.517 64.9414 338.197C64.9414 342.877 68.7376 346.671 73.4203 346.671Z" fill="#3F3D56"/>
<path d="M175.166 439.116C179.849 439.116 183.645 435.322 183.645 430.642C183.645 425.962 179.849 422.168 175.166 422.168C170.484 422.168 166.688 425.962 166.688 430.642C166.688 435.322 170.484 439.116 175.166 439.116Z" fill="#3F3D56"/>
<path d="M561.342 439.116C566.025 439.116 569.821 435.322 569.821 430.642C569.821 425.962 566.025 422.168 561.342 422.168C556.659 422.168 552.863 425.962 552.863 430.642C552.863 435.322 556.659 439.116 561.342 439.116Z" fill="#3F3D56"/>
<path d="M582.155 331.263C586.838 331.263 590.634 327.469 590.634 322.789C590.634 318.108 586.838 314.314 582.155 314.314C577.472 314.314 573.676 318.108 573.676 322.789C573.676 327.469 577.472 331.263 582.155 331.263Z" fill="#3F3D56"/>
<path d="M557.491 252.685C562.173 252.685 565.97 248.891 565.97 244.21C565.97 239.53 562.173 235.736 557.491 235.736C552.808 235.736 549.012 239.53 549.012 244.21C549.012 248.891 552.808 252.685 557.491 252.685Z" fill="#3F3D56"/>
<path d="M203.688 322.789C203.683 324.953 202.845 327.033 201.349 328.598C199.852 330.162 197.811 331.092 195.647 331.194C193.484 331.297 191.364 330.564 189.726 329.147C188.088 327.731 187.058 325.74 186.848 323.585C186.639 321.431 187.266 319.278 188.6 317.573C189.934 315.868 191.873 314.741 194.016 314.424C196.158 314.108 198.341 314.628 200.111 315.875C201.881 317.122 203.104 319.002 203.526 321.125C203.635 321.673 203.689 322.23 203.688 322.789Z" fill="#3F3D56"/>
<path d="M373.264 277.337C377.947 277.337 381.743 273.543 381.743 268.863C381.743 264.183 377.947 260.389 373.264 260.389C368.581 260.389 364.785 264.183 364.785 268.863C364.785 273.543 368.581 277.337 373.264 277.337Z" fill="#3F3D56"/>
<path d="M289.246 268.863C289.241 271.028 288.404 273.107 286.907 274.672C285.41 276.237 283.369 277.166 281.206 277.269C279.042 277.371 276.922 276.638 275.285 275.222C273.647 273.805 272.616 271.814 272.407 269.659C272.197 267.505 272.824 265.352 274.159 263.647C275.493 261.942 277.432 260.815 279.574 260.499C281.717 260.183 283.899 260.702 285.67 261.949C287.44 263.196 288.662 265.076 289.085 267.199C289.193 267.747 289.248 268.304 289.246 268.863Z" fill="#3F3D56"/>
<path d="M179.789 244.211C179.784 246.375 178.947 248.455 177.45 250.02C175.953 251.584 173.912 252.514 171.749 252.616C169.585 252.719 167.465 251.986 165.827 250.569C164.19 249.153 163.159 247.161 162.95 245.007C162.74 242.853 163.367 240.7 164.702 238.995C166.036 237.29 167.975 236.162 170.117 235.846C172.26 235.53 174.442 236.049 176.212 237.297C177.983 238.544 179.205 240.423 179.628 242.547C179.736 243.095 179.791 243.652 179.789 244.211Z" fill="#3F3D56"/>
<path d="M461.909 349.751C466.591 349.751 470.388 345.957 470.388 341.277C470.388 336.597 466.591 332.803 461.909 332.803C457.226 332.803 453.43 336.597 453.43 341.277C453.43 345.957 457.226 349.751 461.909 349.751Z" fill="#3F3D56"/>
<path d="M328.56 272.715C335.371 272.715 340.893 267.196 340.893 260.389C340.893 253.581 335.371 248.062 328.56 248.062C321.748 248.062 316.227 253.581 316.227 260.389C316.227 267.196 321.748 272.715 328.56 272.715Z" fill="#3F3D56"/>
<path d="M662.082 439.762L0.917786 439.999C0.79726 439.999 0.677911 439.975 0.566559 439.929C0.455208 439.883 0.354038 439.816 0.268813 439.73C0.183588 439.645 0.115976 439.544 0.0698525 439.433C0.0237292 439.322 0 439.202 0 439.082C0 438.961 0.0237292 438.842 0.0698525 438.731C0.115976 438.619 0.183588 438.518 0.268813 438.433C0.354038 438.348 0.455208 438.28 0.566559 438.234C0.677911 438.188 0.79726 438.164 0.917786 438.164L662.082 437.928C662.325 437.928 662.558 438.025 662.729 438.197C662.901 438.369 662.997 438.602 662.997 438.845C662.997 439.088 662.901 439.321 662.729 439.493C662.558 439.665 662.325 439.762 662.082 439.762Z" fill="#CACACA"/>
</g>
<defs>
<clipPath id="clip0_643_5440">
<rect width="663" height="440" fill="white"/>
</clipPath>
</defs>
</svg>
