<svg width="587" height="660" viewBox="0 0 587 660" fill="none" xmlns="http://www.w3.org/2000/svg">
<g clip-path="url(#clip0_1211_5566)">
<path d="M332.48 508C472.761 508 586.48 394.28 586.48 254C586.48 113.72 472.761 0 332.48 0C192.2 0 78.4805 113.72 78.4805 254C78.4805 394.28 192.2 508 332.48 508Z" fill="#F9D1D1"/>
<path d="M498.464 113.59H33.1707C32.173 113.568 31.3814 112.742 31.4028 111.745C31.4235 110.777 32.203 109.997 33.1707 109.977H498.464C499.461 109.998 500.253 110.824 500.232 111.822C500.211 112.789 499.431 113.569 498.464 113.59Z" fill="#CACACA"/>
<path d="M339.892 174.473H211.267C201.605 174.473 193.773 182.305 193.773 191.966V191.966C193.773 201.627 201.605 209.459 211.267 209.459H339.892C349.553 209.459 357.385 201.627 357.385 191.966C357.385 182.305 349.553 174.473 339.892 174.473Z" fill="white"/>
<path d="M128.177 244.445H422.987C432.648 244.445 440.48 252.277 440.48 261.939C440.48 271.6 432.648 279.432 422.987 279.432H128.177C118.516 279.432 110.684 271.6 110.684 261.939C110.684 252.277 118.516 244.445 128.177 244.445Z" fill="white"/>
<path d="M128.177 314.418H422.987C432.648 314.418 440.48 322.25 440.48 331.911C440.48 341.572 432.648 349.404 422.987 349.404H128.177C118.516 349.404 110.684 341.572 110.684 331.911C110.684 322.25 118.516 314.418 128.177 314.418Z" fill="white"/>
<path d="M91.6427 657.759L90.9489 657.691C67.4082 655.262 46.1275 642.602 32.7604 623.073C29.0991 617.631 26.1375 611.75 23.9454 605.569L23.7348 604.979L24.3585 604.928C31.8055 604.329 39.4558 603.066 42.8544 602.464L20.9396 595.039L20.8041 594.389C19.5049 588.285 22.0502 582.004 27.2326 578.527C32.429 574.883 39.3199 574.766 44.6367 578.233C47.0227 579.757 49.5183 581.266 51.9316 582.726C60.2248 587.743 68.8004 592.93 75.2298 600.027C84.9794 611.005 89.2528 625.797 86.8598 640.283L91.6427 657.759Z" fill="#F2F2F2"/>
<path d="M171.3 646.862L182.1 646.861L187.239 605.199L171.297 605.2L171.3 646.862Z" fill="#A0616A"/>
<path d="M170.919 658.128L204.133 658.126V657.706C204.132 650.567 198.345 644.779 191.205 644.779L185.137 640.176L173.817 644.779L170.918 644.779L170.919 658.128Z" fill="#2F2E41"/>
<path d="M84.7422 616.943L93.3812 623.424L122.494 593.183L109.742 583.617L84.7422 616.943Z" fill="#A0616A"/>
<path d="M77.6758 625.728L104.245 645.66L104.497 645.324C108.781 639.613 107.625 631.51 101.914 627.225L99.8226 619.902L88.0053 616.791L85.686 615.051L77.6758 625.728Z" fill="#2F2E41"/>
<path d="M120.645 451.351C120.645 451.351 121.241 467.616 121.993 480.659C122.117 482.798 117.105 485.122 117.235 487.449C117.321 488.993 118.263 490.494 118.351 492.104C118.443 493.803 117.142 495.306 117.235 497.063C117.326 498.78 118.809 500.749 118.899 502.506C119.862 521.415 123.353 544.052 119.857 550.38C118.134 553.499 96.1719 596.705 96.1719 596.705C96.1719 596.705 108.409 615.06 111.905 608.941C116.522 600.86 152.111 563.054 152.111 555.834C152.111 548.623 160.344 494.581 160.344 494.581L166.085 526.563L168.718 532.899L167.891 536.619L169.592 541.64L169.684 546.608L171.34 555.834C171.34 555.834 166.358 627.716 169.164 629.717C171.978 631.728 185.604 635.338 187.213 631.728C188.812 628.118 199.223 556.708 199.223 556.708C199.223 556.708 200.901 523.984 202.72 493.567C202.824 491.802 204.066 489.669 204.162 487.93C204.275 485.911 203.489 483.288 203.594 481.331C203.707 479.084 204.704 477.502 204.8 475.352C205.543 458.736 201.372 438.503 200.044 436.51C196.032 430.497 192.422 425.689 192.422 425.689C192.422 425.689 138.386 407.935 123.947 425.976L120.645 451.351Z" fill="#2F2E41"/>
<path d="M174.539 284.104L153.118 279.82L143.122 293.387C124.469 311.727 124.188 327.914 127.518 353.861V390.276L125.108 414.688C125.108 414.688 116.577 432.533 125.376 436.688C134.176 440.843 191.975 440.489 197.493 438.83C203.012 437.172 198.228 435.135 196.779 427.406C194.057 412.886 195.878 419.89 196.065 415.267C198.751 348.954 192.495 321.729 191.86 314.573L180.966 294.815L174.539 284.104Z" fill="#3F3D56"/>
<path d="M287.44 337.571C285.207 341.801 279.968 343.421 275.738 341.188C275.287 340.95 274.858 340.673 274.456 340.359L228.195 369.732L228.329 353.74L273.267 327.662C276.468 324.073 281.972 323.758 285.561 326.959C288.564 329.638 289.341 334.025 287.44 337.571Z" fill="#A0616A"/>
<path d="M157.625 302.625L152.359 302.067C147.492 301.562 142.718 303.646 139.779 307.558C138.654 309.041 137.845 310.74 137.404 312.549L137.401 312.564C136.08 318.009 138.152 323.716 142.659 327.045L160.849 340.456C173.615 357.705 197.606 369.149 225.748 378.446L269.49 351.279L254.018 332.541L224.015 348.62L179.417 314.097L179.391 314.076L162.417 303.14L157.625 302.625Z" fill="#3F3D56"/>
<path d="M167.3 273.585C181.096 273.585 192.28 262.401 192.28 248.605C192.28 234.809 181.096 223.625 167.3 223.625C153.504 223.625 142.32 234.809 142.32 248.605C142.32 262.401 153.504 273.585 167.3 273.585Z" fill="#A0616A"/>
<path d="M167.876 273.59C167.675 273.596 167.473 273.601 167.271 273.606C167.185 273.83 167.092 274.052 166.984 274.27L167.876 273.59Z" fill="#2F2E41"/>
<path d="M174.734 249.297C174.774 249.543 174.833 249.785 174.914 250.021C174.88 249.774 174.82 249.531 174.734 249.297Z" fill="#2F2E41"/>
<path d="M192.598 224.694C191.57 227.887 190.652 223.837 187.27 224.565C183.201 225.442 178.466 225.141 175.134 222.647C170.169 219.004 163.735 218.023 157.911 220.022C152.209 222.039 142.657 223.461 141.172 229.323C140.655 231.361 140.45 233.573 139.199 235.262C138.104 236.738 136.377 237.58 134.933 238.717C130.055 242.554 133.783 253.456 136.091 259.217C138.4 264.978 143.695 269.174 149.517 271.324C155.149 273.404 161.263 273.77 167.272 273.607C168.317 270.896 167.866 267.766 167.003 264.956C166.07 261.914 164.687 258.978 164.297 255.82C163.907 252.662 164.764 249.074 167.412 247.31C169.846 245.688 173.806 246.676 174.732 249.298C174.192 246.02 177.513 242.847 180.937 242.289C184.614 241.69 188.29 243.018 191.956 243.678C195.622 244.339 194.321 228.905 192.598 224.694Z" fill="#2F2E41"/>
<path d="M332.303 289.928C334.632 261.792 313.711 237.095 285.574 234.766C257.437 232.437 232.74 253.359 230.412 281.496C228.083 309.632 249.005 334.329 277.141 336.658C305.278 338.986 329.975 318.065 332.303 289.928Z" fill="#EE5945"/>
<path d="M294.788 264.412L281.36 277.84L267.932 264.412C265.758 262.238 262.234 262.238 260.06 264.412C257.886 266.585 257.886 270.11 260.06 272.283L273.488 285.712L260.06 299.14C257.888 301.316 257.892 304.84 260.067 307.012C262.24 309.18 265.759 309.18 267.932 307.012L281.36 293.583L294.788 307.012C296.964 309.183 300.488 309.18 302.66 307.004C304.829 304.831 304.829 301.313 302.66 299.14L289.232 285.712L302.66 272.283C304.834 270.11 304.834 266.585 302.66 264.412C300.486 262.238 296.962 262.238 294.788 264.412Z" fill="white"/>
<path d="M261.212 242.744C262.719 247.284 260.261 252.185 255.721 253.692C255.237 253.853 254.74 253.971 254.235 254.044L243.405 307.761L231.957 296.593L244.25 246.111C243.876 241.316 247.46 237.127 252.254 236.753C256.266 236.44 259.969 238.917 261.212 242.744Z" fill="#A0616A"/>
<path d="M146.126 312.226L142.077 315.64C138.344 318.802 136.543 323.691 137.331 328.519C137.622 330.358 138.289 332.118 139.289 333.689L139.297 333.701C142.312 338.424 147.864 340.879 153.387 339.932L175.657 336.09C196.942 338.82 221.809 329.431 248 315.56L258.68 265.187L234.447 263.379L225.279 296.162L169.491 304.443L169.458 304.447L149.815 309.125L146.126 312.226Z" fill="#3F3D56"/>
<path d="M272.937 658.991L1.18684 659.298C0.529247 659.296 -0.00212362 658.761 6.38126e-06 658.104C0.00211638 657.449 0.532236 656.919 1.18684 656.917L272.937 656.609C273.594 656.612 274.126 657.146 274.124 657.804C274.122 658.458 273.591 658.989 272.937 658.991Z" fill="#CACACA"/>
<path d="M56.7769 90.7042C61.4474 90.7042 65.2335 86.8337 65.2335 82.0591C65.2335 77.2846 61.4474 73.4141 56.7769 73.4141C52.1065 73.4141 48.3203 77.2846 48.3203 82.0591C48.3203 86.8337 52.1065 90.7042 56.7769 90.7042Z" fill="#3F3D56"/>
<path d="M85.9918 90.7042C90.6622 90.7042 94.4484 86.8337 94.4484 82.0591C94.4484 77.2846 90.6622 73.4141 85.9918 73.4141C81.3213 73.4141 77.5352 77.2846 77.5352 82.0591C77.5352 86.8337 81.3213 90.7042 85.9918 90.7042Z" fill="#3F3D56"/>
<path d="M115.203 90.7042C119.873 90.7042 123.659 86.8337 123.659 82.0591C123.659 77.2846 119.873 73.4141 115.203 73.4141C110.532 73.4141 106.746 77.2846 106.746 82.0591C106.746 86.8337 110.532 90.7042 115.203 90.7042Z" fill="#3F3D56"/>
<path d="M148.515 88.8916C148.255 88.8916 147.996 88.791 147.8 88.5908L142.094 82.7578C141.714 82.3691 141.714 81.748 142.094 81.3594L147.8 75.5269C148.187 75.1323 148.821 75.126 149.214 75.5112C149.609 75.8975 149.616 76.5308 149.23 76.9253L144.208 82.0586L149.23 87.1924C149.616 87.5869 149.609 88.2202 149.214 88.6064C149.02 88.7969 148.767 88.8916 148.515 88.8916Z" fill="#3F3D56"/>
<path d="M158.106 88.8923C157.853 88.8923 157.601 88.7976 157.406 88.6072C157.011 88.2209 157.004 87.5881 157.391 87.1931L162.412 82.0593L157.391 76.926C157.004 76.5315 157.011 75.8982 157.406 75.512C157.8 75.1252 158.434 75.1326 158.82 75.5276L164.526 81.3601C164.906 81.7488 164.906 82.3699 164.526 82.7585L158.82 88.5916C158.625 88.7918 158.365 88.8923 158.106 88.8923Z" fill="#3F3D56"/>
<path d="M456.612 74.4141H446.003C444.792 74.4141 443.812 75.394 443.812 76.6041V87.2241C443.812 88.4341 444.792 89.4141 446.003 89.4141H456.612C457.823 89.4141 458.812 88.4341 458.812 87.2241V76.6041C458.812 75.394 457.823 74.4141 456.612 74.4141Z" fill="#3F3D56"/>
<path d="M430.612 74.4141H420.003C418.792 74.4141 417.812 75.394 417.812 76.6041V87.2241C417.812 88.4341 418.792 89.4141 420.003 89.4141H430.612C431.823 89.4141 432.812 88.4341 432.812 87.2241V76.6041C432.812 75.394 431.823 74.4141 430.612 74.4141Z" fill="#3F3D56"/>
<path d="M481.112 74.9141H470.503C469.292 74.9141 468.312 75.894 468.312 77.1041V87.7241C468.312 88.9341 469.292 89.9141 470.503 89.9141H481.112C482.323 89.9141 483.312 88.9341 483.312 87.7241V77.1041C483.312 75.894 482.323 74.9141 481.112 74.9141Z" fill="#3F3D56"/>
<path d="M321.191 78.9531H236.381C234.901 78.9531 233.711 80.1531 233.711 81.6232C233.711 83.0932 234.901 84.2931 236.381 84.2931H321.191C322.661 84.2931 323.861 83.0931 323.861 81.6232C323.861 80.1532 322.661 78.9531 321.191 78.9531Z" fill="#3F3D56"/>
</g>
<defs>
<clipPath id="clip0_1211_5566">
<rect width="586.479" height="659.298" fill="white"/>
</clipPath>
</defs>
</svg>
