<svg width="22" height="16" viewBox="0 0 22 16" fill="none" xmlns="http://www.w3.org/2000/svg">
<path d="M1.05178 8.30091C0.982806 8.10746 0.98274 7.89802 1.05159 7.70453C2.4377 3.80908 6.36838 1 11.0009 1C15.6312 1 19.5604 3.80646 20.9482 7.6991C21.0172 7.89255 21.0173 8.10198 20.9484 8.29547C19.5623 12.1909 15.6316 15 10.9991 15C6.36878 15 2.43961 12.1935 1.05178 8.30091Z" stroke="#7E827F" stroke-width="1.5" stroke-linecap="round" stroke-linejoin="round"/>
<path d="M13.9952 8C13.9952 9.5464 12.6542 10.8 11.0001 10.8C9.3459 10.8 8.00493 9.5464 8.00493 8C8.00493 6.4536 9.3459 5.2 11.0001 5.2C12.6542 5.2 13.9952 6.4536 13.9952 8Z" stroke="#7E827F" stroke-width="1.5" stroke-linecap="round" stroke-linejoin="round"/>
</svg>
