<svg width="20" height="16" viewBox="0 0 20 16" fill="none" xmlns="http://www.w3.org/2000/svg">
<path d="M1.0466 8.30091C0.984525 8.10746 0.984466 7.89802 1.04643 7.70453C2.29393 3.80908 5.83154 1 10.0008 1C14.1681 1 17.7044 3.80646 18.9534 7.6991C19.0155 7.89255 19.0155 8.10198 18.9536 8.29547C17.7061 12.1909 14.1685 15 9.99921 15C5.83191 15 2.29565 12.1935 1.0466 8.30091Z" stroke="#0F172A" stroke-width="1.5" stroke-linecap="round" stroke-linejoin="round"/>
<path d="M12.6957 8C12.6957 9.5464 11.4888 10.8 10.0001 10.8C8.51131 10.8 7.30444 9.5464 7.30444 8C7.30444 6.4536 8.51131 5.2 10.0001 5.2C11.4888 5.2 12.6957 6.4536 12.6957 8Z" stroke="#0F172A" stroke-width="1.5" stroke-linecap="round" stroke-linejoin="round"/>
</svg>
