<svg width="17" height="22" viewBox="0 0 17 22" fill="none" xmlns="http://www.w3.org/2000/svg">
<path d="M2.33984 0.639386C1.30431 0.64007 0.465398 1.48009 0.466082 2.51562L0.477478 19.7656C0.478162 20.8012 1.31818 21.6401 2.35372 21.6394L15.1037 21.631C16.1392 21.6303 16.9782 20.7903 16.9775 19.7547L16.9723 11.8797C16.9709 9.80865 15.2909 8.13083 13.2198 8.1322L11.3448 8.13344C10.3093 8.13412 9.46924 7.29521 9.46856 6.25968L9.46732 4.38468C9.46595 2.31361 7.78591 0.635789 5.71484 0.637157L2.33984 0.639386Z" fill="#3FCA62"/>
<path d="M9.68624 0.950438C10.4836 1.87048 10.9665 3.07063 10.9673 4.38369L10.9686 6.25869C10.9687 6.46579 11.1367 6.63358 11.3438 6.63344L13.2188 6.6322C14.5319 6.63133 15.7326 7.11258 16.6537 7.90874C15.7636 4.5104 13.0858 1.83606 9.68624 0.950438Z" fill="#3FCA62"/>
</svg>
