<svg width="18" height="18" viewBox="0 0 18 18" fill="none" xmlns="http://www.w3.org/2000/svg">
<path d="M5.90625 9C5.90625 9.18985 5.75235 9.34375 5.5625 9.34375C5.37265 9.34375 5.21875 9.18985 5.21875 9C5.21875 8.81015 5.37265 8.65625 5.5625 8.65625C5.75235 8.65625 5.90625 8.81015 5.90625 9ZM5.90625 9H5.5625M9.34375 9C9.34375 9.18985 9.18985 9.34375 9 9.34375C8.81015 9.34375 8.65625 9.18985 8.65625 9C8.65625 8.81015 8.81015 8.65625 9 8.65625C9.18985 8.65625 9.34375 8.81015 9.34375 9ZM9.34375 9H9M12.7813 9C12.7813 9.18985 12.6273 9.34375 12.4375 9.34375C12.2477 9.34375 12.0938 9.18985 12.0938 9C12.0938 8.81015 12.2477 8.65625 12.4375 8.65625C12.6273 8.65625 12.7813 8.81015 12.7813 9ZM12.7813 9H12.4375M17.25 9C17.25 13.1767 13.5563 16.5625 9 16.5625C8.18649 16.5625 7.40047 16.4546 6.65807 16.2535C5.76431 16.8814 4.67517 17.25 3.5 17.25C3.31738 17.25 3.13678 17.2411 2.95886 17.2237C2.8125 17.2095 2.66748 17.1894 2.52448 17.1638C2.96771 16.6407 3.28254 16.0058 3.42106 15.3074C3.50416 14.8885 3.29898 14.4816 2.99293 14.1837C1.60223 12.83 0.75 11.0062 0.75 9C0.75 4.82335 4.44365 1.4375 9 1.4375C13.5563 1.4375 17.25 4.82335 17.25 9Z" stroke="#00BE7B" stroke-width="1.5" stroke-linecap="round" stroke-linejoin="round"/>
</svg>
