<svg width="32" height="32" viewBox="0 0 32 32" fill="none" xmlns="http://www.w3.org/2000/svg">
<circle cx="16" cy="16" r="16" fill="#00BE7B"/>
<path d="M23.3929 8.6071C22.6668 7.88097 21.4895 7.88097 20.7634 8.6071L19.9437 9.42675L22.5733 12.0563L23.3929 11.2367C24.119 10.5105 24.119 9.33323 23.3929 8.6071Z" fill="white"/>
<path d="M21.822 12.8076L19.1924 10.1781L10.5856 18.7849C10.1487 19.2218 9.82752 19.7607 9.65113 20.3528L9.08462 22.2546C9.02893 22.4415 9.08018 22.644 9.21811 22.7819C9.35605 22.9198 9.55848 22.9711 9.74543 22.9154L11.6472 22.3489C12.2394 22.1725 12.7782 21.8513 13.2151 21.4144L21.822 12.8076Z" fill="white"/>
</svg>
