<svg width="24" height="24" viewBox="0 0 24 24" fill="none" xmlns="http://www.w3.org/2000/svg">
<path fill-rule="evenodd" clip-rule="evenodd" d="M7.49887 6C7.49887 3.51472 9.51358 1.5 11.9989 1.5C14.4841 1.5 16.4989 3.51472 16.4989 6C16.4989 8.48528 14.4841 10.5 11.9989 10.5C9.51358 10.5 7.49887 8.48528 7.49887 6Z" fill="#4260F5"/>
<path fill-rule="evenodd" clip-rule="evenodd" d="M3.75011 20.1053C3.82745 15.6156 7.49085 12 11.9989 12C16.507 12 20.1705 15.6157 20.2476 20.1056C20.2527 20.4034 20.0812 20.676 19.8105 20.8002C17.4316 21.8918 14.7854 22.5 11.9992 22.5C9.21273 22.5 6.5663 21.8917 4.18719 20.7999C3.91652 20.6757 3.74498 20.4031 3.75011 20.1053Z" fill="#4260F5"/>
</svg>
