<svg width="84" height="97" viewBox="0 0 84 97" fill="none" xmlns="http://www.w3.org/2000/svg">
<path d="M41.8281 26.0413C41.8281 17.0643 48.9324 10.3706 58.6715 9.78711H72.8427C73.3238 9.78711 73.7138 10.2419 73.7138 10.803C72.8427 20.4447 68.2439 26.2792 57.3707 27.0571H42.6992C42.2181 27.0571 41.8281 26.6023 41.8281 26.0413Z" fill="#00BE7B"/>
<path d="M41.8281 26.0413C41.8281 17.0643 48.9324 10.3706 58.6715 9.78711H72.8427C73.3238 9.78711 73.7138 10.2419 73.7138 10.803C72.8427 20.4447 68.2439 26.2792 57.3707 27.0571H42.6992C42.2181 27.0571 41.8281 26.6023 41.8281 26.0413Z" fill="url(#paint0_linear_110_3677)"/>
<path d="M41.8281 26.0413C41.8281 17.0643 48.9324 10.3706 58.6715 9.78711H72.8427C73.3238 9.78711 73.7138 10.2419 73.7138 10.803C72.8427 20.4447 68.2439 26.2792 57.3707 27.0571H42.6992C42.2181 27.0571 41.8281 26.6023 41.8281 26.0413Z" fill="url(#paint1_linear_110_3677)"/>
<path d="M41.8281 26.0413C41.8281 17.0643 48.9324 10.3706 58.6715 9.78711H72.8427C73.3238 9.78711 73.7138 10.2419 73.7138 10.803C72.8427 20.4447 68.2439 26.2792 57.3707 27.0571H42.6992C42.2181 27.0571 41.8281 26.6023 41.8281 26.0413Z" fill="url(#paint2_linear_110_3677)"/>
<path d="M41.8281 26.0413C41.8281 17.0643 48.9324 10.3706 58.6715 9.78711H72.8427C73.3238 9.78711 73.7138 10.2419 73.7138 10.803C72.8427 20.4447 68.2439 26.2792 57.3707 27.0571H42.6992C42.2181 27.0571 41.8281 26.6023 41.8281 26.0413Z" fill="url(#paint3_radial_110_3677)"/>
<path d="M41.8281 26.0413C41.8281 17.0643 48.9324 10.3706 58.6715 9.78711H72.8427C73.3238 9.78711 73.7138 10.2419 73.7138 10.803C72.8427 20.4447 68.2439 26.2792 57.3707 27.0571H42.6992C42.2181 27.0571 41.8281 26.6023 41.8281 26.0413Z" fill="url(#paint4_radial_110_3677)"/>
<path d="M41.8281 26.0413C41.8281 17.0643 48.9324 10.3706 58.6715 9.78711H72.8427C73.3238 9.78711 73.7138 10.2419 73.7138 10.803C72.8427 20.4447 68.2439 26.2792 57.3707 27.0571H42.6992C42.2181 27.0571 41.8281 26.6023 41.8281 26.0413Z" fill="url(#paint5_linear_110_3677)"/>
<path d="M44.4609 25.8548C44.4609 14.9238 35.7246 6.77295 23.748 6.0625H6.32124C5.72961 6.0625 5.25 6.61633 5.25 7.29952C6.32124 19.04 11.9766 26.1445 25.3477 27.0918H43.3897C43.9813 27.0918 44.4609 26.538 44.4609 25.8548Z" fill="#00BE7B"/>
<path d="M44.4609 25.8548C44.4609 14.9238 35.7246 6.77295 23.748 6.0625H6.32124C5.72961 6.0625 5.25 6.61633 5.25 7.29952C6.32124 19.04 11.9766 26.1445 25.3477 27.0918H43.3897C43.9813 27.0918 44.4609 26.538 44.4609 25.8548Z" fill="url(#paint6_radial_110_3677)"/>
<path d="M44.4609 25.8548C44.4609 14.9238 35.7246 6.77295 23.748 6.0625H6.32124C5.72961 6.0625 5.25 6.61633 5.25 7.29952C6.32124 19.04 11.9766 26.1445 25.3477 27.0918H43.3897C43.9813 27.0918 44.4609 26.538 44.4609 25.8548Z" fill="url(#paint7_radial_110_3677)"/>
<path d="M44.4609 25.8548C44.4609 14.9238 35.7246 6.77295 23.748 6.0625H6.32124C5.72961 6.0625 5.25 6.61633 5.25 7.29952C6.32124 19.04 11.9766 26.1445 25.3477 27.0918H43.3897C43.9813 27.0918 44.4609 26.538 44.4609 25.8548Z" fill="url(#paint8_radial_110_3677)"/>
<path d="M44.4609 25.8548C44.4609 14.9238 35.7246 6.77295 23.748 6.0625H6.32124C5.72961 6.0625 5.25 6.61633 5.25 7.29952C6.32124 19.04 11.9766 26.1445 25.3477 27.0918H43.3897C43.9813 27.0918 44.4609 26.538 44.4609 25.8548Z" fill="url(#paint9_radial_110_3677)" fill-opacity="0.6"/>
<path d="M44.4609 25.8548C44.4609 14.9238 35.7246 6.77295 23.748 6.0625H6.32124C5.72961 6.0625 5.25 6.61633 5.25 7.29952C6.32124 19.04 11.9766 26.1445 25.3477 27.0918H43.3897C43.9813 27.0918 44.4609 26.538 44.4609 25.8548Z" fill="url(#paint10_radial_110_3677)" fill-opacity="0.4"/>
<path d="M44.4609 25.8548C44.4609 14.9238 35.7246 6.77295 23.748 6.0625H6.32124C5.72961 6.0625 5.25 6.61633 5.25 7.29952C6.32124 19.04 11.9766 26.1445 25.3477 27.0918H43.3897C43.9813 27.0918 44.4609 26.538 44.4609 25.8548Z" fill="url(#paint11_radial_110_3677)" fill-opacity="0.6"/>
<path d="M44.4609 25.8548C44.4609 14.9238 35.7246 6.77295 23.748 6.0625H6.32124C5.72961 6.0625 5.25 6.61633 5.25 7.29952C6.32124 19.04 11.9766 26.1445 25.3477 27.0918H43.3897C43.9813 27.0918 44.4609 26.538 44.4609 25.8548Z" fill="url(#paint12_radial_110_3677)" fill-opacity="0.6"/>
<path d="M44.4609 25.8548C44.4609 14.9238 35.7246 6.77295 23.748 6.0625H6.32124C5.72961 6.0625 5.25 6.61633 5.25 7.29952C6.32124 19.04 11.9766 26.1445 25.3477 27.0918H43.3897C43.9813 27.0918 44.4609 26.538 44.4609 25.8548Z" fill="url(#paint13_linear_110_3677)" fill-opacity="0.7"/>
<defs>
<linearGradient id="paint0_linear_110_3677" x1="56.8041" y1="27.5202" x2="56.8041" y2="24.3716" gradientUnits="userSpaceOnUse">
<stop stop-color="#81BC52"/>
<stop offset="1" stop-color="#81BC52" stop-opacity="0"/>
</linearGradient>
<linearGradient id="paint1_linear_110_3677" x1="64.4824" y1="27.0571" x2="62.589" y2="23.6766" gradientUnits="userSpaceOnUse">
<stop stop-color="#81BC52"/>
<stop offset="1" stop-color="#81BC52" stop-opacity="0"/>
</linearGradient>
<linearGradient id="paint2_linear_110_3677" x1="71.9326" y1="21.3674" x2="68.3322" y2="19.7512" gradientUnits="userSpaceOnUse">
<stop stop-color="#81BC52"/>
<stop offset="1" stop-color="#81BC52" stop-opacity="0"/>
</linearGradient>
<radialGradient id="paint3_radial_110_3677" cx="0" cy="0" r="1" gradientUnits="userSpaceOnUse" gradientTransform="translate(69.1079 14.8024) rotate(155.117) scale(26.2585 10.5357)">
<stop stop-color="#C2FD65" stop-opacity="0.64"/>
<stop offset="1" stop-color="#C2FD65" stop-opacity="0"/>
</radialGradient>
<radialGradient id="paint4_radial_110_3677" cx="0" cy="0" r="1" gradientUnits="userSpaceOnUse" gradientTransform="translate(74.3301 9.78711) rotate(139.214) scale(11.728 2.93771)">
<stop stop-color="#E1FFB1"/>
<stop offset="1" stop-color="#CBFF78" stop-opacity="0"/>
</radialGradient>
<linearGradient id="paint5_linear_110_3677" x1="62.9963" y1="7.53939" x2="62.9963" y2="11.5892" gradientUnits="userSpaceOnUse">
<stop stop-color="#96D240"/>
<stop offset="1" stop-color="#ADEF4F" stop-opacity="0"/>
</linearGradient>
<radialGradient id="paint6_radial_110_3677" cx="0" cy="0" r="1" gradientUnits="userSpaceOnUse" gradientTransform="translate(38.8528 8.12669) rotate(-170.455) scale(22.1704 21.2565)">
<stop stop-color="#B6EB53"/>
<stop offset="1" stop-color="#B6EB53" stop-opacity="0"/>
</radialGradient>
<radialGradient id="paint7_radial_110_3677" cx="0" cy="0" r="1" gradientUnits="userSpaceOnUse" gradientTransform="translate(35.0016 12.6564) rotate(-155.507) scale(19.7935 18.2876)">
<stop stop-color="#B8F053"/>
<stop offset="1" stop-color="#B8F053" stop-opacity="0"/>
</radialGradient>
<radialGradient id="paint8_radial_110_3677" cx="0" cy="0" r="1" gradientUnits="userSpaceOnUse" gradientTransform="translate(6.78367 46.9726) rotate(-43.9749) scale(46.1448 36.3121)">
<stop stop-color="#D1FF77" stop-opacity="0"/>
<stop offset="0.837938" stop-color="#D1FF77" stop-opacity="0"/>
<stop offset="0.895132" stop-color="#D1FF77" stop-opacity="0.0569351"/>
<stop offset="0.925992" stop-color="#D1FF77" stop-opacity="0.15"/>
<stop offset="0.955339" stop-color="#D1FF77" stop-opacity="0.36"/>
<stop offset="1" stop-color="#D1FF77" stop-opacity="0"/>
</radialGradient>
<radialGradient id="paint9_radial_110_3677" cx="0" cy="0" r="1" gradientUnits="userSpaceOnUse" gradientTransform="translate(26.3402 7.18496) rotate(141.265) scale(20.3432 28.8088)">
<stop stop-color="#81BC52" stop-opacity="0"/>
<stop offset="0.894411" stop-color="#81BC52" stop-opacity="0"/>
<stop offset="0.955727" stop-color="#81BC52" stop-opacity="0.332789"/>
<stop offset="1" stop-color="#81BC52"/>
</radialGradient>
<radialGradient id="paint10_radial_110_3677" cx="0" cy="0" r="1" gradientUnits="userSpaceOnUse" gradientTransform="translate(26.8987 -6.74736) rotate(98.8948) scale(33.4129 47.5174)">
<stop stop-color="#81BC52" stop-opacity="0"/>
<stop offset="0.953954" stop-color="#81BC52" stop-opacity="0"/>
<stop offset="0.987099" stop-color="#81BC52" stop-opacity="0.77"/>
<stop offset="1" stop-color="#81BC52"/>
</radialGradient>
<radialGradient id="paint11_radial_110_3677" cx="0" cy="0" r="1" gradientUnits="userSpaceOnUse" gradientTransform="translate(26.8987 -6.74736) rotate(113.559) scale(33.1602 49.2775)">
<stop stop-color="#81BC52" stop-opacity="0"/>
<stop offset="0.881174" stop-color="#81BC52" stop-opacity="0"/>
<stop offset="0.924412" stop-color="#81BC52" stop-opacity="0.325906"/>
<stop offset="0.981742" stop-color="#81BC52" stop-opacity="0.77"/>
<stop offset="1" stop-color="#81BC52"/>
</radialGradient>
<radialGradient id="paint12_radial_110_3677" cx="0" cy="0" r="1" gradientUnits="userSpaceOnUse" gradientTransform="translate(22.005 27.9545) rotate(-84.4598) scale(22.4534 34.4643)">
<stop stop-color="#81BC52" stop-opacity="0"/>
<stop offset="0.907432" stop-color="#81BC52" stop-opacity="0.0384281"/>
<stop offset="0.956328" stop-color="#81BC52" stop-opacity="0.332789"/>
<stop offset="1" stop-color="#81BC52" stop-opacity="0.78"/>
</radialGradient>
<linearGradient id="paint13_linear_110_3677" x1="30.0643" y1="16.5771" x2="30.0643" y2="27.1482" gradientUnits="userSpaceOnUse">
<stop offset="0.638716" stop-color="#81A957" stop-opacity="0"/>
<stop offset="0.69368" stop-color="#81BC52" stop-opacity="0.04"/>
<stop offset="0.779851" stop-color="#81BC52" stop-opacity="0.21"/>
<stop offset="0.893696" stop-color="#81BC52" stop-opacity="0.58"/>
<stop offset="0.969711" stop-color="#81BC52"/>
</linearGradient>
</defs>
</svg>
