<svg width="21" height="21" viewBox="0 0 21 21" fill="none" xmlns="http://www.w3.org/2000/svg">
<path d="M10.1893 18.2968L10.1836 18.2938L10.1638 18.283C10.1469 18.2739 10.1228 18.2606 10.0919 18.2434C10.0301 18.2089 9.94108 18.1584 9.82884 18.0923C9.60444 17.9603 9.28653 17.7659 8.90623 17.5131C8.1469 17.0083 7.13231 16.2663 6.11502 15.318C4.10184 13.4414 1.96875 10.6532 1.96875 7.21875C1.96875 4.6567 4.1244 2.625 6.72656 2.625C8.25683 2.625 9.62703 3.3242 10.5 4.42015C11.373 3.3242 12.7432 2.625 14.2734 2.625C16.8756 2.625 19.0312 4.6567 19.0312 7.21875C19.0312 10.6532 16.8982 13.4414 14.885 15.318C13.8677 16.2663 12.8531 17.0083 12.0938 17.5131C11.7135 17.7659 11.3956 17.9603 11.1712 18.0923C11.0589 18.1584 10.9699 18.2089 10.9081 18.2434C10.8772 18.2606 10.8531 18.2739 10.8362 18.283L10.8164 18.2938L10.8107 18.2968L10.8082 18.2981C10.6158 18.4003 10.3842 18.4003 10.1918 18.2981L10.1893 18.2968Z" fill="#A9D3AE"/>
</svg>
