<svg width="69" height="22" viewBox="0 0 69 22" fill="none" xmlns="http://www.w3.org/2000/svg">
<path d="M36.5781 19.9778C36.5781 11.0009 43.6824 4.30708 53.4215 3.72363H67.5927C68.0738 3.72363 68.4638 4.17846 68.4638 4.73952C67.5927 14.3813 62.9939 20.2157 52.1207 20.9937H37.4492C36.9681 20.9937 36.5781 20.5388 36.5781 19.9778Z" fill="#00BE7B"/>
<path d="M36.5781 19.9778C36.5781 11.0009 43.6824 4.30708 53.4215 3.72363H67.5927C68.0738 3.72363 68.4638 4.17846 68.4638 4.73952C67.5927 14.3813 62.9939 20.2157 52.1207 20.9937H37.4492C36.9681 20.9937 36.5781 20.5388 36.5781 19.9778Z" fill="url(#paint0_linear_391_20079)"/>
<path d="M36.5781 19.9778C36.5781 11.0009 43.6824 4.30708 53.4215 3.72363H67.5927C68.0738 3.72363 68.4638 4.17846 68.4638 4.73952C67.5927 14.3813 62.9939 20.2157 52.1207 20.9937H37.4492C36.9681 20.9937 36.5781 20.5388 36.5781 19.9778Z" fill="url(#paint1_linear_391_20079)"/>
<path d="M36.5781 19.9778C36.5781 11.0009 43.6824 4.30708 53.4215 3.72363H67.5927C68.0738 3.72363 68.4638 4.17846 68.4638 4.73952C67.5927 14.3813 62.9939 20.2157 52.1207 20.9937H37.4492C36.9681 20.9937 36.5781 20.5388 36.5781 19.9778Z" fill="url(#paint2_linear_391_20079)"/>
<path d="M36.5781 19.9778C36.5781 11.0009 43.6824 4.30708 53.4215 3.72363H67.5927C68.0738 3.72363 68.4638 4.17846 68.4638 4.73952C67.5927 14.3813 62.9939 20.2157 52.1207 20.9937H37.4492C36.9681 20.9937 36.5781 20.5388 36.5781 19.9778Z" fill="url(#paint3_radial_391_20079)"/>
<path d="M36.5781 19.9778C36.5781 11.0009 43.6824 4.30708 53.4215 3.72363H67.5927C68.0738 3.72363 68.4638 4.17846 68.4638 4.73952C67.5927 14.3813 62.9939 20.2157 52.1207 20.9937H37.4492C36.9681 20.9937 36.5781 20.5388 36.5781 19.9778Z" fill="url(#paint4_radial_391_20079)"/>
<path d="M36.5781 19.9778C36.5781 11.0009 43.6824 4.30708 53.4215 3.72363H67.5927C68.0738 3.72363 68.4638 4.17846 68.4638 4.73952C67.5927 14.3813 62.9939 20.2157 52.1207 20.9937H37.4492C36.9681 20.9937 36.5781 20.5388 36.5781 19.9778Z" fill="url(#paint5_linear_391_20079)"/>
<path d="M39.2109 19.7923C39.2109 8.86131 30.4746 0.710449 18.498 0H1.07123C0.479609 0 1.05798e-06 0.553832 1.05798e-06 1.23702C1.07123 12.9775 6.72657 20.082 20.0977 21.0293H38.1397C38.7313 21.0293 39.2109 20.4755 39.2109 19.7923Z" fill="#00BE7B"/>
<path d="M39.2109 19.7923C39.2109 8.86131 30.4746 0.710449 18.498 0H1.07123C0.479609 0 1.05798e-06 0.553832 1.05798e-06 1.23702C1.07123 12.9775 6.72657 20.082 20.0977 21.0293H38.1397C38.7313 21.0293 39.2109 20.4755 39.2109 19.7923Z" fill="url(#paint6_radial_391_20079)"/>
<path d="M39.2109 19.7923C39.2109 8.86131 30.4746 0.710449 18.498 0H1.07123C0.479609 0 1.05798e-06 0.553832 1.05798e-06 1.23702C1.07123 12.9775 6.72657 20.082 20.0977 21.0293H38.1397C38.7313 21.0293 39.2109 20.4755 39.2109 19.7923Z" fill="url(#paint7_radial_391_20079)"/>
<path d="M39.2109 19.7923C39.2109 8.86131 30.4746 0.710449 18.498 0H1.07123C0.479609 0 1.05798e-06 0.553832 1.05798e-06 1.23702C1.07123 12.9775 6.72657 20.082 20.0977 21.0293H38.1397C38.7313 21.0293 39.2109 20.4755 39.2109 19.7923Z" fill="url(#paint8_radial_391_20079)"/>
<path d="M39.2109 19.7923C39.2109 8.86131 30.4746 0.710449 18.498 0H1.07123C0.479609 0 1.05798e-06 0.553832 1.05798e-06 1.23702C1.07123 12.9775 6.72657 20.082 20.0977 21.0293H38.1397C38.7313 21.0293 39.2109 20.4755 39.2109 19.7923Z" fill="url(#paint9_radial_391_20079)" fill-opacity="0.6"/>
<path d="M39.2109 19.7923C39.2109 8.86131 30.4746 0.710449 18.498 0H1.07123C0.479609 0 1.05798e-06 0.553832 1.05798e-06 1.23702C1.07123 12.9775 6.72657 20.082 20.0977 21.0293H38.1397C38.7313 21.0293 39.2109 20.4755 39.2109 19.7923Z" fill="url(#paint10_radial_391_20079)" fill-opacity="0.4"/>
<path d="M39.2109 19.7923C39.2109 8.86131 30.4746 0.710449 18.498 0H1.07123C0.479609 0 1.05798e-06 0.553832 1.05798e-06 1.23702C1.07123 12.9775 6.72657 20.082 20.0977 21.0293H38.1397C38.7313 21.0293 39.2109 20.4755 39.2109 19.7923Z" fill="url(#paint11_radial_391_20079)" fill-opacity="0.6"/>
<path d="M39.2109 19.7923C39.2109 8.86131 30.4746 0.710449 18.498 0H1.07123C0.479609 0 1.05798e-06 0.553832 1.05798e-06 1.23702C1.07123 12.9775 6.72657 20.082 20.0977 21.0293H38.1397C38.7313 21.0293 39.2109 20.4755 39.2109 19.7923Z" fill="url(#paint12_radial_391_20079)" fill-opacity="0.6"/>
<path d="M39.2109 19.7923C39.2109 8.86131 30.4746 0.710449 18.498 0H1.07123C0.479609 0 1.05798e-06 0.553832 1.05798e-06 1.23702C1.07123 12.9775 6.72657 20.082 20.0977 21.0293H38.1397C38.7313 21.0293 39.2109 20.4755 39.2109 19.7923Z" fill="url(#paint13_linear_391_20079)" fill-opacity="0.7"/>
<defs>
<linearGradient id="paint0_linear_391_20079" x1="51.5541" y1="21.4567" x2="51.5541" y2="18.3081" gradientUnits="userSpaceOnUse">
<stop stop-color="#81BC52"/>
<stop offset="1" stop-color="#81BC52" stop-opacity="0"/>
</linearGradient>
<linearGradient id="paint1_linear_391_20079" x1="59.2324" y1="20.9937" x2="57.339" y2="17.6131" gradientUnits="userSpaceOnUse">
<stop stop-color="#81BC52"/>
<stop offset="1" stop-color="#81BC52" stop-opacity="0"/>
</linearGradient>
<linearGradient id="paint2_linear_391_20079" x1="66.6826" y1="15.3039" x2="63.0822" y2="13.6877" gradientUnits="userSpaceOnUse">
<stop stop-color="#81BC52"/>
<stop offset="1" stop-color="#81BC52" stop-opacity="0"/>
</linearGradient>
<radialGradient id="paint3_radial_391_20079" cx="0" cy="0" r="1" gradientUnits="userSpaceOnUse" gradientTransform="translate(63.8579 8.73896) rotate(155.117) scale(26.2585 10.5357)">
<stop stop-color="#C2FD65" stop-opacity="0.64"/>
<stop offset="1" stop-color="#C2FD65" stop-opacity="0"/>
</radialGradient>
<radialGradient id="paint4_radial_391_20079" cx="0" cy="0" r="1" gradientUnits="userSpaceOnUse" gradientTransform="translate(69.0801 3.72363) rotate(139.214) scale(11.728 2.93771)">
<stop stop-color="#E1FFB1"/>
<stop offset="1" stop-color="#CBFF78" stop-opacity="0"/>
</radialGradient>
<linearGradient id="paint5_linear_391_20079" x1="57.7463" y1="1.47592" x2="57.7463" y2="5.52569" gradientUnits="userSpaceOnUse">
<stop stop-color="#96D240"/>
<stop offset="1" stop-color="#ADEF4F" stop-opacity="0"/>
</linearGradient>
<radialGradient id="paint6_radial_391_20079" cx="0" cy="0" r="1" gradientUnits="userSpaceOnUse" gradientTransform="translate(33.6028 2.06419) rotate(-170.455) scale(22.1704 21.2565)">
<stop stop-color="#B6EB53"/>
<stop offset="1" stop-color="#B6EB53" stop-opacity="0"/>
</radialGradient>
<radialGradient id="paint7_radial_391_20079" cx="0" cy="0" r="1" gradientUnits="userSpaceOnUse" gradientTransform="translate(29.7516 6.59392) rotate(-155.507) scale(19.7935 18.2876)">
<stop stop-color="#B8F053"/>
<stop offset="1" stop-color="#B8F053" stop-opacity="0"/>
</radialGradient>
<radialGradient id="paint8_radial_391_20079" cx="0" cy="0" r="1" gradientUnits="userSpaceOnUse" gradientTransform="translate(1.53367 40.9101) rotate(-43.9749) scale(46.1448 36.3121)">
<stop stop-color="#D1FF77" stop-opacity="0"/>
<stop offset="0.837938" stop-color="#D1FF77" stop-opacity="0"/>
<stop offset="0.895132" stop-color="#D1FF77" stop-opacity="0.0569351"/>
<stop offset="0.925992" stop-color="#D1FF77" stop-opacity="0.15"/>
<stop offset="0.955339" stop-color="#D1FF77" stop-opacity="0.36"/>
<stop offset="1" stop-color="#D1FF77" stop-opacity="0"/>
</radialGradient>
<radialGradient id="paint9_radial_391_20079" cx="0" cy="0" r="1" gradientUnits="userSpaceOnUse" gradientTransform="translate(21.0902 1.12246) rotate(141.265) scale(20.3432 28.8088)">
<stop stop-color="#81BC52" stop-opacity="0"/>
<stop offset="0.894411" stop-color="#81BC52" stop-opacity="0"/>
<stop offset="0.955727" stop-color="#81BC52" stop-opacity="0.332789"/>
<stop offset="1" stop-color="#81BC52"/>
</radialGradient>
<radialGradient id="paint10_radial_391_20079" cx="0" cy="0" r="1" gradientUnits="userSpaceOnUse" gradientTransform="translate(21.6487 -12.8099) rotate(98.8948) scale(33.4129 47.5174)">
<stop stop-color="#81BC52" stop-opacity="0"/>
<stop offset="0.953954" stop-color="#81BC52" stop-opacity="0"/>
<stop offset="0.987099" stop-color="#81BC52" stop-opacity="0.77"/>
<stop offset="1" stop-color="#81BC52"/>
</radialGradient>
<radialGradient id="paint11_radial_391_20079" cx="0" cy="0" r="1" gradientUnits="userSpaceOnUse" gradientTransform="translate(21.6487 -12.8099) rotate(113.559) scale(33.1602 49.2775)">
<stop stop-color="#81BC52" stop-opacity="0"/>
<stop offset="0.881174" stop-color="#81BC52" stop-opacity="0"/>
<stop offset="0.924412" stop-color="#81BC52" stop-opacity="0.325906"/>
<stop offset="0.981742" stop-color="#81BC52" stop-opacity="0.77"/>
<stop offset="1" stop-color="#81BC52"/>
</radialGradient>
<radialGradient id="paint12_radial_391_20079" cx="0" cy="0" r="1" gradientUnits="userSpaceOnUse" gradientTransform="translate(16.755 21.892) rotate(-84.4598) scale(22.4534 34.4643)">
<stop stop-color="#81BC52" stop-opacity="0"/>
<stop offset="0.907432" stop-color="#81BC52" stop-opacity="0.0384281"/>
<stop offset="0.956328" stop-color="#81BC52" stop-opacity="0.332789"/>
<stop offset="1" stop-color="#81BC52" stop-opacity="0.78"/>
</radialGradient>
<linearGradient id="paint13_linear_391_20079" x1="24.8143" y1="10.5146" x2="24.8143" y2="21.0857" gradientUnits="userSpaceOnUse">
<stop offset="0.638716" stop-color="#81A957" stop-opacity="0"/>
<stop offset="0.69368" stop-color="#81BC52" stop-opacity="0.04"/>
<stop offset="0.779851" stop-color="#81BC52" stop-opacity="0.21"/>
<stop offset="0.893696" stop-color="#81BC52" stop-opacity="0.58"/>
<stop offset="0.969711" stop-color="#81BC52"/>
</linearGradient>
</defs>
</svg>
