<svg width="35" height="35" viewBox="0 0 35 35" fill="none" xmlns="http://www.w3.org/2000/svg">
<g clip-path="url(#clip0_165_5735)">
<path d="M17.5 0.929688C8.36719 0.929688 0.984375 8.36719 0.984375 17.5C0.984375 26.6328 8.42187 34.0703 17.5547 34.0703C26.6875 34.0703 34.0703 26.6328 34.0703 17.5C34.0703 8.36719 26.6328 0.929688 17.5 0.929688ZM17.5 31.6094C9.73438 31.6094 3.44531 25.2656 3.44531 17.5C3.44531 9.73437 9.73438 3.39062 17.5 3.39062C25.2656 3.39062 31.6094 9.73437 31.6094 17.5C31.6094 25.2656 25.2656 31.6094 17.5 31.6094Z" fill="#EE5945"/>
<path d="M17.5 5.85156C11.0469 5.85156 5.85156 11.1016 5.85156 17.5C5.85156 23.9531 11.1016 29.1484 17.5 29.1484C23.8984 29.1484 29.1484 23.9531 29.1484 17.5C29.1484 11.0469 23.9531 5.85156 17.5 5.85156ZM17.5 26.6875C12.4141 26.6875 8.3125 22.5859 8.3125 17.5C8.3125 12.4141 12.4141 8.3125 17.5 8.3125C22.5859 8.3125 26.6875 12.4141 26.6875 17.5C26.6875 22.5859 22.5859 26.6875 17.5 26.6875Z" fill="#EE5945"/>
<path d="M16.7344 15.3125H19.9609C20.6172 15.3125 21.2187 14.7656 21.2187 14.0547C21.2187 13.3437 20.6719 12.7969 19.9609 12.7969H19.1953V12.5781C19.1953 11.9219 18.6484 11.3203 17.9375 11.3203C17.2812 11.3203 16.6797 11.8672 16.6797 12.5781V12.7969C15.0391 12.7969 13.7266 14.1094 13.7266 15.75C13.7266 17.3906 15.0391 18.7031 16.6797 18.7031H18.1562C18.4297 18.7031 18.6484 18.9219 18.6484 19.1953C18.6484 19.4687 18.5391 19.6875 18.2656 19.6875H15.0391C14.3828 19.6875 13.7813 20.2344 13.7813 20.9453C13.7813 21.6562 14.3281 22.2031 15.0391 22.2031H16.7891V22.4219C16.7891 23.0781 17.3359 23.6797 18.0469 23.6797C18.7031 23.6797 19.3047 23.1328 19.3047 22.4219V21.9844C20.4531 21.6016 21.2734 20.5078 21.2734 19.1953C21.2734 17.5547 19.9609 16.2422 18.3203 16.2422H16.8437C16.5703 16.2422 16.3516 16.0234 16.3516 15.75C16.3516 15.4766 16.4609 15.3125 16.7344 15.3125Z" fill="#EE5945"/>
</g>
<defs>
<clipPath id="clip0_165_5735">
<rect width="35" height="35" fill="white"/>
</clipPath>
</defs>
</svg>
