<svg width="18" height="20" viewBox="0 0 18 20" fill="none" xmlns="http://www.w3.org/2000/svg">
<path fill-rule="evenodd" clip-rule="evenodd" d="M7.56998 3.81394C4.9154 3.81394 2.76343 6.09519 2.76343 8.90926C2.76343 11.7233 4.9154 14.0046 7.56998 14.0046C8.89742 14.0046 10.0983 13.4349 10.9687 12.5122C11.8391 11.5895 12.3765 10.3165 12.3765 8.90926C12.3765 6.09519 10.2246 3.81394 7.56998 3.81394ZM1.69531 8.90926C1.69531 5.46984 4.32549 2.68164 7.56998 2.68164C10.8145 2.68164 13.4447 5.46984 13.4447 8.90926C13.4447 10.4249 12.9334 11.8148 12.0845 12.8944L15.4245 16.435C15.633 16.6561 15.633 17.0146 15.4245 17.2356C15.2159 17.4567 14.8778 17.4567 14.6692 17.2356L11.3292 13.695C10.3108 14.5949 8.99972 15.1369 7.56998 15.1369C4.32549 15.1369 1.69531 12.3487 1.69531 8.90926Z" fill="#5B5E5C"/>
</svg>
