<svg width="95" height="95" viewBox="0 0 95 95" fill="none" xmlns="http://www.w3.org/2000/svg">
<rect width="95" height="95" rx="30" fill="url(#paint0_linear_489_5512)"/>
<g filter="url(#filter0_d_489_5512)">
<path d="M24.8341 34.4189C24.8341 34.4189 23.4395 32.2727 23.1661 31.6981C22.8145 30.9599 23.2013 30.781 24.5138 30.7734C25.3536 30.7696 33.42 30.7734 33.42 30.7734H40.7169C40.7169 30.7734 40.6622 28.2162 40.7169 28.0792C40.7716 27.9461 53.0489 28.0526 53.1036 28.0792C53.1583 28.1059 53.1309 30.7734 53.1309 30.7734H60.3966C60.3966 30.7734 69.5606 30.7734 69.9474 30.7734C70.3341 30.7734 70.7364 31.1197 70.3966 31.778C70.0567 32.4363 69.1114 33.7073 69.1114 33.7073L69.0059 67.0531L66.2911 68.5295L26.9278 68.3773L24.838 67.2091L24.8341 34.4189Z" fill="#C8C8C8"/>
<path d="M33.3125 67.5848V33.5235L46.1797 31.6133L60.375 33.6339V67.5848L47.0469 68.2583L33.3125 67.5848Z" fill="#E1E1E1"/>
<path d="M33.3164 30.7676L60.3945 30.7714L60.375 33.633L33.3125 33.5226L33.3164 30.7676Z" fill="#9A9A9A"/>
<path d="M24.8398 67.2073L40.4609 67.1045C40.4609 67.1045 40.4414 55.3424 40.4609 54.8705C40.4727 54.528 40.5586 54.2464 41.0078 54.216C41.457 54.1855 51.875 54.1855 52.2617 54.1855C52.6445 54.1855 52.9336 54.4024 52.9336 54.9352C52.9336 55.4679 52.9336 67.0855 52.9336 67.0855C52.9336 67.0855 69.0156 66.9409 69.0078 67.0589C68.9961 67.1768 69.0273 68.8017 69.0273 69.0224C69.0273 69.2393 68.9297 69.5551 68.3203 69.5551C67.7109 69.5551 25.6172 69.5551 25.3594 69.5551C25.1016 69.5551 24.8477 69.304 24.8477 68.992C24.8477 68.6799 24.8398 67.2073 24.8398 67.2073Z" fill="#9A9A9A"/>
<path d="M50.3945 34.7109H43.3789V38.7598H50.3945V34.7109Z" fill="#6CA4AB"/>
<path d="M50.4297 41.2852H43.3438V45.1742H50.4297V41.2852Z" fill="#6CA4AB"/>
<path d="M50.4297 47.8652H43.2773V52.0435H50.4297V47.8652Z" fill="#6CA4AB"/>
<path d="M53.9219 34.8391C53.8867 34.938 53.9219 38.8575 53.9219 38.8575L58.2031 38.846C58.2031 38.846 58.2617 34.8885 58.1797 34.8086C58.0977 34.7287 53.9531 34.7401 53.9219 34.8391Z" fill="#6CA4AB"/>
<path d="M53.9883 41.1562L54.0195 45.1404L58.0781 45.11L58.1445 41.2209L53.9883 41.1562Z" fill="#6CA4AB"/>
<path d="M54.1866 47.8965C54.1866 47.8965 54.085 51.7512 54.1514 51.8502C54.2178 51.9491 58.0772 51.9491 58.21 51.8502C58.3428 51.7512 58.21 47.9307 58.21 47.9307L54.1866 47.8965Z" fill="#6CA4AB"/>
<path d="M54.207 54.3319L54.2383 58.3388C54.2383 58.3388 58.0703 58.4264 58.1602 58.3388C58.25 58.2513 58.3398 54.4194 58.2188 54.3319C58.0977 54.2443 54.207 54.3319 54.207 54.3319Z" fill="#6CA4AB"/>
<path d="M54.3164 60.8558L54.3711 64.8361C54.3711 64.8361 58.1484 64.8666 58.2305 64.8095C58.3125 64.7524 58.3164 61.0004 58.2617 60.8862C58.207 60.7721 54.3164 60.8558 54.3164 60.8558Z" fill="#6CA4AB"/>
<path d="M62.8132 64.7765C62.86 64.8336 66.8874 64.8336 66.8874 64.8336C66.8874 64.8336 67.0124 60.9142 66.8679 60.8571C66.7624 60.8114 62.778 60.7543 62.7233 60.8C62.5983 60.9103 62.778 64.7347 62.8132 64.7765Z" fill="#6CA4AB"/>
<path d="M62.7553 54.5302C62.6928 54.6824 62.6381 58.5372 62.7241 58.5676C62.8139 58.598 66.6615 58.6247 66.7787 58.5676C66.8959 58.5105 66.9858 54.6748 66.8686 54.5873C66.7514 54.4997 62.8139 54.3894 62.7553 54.5302Z" fill="#6CA4AB"/>
<path d="M62.6696 51.9827C62.7751 52.1121 66.5759 52.0968 66.693 52.0398C66.8102 51.9827 66.7516 48.2611 66.6618 48.1203C66.572 47.9795 62.7555 48.0632 62.6657 48.1507C62.5759 48.2383 62.5524 51.8381 62.6696 51.9827Z" fill="#6CA4AB"/>
<path d="M62.7851 41.5052C62.7108 41.6498 62.7851 45.2268 62.8436 45.341C62.9022 45.4551 66.7226 45.4551 66.7811 45.3714C66.8397 45.2839 66.871 41.6232 66.8124 41.5357C66.7499 41.4481 62.8436 41.3911 62.7851 41.5052Z" fill="#6CA4AB"/>
<path d="M62.8705 38.8179C62.9759 38.9206 66.808 38.8483 66.8939 38.8179C66.9838 38.7874 66.9525 35.0126 66.9252 34.868C66.8939 34.7234 62.9603 34.8109 62.8392 34.868C62.7259 34.9251 62.7259 38.6733 62.8705 38.8179Z" fill="#6CA4AB"/>
<path d="M35.2227 34.6981C35.1875 34.797 35.2227 38.7165 35.2227 38.7165L39.4805 38.6518C39.4805 38.6518 39.5625 34.7475 39.4805 34.6676C39.3984 34.5839 35.2578 34.5991 35.2227 34.6981Z" fill="#6CA4AB"/>
<path d="M35.321 41.2705C35.321 41.2705 35.2155 45.1557 35.3483 45.2204C35.4811 45.2851 39.2936 45.3193 39.4264 45.2204C39.5592 45.1214 39.4499 41.2324 39.4499 41.2324L35.321 41.2705Z" fill="#6CA4AB"/>
<path d="M35.3854 47.9022C35.3111 47.9555 35.2838 51.757 35.3502 51.8559C35.4166 51.9548 39.276 51.9548 39.4088 51.8559C39.5416 51.757 39.5104 48.0316 39.4088 47.9364C39.3072 47.8413 35.5182 47.8071 35.3854 47.9022Z" fill="#6CA4AB"/>
<path d="M35.2558 54.3867C35.1503 54.4894 35.1972 58.3061 35.287 58.3937C35.3769 58.4812 39.2089 58.3937 39.2089 58.3937L39.2675 54.3867C39.2675 54.3867 35.3729 54.2725 35.2558 54.3867Z" fill="#6CA4AB"/>
<path d="M35.2773 60.7539V64.7685L39.1133 64.7342L39.1992 60.7843L35.2773 60.7539Z" fill="#6CA4AB"/>
<path d="M27.0237 64.7335L31.0471 64.703L31.0744 60.7151C31.0744 60.7151 27.0198 60.6123 26.9338 60.7569C26.8479 60.8977 27.0237 64.7335 27.0237 64.7335Z" fill="#6CA4AB"/>
<path d="M26.9662 54.487C26.9037 54.6392 26.8491 58.4939 26.935 58.5244C27.0248 58.5548 30.8725 58.5815 30.9897 58.5244C31.1069 58.4673 31.1967 54.6316 31.0795 54.544C30.9623 54.4565 27.0248 54.3424 26.9662 54.487Z" fill="#6CA4AB"/>
<path d="M26.8739 51.9414C26.9794 52.0708 30.7801 52.0555 30.8973 51.9985C31.0145 51.9414 30.9559 48.2198 30.8661 48.079C30.7762 47.9344 26.9598 48.0219 26.87 48.1094C26.7879 48.1893 26.7567 51.7968 26.8739 51.9414Z" fill="#6CA4AB"/>
<path d="M26.9921 41.4642C26.9179 41.6088 26.9921 45.1858 27.0507 45.2999C27.1093 45.4141 30.9296 45.4141 30.9882 45.3304C31.0468 45.2429 31.078 41.5822 31.0194 41.4946C30.9608 41.4071 27.0507 41.35 26.9921 41.4642Z" fill="#6CA4AB"/>
<path d="M27.0804 38.7749C27.1859 38.8776 31.0179 38.8053 31.1039 38.7749C31.1937 38.7445 31.1625 34.9696 31.1351 34.825C31.1078 34.6804 27.1703 34.7679 27.0492 34.825C26.932 34.8821 26.932 38.6303 27.0804 38.7749Z" fill="#6CA4AB"/>
<path d="M42.2178 67.2192C42.1904 67.1926 42.1357 59.62 42.2451 59.4831C42.3584 59.3461 51.167 59.4298 51.249 59.5097C51.3311 59.5896 51.3037 67.1659 51.2764 67.2192C51.249 67.2725 42.2178 67.2192 42.2178 67.2192Z" fill="#E1E1E1"/>
<path d="M46.3555 60.2207H43.0469V66.5603H46.3555V60.2207Z" fill="#536F7B"/>
<path d="M50.5859 60.209H47.207V66.5486H50.5859V60.209Z" fill="#536F7B"/>
</g>
<defs>
<filter id="filter0_d_489_5512" x="18" y="22.1797" width="58" height="56.707" filterUnits="userSpaceOnUse" color-interpolation-filters="sRGB">
<feFlood flood-opacity="0" result="BackgroundImageFix"/>
<feColorMatrix in="SourceAlpha" type="matrix" values="0 0 0 0 0 0 0 0 0 0 0 0 0 0 0 0 0 0 127 0" result="hardAlpha"/>
<feOffset dy="4"/>
<feGaussianBlur stdDeviation="2"/>
<feComposite in2="hardAlpha" operator="out"/>
<feColorMatrix type="matrix" values="0 0 0 0 0 0 0 0 0 0 0 0 0 0 0 0 0 0 0.25 0"/>
<feBlend mode="normal" in2="BackgroundImageFix" result="effect1_dropShadow_489_5512"/>
<feBlend mode="normal" in="SourceGraphic" in2="effect1_dropShadow_489_5512" result="shape"/>
</filter>
<linearGradient id="paint0_linear_489_5512" x1="47.5" y1="0" x2="47.5" y2="95" gradientUnits="userSpaceOnUse">
<stop stop-color="#2B2622"/>
<stop offset="1" stop-color="#723506"/>
</linearGradient>
</defs>
</svg>
