<svg width="95" height="95" viewBox="0 0 95 95" fill="none" xmlns="http://www.w3.org/2000/svg">
<rect width="95" height="95" rx="30" fill="url(#paint0_linear_489_5511)"/>
<g filter="url(#filter0_d_489_5511)">
<path d="M66.6967 40.4981H27.918L30.0667 33.5156H63.8355L66.6967 40.4981Z" fill="#37474F"/>
<path d="M69.0768 44.177L65.0305 34.1014C64.8093 33.4659 64.2205 33.041 63.5605 33.041H30.448C29.788 33.041 29.1993 33.4659 28.978 34.1014L24.9243 44.177C24.7705 44.6402 25.108 45.1226 25.588 45.1226H68.413C68.893 45.1226 69.2305 44.6402 69.0768 44.177ZM66.3055 43.599H27.6955C27.2043 43.599 26.8593 43.1052 27.0168 42.6305L30.2193 35.0852C30.3768 34.6373 30.793 34.3388 31.258 34.3388H62.7505C63.2155 34.3388 63.6318 34.6373 63.7893 35.0852L66.9918 42.6305C67.1455 43.1052 66.7968 43.599 66.3055 43.599Z" fill="#82AEC0"/>
<path d="M24.875 44.4788V69.5224C24.875 70.0469 25.2875 70.468 25.7975 70.468H68.1987C68.7087 70.468 69.125 70.0469 69.125 69.5224V44.3984L24.875 44.4788Z" fill="#37474F"/>
<path d="M63.0241 44.4749V32.267C63.0241 31.9148 62.7428 31.6277 62.3978 31.6277V29.2045C62.3978 28.6609 61.9666 28.2207 61.4341 28.2207H54.9316C54.3991 28.2207 53.9678 28.6609 53.9678 29.2045V29.8783C53.9678 30.843 53.1991 31.6277 52.2541 31.6277H31.8953C31.3891 31.6277 30.9766 32.0488 30.9766 32.5656V44.4711H63.0241V44.4749Z" fill="#F3AB47"/>
<path d="M62.4022 31.6316V29.2084C62.4022 28.6648 61.9709 28.2246 61.4384 28.2246H54.9322C54.3997 28.2246 53.9684 28.6648 53.9684 29.2084V29.8822C53.9684 30.5904 53.4922 31.3866 52.4609 31.6316H62.4022Z" fill="#7CB342"/>
<path opacity="0.75" d="M63.0278 33.5156H30.9766V35.5101H63.0278V33.5156Z" fill="#DE7340"/>
<path d="M65.1333 44.4184V35.5793C65.1333 34.9936 64.6683 34.5151 64.0908 34.5151H53.707C52.6345 34.5151 51.7683 33.627 51.7683 32.5359V31.7741C51.7683 31.1578 51.2808 30.6602 50.677 30.6602H43.3195C42.7158 30.6602 42.2283 31.1578 42.2283 31.7741V32.5359C42.2283 33.6308 41.3583 34.5151 40.2895 34.5151H29.9058C29.332 34.5151 28.8633 34.9898 28.8633 35.5793V44.4184H65.1333Z" fill="#FFCA28"/>
<path d="M51.7717 32.5359V31.7741C51.7717 31.1578 51.2842 30.6602 50.6805 30.6602H43.323C42.7192 30.6602 42.2317 31.1578 42.2317 31.7741V32.5359C42.2317 33.6308 41.3617 34.5151 40.293 34.5151H53.7142C52.6417 34.5151 51.7717 33.627 51.7717 32.5359Z" fill="#0288D1"/>
<path d="M65.1339 37.5801H27.7539V39.5745H65.1339V37.5801Z" fill="#F3AB47"/>
<path d="M67.0267 44.4173V39.7661C67.0267 39.1191 66.513 38.5909 65.8755 38.5909H40.4355C39.2542 38.5909 38.2942 37.6109 38.2942 36.405V35.5628C38.2942 34.8852 37.7542 34.334 37.0905 34.334H28.9642C28.3005 34.334 27.7605 34.8852 27.7605 35.5628V38.5909C27.3292 38.5909 26.9805 38.9469 26.9805 39.3871V44.4134H67.0267V44.4173Z" fill="#FFE36C"/>
<path d="M38.2916 36.405V35.5628C38.2916 34.8852 37.7516 34.334 37.0878 34.334H28.9616C28.2978 34.334 27.7578 34.8852 27.7578 35.5628V38.5909H40.4366C39.2516 38.5909 38.2916 37.6147 38.2916 36.405Z" fill="#F44336"/>
<path d="M67.0255 42.6251C67.1193 43.5017 66.7968 43.5936 66.3055 43.5936H27.6955C27.2043 43.5936 26.8668 43.6319 26.9755 42.7093L25.4943 42.7591L24.9243 44.1755C24.7705 44.6387 25.108 45.121 25.588 45.121H68.413C68.893 45.121 69.2305 44.6387 69.0768 44.1755L68.4205 42.5332L67.0255 42.6251Z" fill="#82AEC0"/>
<path d="M52.9511 54.6738H40.4336V61.3348H52.9511V54.6738Z" fill="#FAFAFA"/>
<path d="M51.8795 56.0664C51.8795 56.0664 51.3733 57.1038 51.362 58.4666C51.3508 60.0247 51.962 61.3952 51.962 61.3952L41.4133 61.2765C41.4133 61.2765 42.077 60.2276 42.1145 58.7308C42.152 57.3144 41.5783 56.0664 41.5783 56.0664H51.8795ZM52.532 54.5352H40.9895C40.3333 54.5352 39.8008 55.0788 39.8008 55.7487V61.7129C39.8008 62.3828 40.3333 62.9264 40.9895 62.9264H52.532C53.1883 62.9264 53.7208 62.3828 53.7208 61.7129V55.7487C53.717 55.0788 53.1883 54.5352 52.532 54.5352Z" fill="#263238"/>
<path d="M52.217 55.3652C52.217 55.3652 51.5195 56.4792 51.5195 57.842C51.5195 59.2048 52.217 60.6902 52.217 60.6902H41.3008C41.3008 60.6902 41.972 59.3082 41.972 58.0258C41.972 56.7434 41.3008 55.3614 41.3008 55.3614H52.217V55.3652ZM52.532 53.834H40.9895C40.3333 53.834 39.8008 54.3776 39.8008 55.0475V61.0117C39.8008 61.6816 40.3333 62.2252 40.9895 62.2252H52.532C53.1883 62.2252 53.7208 61.6816 53.7208 61.0117V55.0475C53.717 54.3776 53.1883 53.834 52.532 53.834Z" fill="#9E9E9E"/>
<path d="M40.9883 54.3633H45.5558" stroke="#C9E3E6" stroke-width="2" stroke-miterlimit="10" stroke-linecap="round"/>
</g>
<defs>
<filter id="filter0_d_489_5511" x="19" y="23" width="56" height="57" filterUnits="userSpaceOnUse" color-interpolation-filters="sRGB">
<feFlood flood-opacity="0" result="BackgroundImageFix"/>
<feColorMatrix in="SourceAlpha" type="matrix" values="0 0 0 0 0 0 0 0 0 0 0 0 0 0 0 0 0 0 127 0" result="hardAlpha"/>
<feOffset dy="4"/>
<feGaussianBlur stdDeviation="2"/>
<feComposite in2="hardAlpha" operator="out"/>
<feColorMatrix type="matrix" values="0 0 0 0 0 0 0 0 0 0 0 0 0 0 0 0 0 0 0.25 0"/>
<feBlend mode="normal" in2="BackgroundImageFix" result="effect1_dropShadow_489_5511"/>
<feBlend mode="normal" in="SourceGraphic" in2="effect1_dropShadow_489_5511" result="shape"/>
</filter>
<linearGradient id="paint0_linear_489_5511" x1="47.5" y1="0" x2="47.5" y2="95" gradientUnits="userSpaceOnUse">
<stop stop-color="#2B2622"/>
<stop offset="1" stop-color="#723506"/>
</linearGradient>
</defs>
</svg>
