<svg width="95" height="95" viewBox="0 0 95 95" fill="none" xmlns="http://www.w3.org/2000/svg">
<rect width="95" height="95" rx="30" fill="url(#paint0_linear_489_5510)"/>
<path d="M70.7155 63.9652L51.0616 72.8512C49.8499 73.4227 48.5866 73.3668 47.4264 72.6965L22.6163 60.098C21.9073 59.6426 21.6967 58.9766 21.7397 58.5125C21.7827 58.0484 21.8901 57.5457 23.1362 57.1848L24.9752 56.5059L49.8627 70.0711L67.5487 62.8437L70.7155 63.9652Z" fill="#01579B"/>
<path d="M50.8242 71.4297C50.3327 71.6603 49.7934 71.7704 49.2509 71.751C48.7084 71.7316 48.1783 71.5831 47.7047 71.318L23.4832 59.1148C23.1394 58.9258 23.0363 58.4918 23.2425 58.1566C23.7754 57.2758 24.755 54.4914 23.1394 52.1797L50.4933 65.3496L50.8242 71.4297Z" fill="#F5F5F5"/>
<path d="M69.6687 62.9602L50.827 71.4293C50.2039 71.7 48.9621 72.1813 47.5312 71.2188C48.6613 71.3004 49.4563 70.8321 49.8645 70.0715C50.2641 69.3324 50.1437 68.1207 49.6582 67.4375C49.3617 67.025 48.5668 66.3676 48.2187 65.9981L68.5988 58.0274C70.4035 57.284 72.0965 58.3969 72.3672 59.7504C72.668 61.2801 70.7172 62.5305 69.6687 62.9602Z" fill="#94C6D6"/>
<path d="M70.6076 57.3664L51.1556 66.0461C49.931 66.5316 48.5603 66.4672 47.3873 65.8742L22.5342 53.25C22.2935 53.1297 21.9369 52.7988 21.7951 52.3477C21.5631 51.5957 21.8552 50.6504 22.7361 50.3496L49.6689 64.0781L68.1111 56.1848L70.6076 57.3664Z" fill="#01579B"/>
<path d="M72.075 58.6252L69.9567 57.856L65.591 58.1095L51.1621 64.5506C49.9375 65.0361 48.5668 64.9717 47.3938 64.3787L22.5363 51.7588C21.8961 51.4322 22.0336 50.4826 22.7383 50.3494L40.652 42.3357C41.1633 42.2412 41.6875 42.297 42.1645 42.499L67.7266 54.6849C67.7266 54.6849 71.7871 57.465 72.075 58.6252Z" fill="#0091EA"/>
<path d="M65.3453 58.233C65.3453 58.233 68.0352 57.1803 70.1492 57.2748C72.2633 57.3694 72.998 58.8518 72.998 58.8518C72.5984 57.0342 70.7207 56.1061 70.7207 56.1061L42.791 42.0424C42.5977 41.9608 41.8844 41.7932 40.7887 42.2444C39.9035 42.6096 37.0117 43.9631 37.0117 43.9631L65.3453 58.233Z" fill="#616161"/>
<path d="M73.1188 59.1959C72.9168 58.3924 72.4184 57.533 71.4988 57.1162C70.2871 56.5705 68.5598 56.7123 67.4555 57.2881L65.3457 58.2248V59.7115L68.0141 58.5256C70.6094 57.3697 71.7609 59.1014 71.8598 59.5096C72.2723 61.1724 71.473 62.1349 69.1141 63.2178L65.2812 64.9451V66.4404L69.6898 64.4767C71.6406 63.6947 73.8664 62.2252 73.1188 59.1959Z" fill="#424242"/>
<path d="M34.1824 58.8059L26.7617 48.5492L27.9262 48.0293L36.275 59.502L34.1824 58.8059ZM43.7 63.5324L42.3766 62.484L65.3434 57.7961V58.548L62.125 59.7684L43.7 63.5324Z" fill="#01579B"/>
<path d="M26.3594 39.843L55.3676 34.9961L68.0391 48.948C68.6793 49.6227 68.3313 50.7398 67.4203 50.9246L37.4711 57.0691L26.3594 39.843Z" fill="#9CCC65"/>
<path d="M67.4195 49.7207L37.6766 55.7449L37.582 57.1629L67.4195 51.0441C68.2617 50.868 68.6141 49.9055 68.1543 49.2266C67.991 49.4672 67.7418 49.6563 67.4195 49.7207ZM69.0223 56.2219C69.3359 56.7203 69.0523 57.3777 68.4766 57.4938L41.0969 63.0453C39.4512 63.3848 37.8355 62.3063 37.6895 60.6305C37.5648 59.2125 38.523 57.9277 39.9195 57.6355L66.2508 51.723L69.0223 56.2219Z" fill="#689F38"/>
<path d="M43.8856 54.4187L32.9801 38.8125L26.7582 40.4582C25.3188 41.8891 25.8559 44.2395 25.8559 44.2395C25.8559 44.2395 35.3821 59.5277 36.886 61.4828C38.3899 63.4379 40.5856 63.1328 40.5856 63.1328L44.2938 62.3852L43.9071 55.4672L43.8856 54.4187Z" fill="#616161"/>
<path d="M43.8882 54.5203L38.6503 55.6031C37.2194 55.9254 36.9616 57.2703 36.9616 57.2703L24.3159 39.1504C24.3159 39.1504 22.5155 41.3289 23.7101 43.1809L36.8886 61.4813C38.328 63.5309 40.5882 63.1484 40.5882 63.1484L44.2964 62.4008L43.914 55.6203L43.8882 54.5203Z" fill="#424242"/>
<path d="M67.3714 55.6637C67.5046 55.9559 67.3327 56.2953 67.019 56.3598L40.8382 61.7309C39.1925 62.0703 38.028 60.9789 38.0882 59.4922C38.1655 57.6145 39.2182 56.8195 40.6104 56.5316L66.9202 51.1562C66.9202 51.1562 66.0264 52.1617 66.7096 54.0438C66.9417 54.6926 67.1909 55.2684 67.3714 55.6637Z" fill="#B9E4EA"/>
<path d="M39.4262 55.9645L28.207 40.0918" stroke="#424242" stroke-width="0.258875" stroke-miterlimit="10"/>
<path d="M40.3062 49.198L25.8773 41.9277L25.293 43.0793L41.9648 51.5742L40.3062 49.198Z" fill="#424242"/>
<path d="M66.7473 47.5137L65.6902 46.3535L49.4352 53.8129L40.3086 49.2969L41.8641 51.5227L47.9098 54.6121L52.4129 53.9203L66.7473 47.5137Z" fill="#689F38"/>
<path d="M70.7112 44.6418L51.0616 53.5277C49.8499 54.0992 48.5866 54.0434 47.4264 53.373L22.6163 40.7746C21.9073 40.3191 21.6967 39.6531 21.7397 39.1891C21.7827 38.725 21.8901 38.2223 23.1362 37.8613L24.3006 37.4316L49.7897 49.9398L70.4877 41.3762L70.7112 44.6418Z" fill="#C62828"/>
<path d="M50.8203 52.1055C50.3288 52.3361 49.7895 52.4462 49.247 52.4268C48.7045 52.4073 48.1744 52.2589 47.7007 51.9938L23.4793 39.7906C23.1355 39.6016 23.0324 39.1676 23.2386 38.8324C23.7714 37.9516 24.7511 35.1672 23.1355 32.8555L49.8793 46.4594L50.8203 52.1055Z" fill="#F5F5F5"/>
<path d="M69.6648 43.6379L50.823 52.1071C50.2 52.3778 48.9582 52.859 47.5273 51.8965C48.6574 51.9782 49.4523 51.5098 49.8605 50.7492C50.2602 50.0102 50.1398 48.7985 49.6543 48.1153C49.3578 47.7028 48.5629 47.0453 48.2148 46.6758L68.5949 38.7051C70.3996 37.9617 72.0926 39.0746 72.3633 40.4281C72.6641 41.9578 70.7133 43.2082 69.6648 43.6379Z" fill="#94C6D6"/>
<path d="M70.6079 38.0434L51.1559 46.723C49.9313 47.2086 48.5606 47.1441 47.3875 46.5512L22.5301 33.927C22.2723 33.798 21.8856 33.4672 21.761 32.9988C21.5762 32.3027 21.8168 31.3875 22.7321 31.0266L45.5098 26.2012L70.6079 38.0434Z" fill="#C62828"/>
<path d="M72.0701 39.3009L69.9518 38.5318L65.5862 38.7853L51.1573 45.2263C49.9326 45.7119 48.5619 45.6474 47.3889 45.0545L22.5315 32.4302C21.8912 32.1037 22.119 31.24 22.7334 31.0209L40.6514 23.0115C41.1627 22.917 41.6869 22.9728 42.1639 23.1748L67.726 35.3607C67.726 35.3607 71.7823 38.1365 72.0701 39.3009Z" fill="url(#paint1_linear_489_5510)"/>
<path d="M65.3449 38.9069C65.3449 38.9069 67.5836 38.1205 69.6977 38.2151C71.8117 38.3096 73.002 39.5256 73.002 39.5256C72.568 37.5834 70.7246 36.7799 70.7246 36.7799L42.7949 22.7162C42.6016 22.6346 41.8883 22.467 40.7926 22.9182C39.9074 23.2834 37.0156 24.6369 37.0156 24.6369L65.3449 38.9069Z" fill="#616161"/>
<path d="M67.9027 37.9859L39.3242 23.5699L40.2695 23.1445L69.3336 37.7109L67.9027 37.9859Z" fill="#424242"/>
<path d="M73.1148 39.8733C72.9129 39.0697 72.5734 38.292 71.6152 37.8881C70.3906 37.3725 69.2734 37.2651 67.4516 37.9655L65.3418 38.9022V40.3889L68.0102 39.2029C69.3637 38.567 71.3574 38.7045 71.8559 40.1869C72.4016 41.8112 71.4691 42.8123 69.1102 43.8951L65.2773 45.6225V47.1178L69.6859 45.1541C71.641 44.3721 73.8668 42.9026 73.1148 39.8733Z" fill="#424242"/>
<defs>
<linearGradient id="paint0_linear_489_5510" x1="47.5" y1="0" x2="47.5" y2="95" gradientUnits="userSpaceOnUse">
<stop stop-color="#2B2622"/>
<stop offset="1" stop-color="#723506"/>
</linearGradient>
<linearGradient id="paint1_linear_489_5510" x1="47.1093" y1="22.9668" x2="47.1093" y2="45.5497" gradientUnits="userSpaceOnUse">
<stop stop-color="#F44336"/>
<stop offset="0.635" stop-color="#8E271F"/>
</linearGradient>
</defs>
</svg>
