<svg width="548" height="297" viewBox="0 0 548 297" fill="none" xmlns="http://www.w3.org/2000/svg">
<g clip-path="url(#clip0_629_5392)">
<path d="M74.5586 237.453H486.695V3.80859H74.5586V237.453Z" fill="white"/>
<path d="M490.097 241.259H71.1602V0H490.097V241.259ZM77.9597 233.645H483.297V7.61435H77.9597V233.645Z" fill="#E5E5E5"/>
<path d="M266.913 53.2344V132.536H163.971L144.953 158.089L147.125 132.536H137.871V53.2344H266.913Z" fill="#EE5945"/>
<path d="M329.211 57.9414V108.787H395.213L407.406 125.169L406.014 108.787H411.947V57.9414H329.211Z" fill="#F0F0F0"/>
<path d="M56.817 289.502H62.7718L65.6048 263.781H56.8164L56.817 289.502Z" fill="#FFB7B7"/>
<path d="M55.2969 287.325L67.0239 287.324C69.0059 287.324 70.9071 288.206 72.3086 289.776C73.7101 291.345 74.4975 293.473 74.4977 295.693V295.965L55.2972 295.966L55.2969 287.325Z" fill="#2F2E41"/>
<path d="M128.356 289.28L134.139 287.686L131.401 261.953L122.867 264.305L128.356 289.28Z" fill="#FFB7B7"/>
<path d="M126.418 287.572L137.805 284.434C139.73 283.904 141.764 284.251 143.46 285.4C145.156 286.549 146.374 288.405 146.848 290.56L146.906 290.825L128.262 295.963L126.418 287.572Z" fill="#2F2E41"/>
<path d="M53.1562 283.369L54.3932 276.282C54.3932 276.282 56.6702 248.916 73.0115 221.606L78.3306 191.938C78.3306 191.938 76.7509 169.481 91.9975 157.325L96.6981 153.699L113.178 154.757L116.985 178.093L124.654 233.308C124.654 233.308 126.633 233.516 127.375 239.901C128.884 242.582 129.776 245.64 129.973 248.801C129.973 248.801 133.898 260.926 134.949 269.854L134.826 278.589L126.538 283.534L109.264 228.828L96.909 198.244C96.909 198.244 90.9625 219.793 81.8543 238.253C81.8543 238.253 69.3791 268.49 66.8868 274.633L64.1654 284.688L53.1562 283.369Z" fill="#2F2E41"/>
<path d="M108.256 106.742C114.762 106.742 120.036 100.836 120.036 93.5505C120.036 86.2652 114.762 80.3594 108.256 80.3594C101.75 80.3594 96.4766 86.2652 96.4766 93.5505C96.4766 100.836 101.75 106.742 108.256 106.742Z" fill="#FFB7B7"/>
<path d="M108.256 106.742C114.762 106.742 120.036 100.836 120.036 93.5505C120.036 86.2652 114.762 80.3594 108.256 80.3594C101.75 80.3594 96.4766 86.2652 96.4766 93.5505C96.4766 100.836 101.75 106.742 108.256 106.742Z" fill="#FFB8B8"/>
<path d="M92.0312 157.465L95.9198 146.588C93.1724 136.622 93.3408 125.934 96.4005 116.084L97.1444 115.398C103.626 109.421 109.314 110.509 114.593 117.82C115.443 119.009 116.438 120.059 117.547 120.939C119.875 122.768 123.569 132.706 118.692 138.532L114.79 164.018C115.201 178.09 106.083 172.791 92.0312 157.465Z" fill="#3F3D56"/>
<path d="M147.789 142.673C147.286 142.247 146.706 141.95 146.089 141.802C145.473 141.654 144.835 141.66 144.221 141.818C143.606 141.977 143.03 142.284 142.533 142.719C142.036 143.153 141.631 143.704 141.344 144.334L131.519 143.477L129.598 150.036L143.488 151.028C144.464 151.496 145.559 151.547 146.566 151.171C147.574 150.796 148.423 150.019 148.953 148.989C149.483 147.96 149.657 146.748 149.443 145.584C149.228 144.419 148.64 143.384 147.789 142.673Z" fill="#FFB7B7"/>
<path d="M138.38 153.313L110.383 147.459L101.276 130.362C100.691 128.545 100.775 126.542 101.508 124.794C102.241 123.047 103.565 121.696 105.187 121.041C106.809 120.386 108.598 120.479 110.159 121.301C111.719 122.122 112.925 123.604 113.51 125.421L117.781 138.647L139.924 142.752L138.38 153.313Z" fill="#CCCCCC"/>
<path d="M87.2619 90.662C93.5033 90.662 98.5629 84.9961 98.5629 78.0068C98.5629 71.0175 93.5033 65.3516 87.2619 65.3516C81.0206 65.3516 75.9609 71.0175 75.9609 78.0068C75.9609 84.9961 81.0206 90.662 87.2619 90.662Z" fill="#2F2E41"/>
<path d="M77.5124 88.4872C78.9751 89.6711 80.6697 90.4455 82.4545 90.7456C84.2392 91.0457 86.0622 90.8628 87.7709 90.2122C89.4796 89.5616 91.0242 88.4622 92.2757 87.006C93.5272 85.5498 94.449 83.7791 94.9641 81.8422C94.7692 83.578 94.2551 85.2497 93.4541 86.7518C92.6531 88.2538 91.5827 89.5536 90.3106 90.569C89.0384 91.5845 87.592 92.2935 86.0628 92.6514C84.5335 93.0093 82.9546 93.0083 81.4258 92.6483C79.8969 92.2884 78.4513 91.5774 77.1802 90.5603C75.9091 89.5432 74.8401 88.242 74.0407 86.7389C73.2413 85.2357 72.7289 83.5633 72.5359 81.8273C72.3428 80.0912 72.4732 78.3291 72.9189 76.6523C72.6658 78.9051 72.9587 81.1926 73.7669 83.2749C74.5751 85.3573 75.8689 87.1576 77.5124 88.4872Z" fill="#2F2E41"/>
<path d="M122.112 88.4999C120.139 84.5447 119.384 82.8925 116.84 80.4873C114.591 78.3602 111.824 77.7356 109.592 79.751C106.952 78.4736 104.014 78.184 101.215 78.9251C98.4166 79.6662 95.906 81.3986 94.0564 83.8649C92.2067 86.3312 91.1169 89.3998 90.9487 92.6149C90.7805 95.8301 91.5428 99.0202 93.1226 101.711C94.7024 104.403 97.0153 106.452 99.7176 107.554C102.42 108.656 105.368 108.752 108.123 107.829C110.878 106.905 113.294 105.011 115.012 102.428C116.729 99.8447 117.657 96.7099 117.656 93.4892C117.654 92.9237 117.624 92.3587 117.565 91.7969C119.505 91.4918 120.172 88.805 122.112 88.4999Z" fill="#2F2E41"/>
<path d="M469.519 183.178C469.556 182.305 469.764 181.452 470.127 180.678C470.49 179.905 471.001 179.23 471.622 178.701C472.243 178.173 472.961 177.803 473.723 177.618C474.486 177.434 475.276 177.438 476.037 177.632L483.096 166.492L490.187 169.645L480.021 185.22C479.646 186.63 478.821 187.837 477.704 188.611C476.587 189.386 475.255 189.675 473.96 189.423C472.666 189.171 471.499 188.396 470.68 187.245C469.862 186.094 469.449 184.647 469.519 183.178Z" fill="#A0616A"/>
<path d="M477.266 173.596L489.816 149.958L484.703 134.688L491.667 113.891L491.924 114.014C492.093 114.095 496.05 116.072 496.636 123.154L504.639 151.321L483.28 182.351L477.266 173.596Z" fill="#3F3D56"/>
<path d="M409.1 86.6962C409.875 86.8049 410.618 87.1024 411.279 87.5678C411.939 88.0332 412.501 88.655 412.923 89.3897C413.346 90.1243 413.62 90.9537 413.725 91.8196C413.831 92.6854 413.765 93.5667 413.534 94.4012L422.906 103.144L419.551 110.818L406.47 98.2634C405.244 97.7349 404.234 96.721 403.63 95.4139C403.027 94.1068 402.873 92.5974 403.197 91.1716C403.521 89.7458 404.301 88.5026 405.389 87.6778C406.477 86.853 407.798 86.5037 409.1 86.6962Z" fill="#A0616A"/>
<path d="M417.029 96.082L437.104 111.922L451.095 107.394L469.073 116.777L468.943 117.055C468.858 117.236 466.792 121.502 460.441 121.609L434.745 128.367L408.77 102.12L417.029 96.082Z" fill="#3F3D56"/>
<path d="M453.764 288.708H446.785L443.465 258.562L453.765 258.563L453.764 288.708Z" fill="#A0616A"/>
<path d="M441.799 286.473H455.258V295.963H433.324C433.324 294.717 433.543 293.482 433.969 292.331C434.395 291.18 435.019 290.133 435.806 289.252C436.593 288.371 437.528 287.672 438.556 287.195C439.584 286.718 440.686 286.473 441.799 286.473Z" fill="#2F2E41"/>
<path d="M481.659 288.708H474.679L471.359 258.562L481.66 258.563L481.659 288.708Z" fill="#A0616A"/>
<path d="M469.693 286.473H483.153V295.963H461.219C461.219 294.717 461.438 293.482 461.864 292.331C462.29 291.18 462.914 290.133 463.701 289.252C464.488 288.371 465.422 287.672 466.45 287.195C467.478 286.718 468.58 286.473 469.693 286.473Z" fill="#2F2E41"/>
<path d="M484.141 178.676L483.572 223.3L483.003 281.948L470.479 280.673L464.217 199.713L456.247 280.673H443.318L442.016 199.075L446.57 181.225L484.141 178.676Z" fill="#2F2E41"/>
<path d="M445.322 181.497L443.414 181.404L452.276 126.734L448.648 110.21C448.459 109.35 448.559 108.443 448.927 107.66C449.296 106.877 449.909 106.273 450.649 105.962L457.178 103.22L459.484 96.1172L477.682 98.3131L478.13 103.864C480.102 104.573 496.341 110.629 495.22 117.53C494.114 124.341 487.585 145.77 487.253 146.856L486.11 177.588L485.969 177.667C485.8 177.762 473.256 184.668 459.63 184.667C454.714 184.759 449.836 183.678 445.322 181.497Z" fill="#3F3D56"/>
<path d="M467.868 92.6033C475.105 92.6033 480.971 86.0341 480.971 77.9306C480.971 69.827 475.105 63.2578 467.868 63.2578C460.632 63.2578 454.766 69.827 454.766 77.9306C454.766 86.0341 460.632 92.6033 467.868 92.6033Z" fill="#A0616A"/>
<path d="M478.483 92.1333C475.986 95.112 471.349 93.513 471.024 89.4437C470.998 89.1278 471 88.8098 471.029 88.4943C471.197 86.6918 472.127 85.0554 471.904 83.1522C471.854 82.6785 471.696 82.2271 471.446 81.8407C469.457 78.8569 464.786 83.1753 462.908 80.4741C461.756 78.8178 463.11 76.21 462.226 74.3588C461.06 71.9155 457.605 73.1208 455.439 71.7828C453.029 70.294 453.173 66.1528 454.76 63.6339C456.695 60.562 460.087 58.9228 463.437 58.6866C466.788 58.4504 470.115 59.4646 473.243 60.8296C476.796 62.3805 480.321 64.5239 482.508 68.0232C485.167 72.2788 485.423 78 484.093 82.9761C483.284 86.0031 480.522 89.701 478.483 92.1333Z" fill="#2F2E41"/>
<path d="M336.524 284.652L338.47 279.045L320.084 267.969L317.211 276.244L336.524 284.652Z" fill="#FFB8B8"/>
<path d="M346.95 270.026C346.125 269.666 345.244 269.492 344.359 269.513C343.474 269.535 342.601 269.752 341.79 270.151C340.98 270.551 340.248 271.125 339.636 271.842C339.024 272.558 338.544 273.403 338.223 274.327L336.91 278.107L334.886 283.941L334.391 285.372L340.878 288.198L347.154 270.116L346.95 270.026Z" fill="#2F2E41"/>
<path d="M334.888 273.861L334.042 276.375L331.929 282.65L331.878 282.807C326.495 283.582 320.594 282.063 315.136 279.704C312.952 278.761 310.813 277.692 308.728 276.502C305.641 274.756 302.878 272.913 300.673 271.336C297.353 268.95 295.301 267.159 295.301 267.159C295.301 267.159 294.758 267.707 293.777 268.648C292.462 269.909 290.36 271.876 287.698 274.193C286.683 275.083 285.592 276.013 284.427 276.985C275.839 284.119 264.816 265.083 264.816 265.083C264.816 265.083 267.916 262.873 268.726 262.444C271.334 261.062 277.46 257.802 282.745 254.905C285.468 253.41 287.965 252.009 289.641 251.013C295.577 247.474 302.955 254.17 302.955 254.17L334.888 273.861Z" fill="#2F2E41"/>
<path opacity="0.14" d="M334.888 273.861L334.042 276.375L331.929 282.65L331.878 282.807C326.495 283.582 320.594 282.063 315.136 279.704C312.952 278.761 310.813 277.692 308.728 276.502C305.641 274.756 302.878 272.913 300.673 271.336C297.353 268.95 295.301 267.159 295.301 267.159C295.301 267.159 294.758 267.707 293.777 268.648C292.462 269.909 290.36 271.876 287.698 274.193C286.683 275.083 285.592 276.013 284.427 276.985C275.839 284.119 264.816 265.083 264.816 265.083C264.816 265.083 267.916 262.873 268.726 262.444C271.334 261.062 277.46 257.802 282.745 254.905C285.468 253.41 287.965 252.009 289.641 251.013C295.577 247.474 302.955 254.17 302.955 254.17L334.888 273.861Z" fill="black"/>
<path d="M248.98 221.089H223.566C223.043 221.088 222.542 220.856 222.172 220.442C221.802 220.028 221.594 219.466 221.594 218.881V206.614C221.594 202.254 223.14 198.073 225.893 194.99C228.646 191.908 232.38 190.176 236.273 190.176C240.166 190.176 243.899 191.908 246.652 194.99C249.405 198.073 250.952 202.254 250.952 206.614V218.881C250.951 219.466 250.743 220.028 250.374 220.442C250.004 220.856 249.503 221.088 248.98 221.089Z" fill="#2F2E41"/>
<path d="M273.149 236.497C272.557 236.613 271.996 236.873 271.504 237.259C271.012 237.645 270.601 238.147 270.301 238.729C270.001 239.312 269.818 239.961 269.766 240.631C269.714 241.301 269.794 241.976 270.001 242.608L263.09 249.726L265.928 255.484L275.561 245.278C276.486 244.82 277.229 243.998 277.648 242.968C278.068 241.937 278.136 240.77 277.838 239.688C277.541 238.605 276.899 237.683 276.035 237.095C275.171 236.506 274.144 236.294 273.149 236.497Z" fill="#FFB8B8"/>
<path d="M252.354 268.861C252.042 268.861 251.729 268.846 251.416 268.815C249.552 268.641 247.757 267.939 246.202 266.776C244.646 265.613 243.38 264.026 242.522 262.164L231.45 238.301C230.725 236.737 230.566 234.92 231.006 233.229C231.446 231.537 232.452 230.1 233.813 229.218C235.175 228.335 236.789 228.074 238.318 228.49C239.847 228.905 241.174 229.965 242.023 231.448L252.238 257.113L266.136 244.467L274.184 247.975L260.593 264.777C259.548 266.061 258.276 267.088 256.858 267.791C255.439 268.494 253.905 268.858 252.354 268.861Z" fill="#EE5945"/>
<path d="M334.967 292.541L337.293 287.118L319.721 274.492L316.289 282.496L334.967 292.541Z" fill="#FFB8B8"/>
<path d="M346.372 278.855C345.574 278.425 344.708 278.176 343.824 278.121C342.94 278.066 342.054 278.207 341.219 278.536C340.384 278.864 339.614 279.374 338.955 280.036C338.295 280.697 337.759 281.498 337.376 282.392L335.807 286.048L333.388 291.691L332.797 293.075L339.072 296.451L346.569 278.962L346.372 278.855Z" fill="#2F2E41"/>
<path d="M334.08 281.642L333.063 284.076L330.526 290.151L330.465 290.303C325.044 290.612 319.265 288.59 313.985 285.769C311.872 284.641 309.813 283.391 307.815 282.025C304.857 280.018 302.228 277.942 300.138 276.181C296.992 273.516 295.069 271.554 295.069 271.554C295.069 271.554 294.49 272.054 293.447 272.908C292.05 274.051 289.819 275.833 287.006 277.913C285.933 278.713 284.782 279.547 283.553 280.416C274.5 286.79 261.627 294.552 250.677 296.191C231.445 299.071 235.972 270.332 235.972 270.332L251.277 261.431L257.775 262.908L265.01 264.547L267.573 265.131C267.573 265.131 268.059 264.925 268.896 264.566C271.591 263.413 277.923 260.69 283.391 258.256C286.209 257 288.794 255.817 290.533 254.968C296.694 251.951 303.591 259.262 303.591 259.262L334.08 281.642Z" fill="#2F2E41"/>
<path d="M207.964 296.876C208.549 296.725 209.098 296.433 209.572 296.019C210.045 295.605 210.432 295.08 210.705 294.481C210.978 293.882 211.13 293.223 211.151 292.551C211.172 291.879 211.061 291.209 210.826 290.59L217.399 283.082L214.298 277.496L205.149 288.245C204.247 288.757 203.543 289.621 203.172 290.674C202.8 291.727 202.787 292.897 203.133 293.96C203.48 295.024 204.164 295.909 205.054 296.446C205.944 296.983 206.98 297.136 207.964 296.876Z" fill="#FFB8B8"/>
<path d="M239.868 221.638C245.528 221.638 250.116 216.5 250.116 210.163C250.116 203.825 245.528 198.688 239.868 198.688C234.209 198.688 229.621 203.825 229.621 210.163C229.621 216.5 234.209 221.638 239.868 221.638Z" fill="#FFB8B8"/>
<path d="M226.539 242.015L235.465 270.355L235.412 270.455C234.17 272.753 233.765 274.607 234.239 275.816C234.363 276.123 234.546 276.397 234.775 276.617C235.003 276.838 235.271 277 235.561 277.094L256.685 260.559L255.946 253.932L255.987 253.858C258.029 250.2 258.69 246.887 257.952 244.011C257.284 241.685 255.841 239.736 253.923 238.569L253.849 238.505L243.313 224.145L229.229 226.947L226.539 242.015Z" fill="#EE5945"/>
<path d="M212.964 291.758L206.984 283.516L221.4 256.867L228.121 233.602C228.488 232.331 229.095 231.163 229.899 230.177C230.703 229.19 231.687 228.408 232.784 227.884C233.881 227.359 235.066 227.104 236.258 227.135C237.451 227.167 238.624 227.484 239.697 228.066C240.771 228.648 241.721 229.481 242.483 230.509C243.245 231.536 243.801 232.735 244.115 234.024C244.428 235.313 244.491 236.662 244.299 237.981C244.107 239.299 243.666 240.556 243.003 241.667L230.664 262.369L212.964 291.758Z" fill="#EE5945"/>
<path d="M254.422 207.842H238.882L238.723 205.344L237.926 207.842H235.533L235.217 202.89L233.638 207.842H229.008V207.597C229.011 204.15 230.236 200.844 232.413 198.407C234.589 195.969 237.541 194.598 240.619 194.594H242.81C245.889 194.598 248.84 195.969 251.017 198.407C253.194 200.844 254.419 204.149 254.422 207.597V207.842Z" fill="#2F2E41"/>
<path d="M238.756 223.378C238.639 223.378 238.522 223.367 238.407 223.344L227.027 221.095V200.035H239.554L239.244 200.44C234.929 206.075 238.179 215.213 240.501 220.158C240.672 220.52 240.749 220.929 240.721 221.338C240.694 221.746 240.564 222.138 240.347 222.468C240.165 222.75 239.926 222.979 239.649 223.137C239.372 223.296 239.066 223.378 238.756 223.378Z" fill="#2F2E41"/>
<path d="M408.767 185.648V215.318H291.396L274.447 238.089L276.383 215.318H268.137V185.648H408.767Z" fill="#F0F0F0"/>
<path d="M316.931 205.813C319.583 205.813 321.732 203.405 321.732 200.436C321.732 197.466 319.583 195.059 316.931 195.059C314.279 195.059 312.129 197.466 312.129 200.436C312.129 203.405 314.279 205.813 316.931 205.813Z" fill="white"/>
<path d="M300.728 205.813C303.379 205.813 305.529 203.405 305.529 200.436C305.529 197.466 303.379 195.059 300.728 195.059C298.076 195.059 295.926 197.466 295.926 200.436C295.926 203.405 298.076 205.813 300.728 205.813Z" fill="white"/>
<path d="M284.521 205.813C287.172 205.813 289.322 203.405 289.322 200.436C289.322 197.466 287.172 195.059 284.521 195.059C281.869 195.059 279.719 197.466 279.719 200.436C279.719 203.405 281.869 205.813 284.521 205.813Z" fill="white"/>
<path d="M547.4 296.551H0.600219C0.441031 296.551 0.288363 296.48 0.1758 296.354C0.0632367 296.228 0 296.057 0 295.879C0 295.701 0.0632367 295.53 0.1758 295.404C0.288363 295.278 0.441031 295.207 0.600219 295.207H547.4C547.559 295.207 547.712 295.278 547.824 295.404C547.937 295.53 548 295.701 548 295.879C548 296.057 547.937 296.228 547.824 296.354C547.712 296.48 547.559 296.551 547.4 296.551Z" fill="#CACACA"/>
</g>
<defs>
<clipPath id="clip0_629_5392">
<rect width="548" height="297" fill="white"/>
</clipPath>
</defs>
</svg>
